<svg width="20" height="20" viewBox="0 0 20 20" fill="none" xmlns="http://www.w3.org/2000/svg">
<path opacity="0.99" d="M10 20C15.5228 20 20 15.5228 20 10C20 4.47715 15.5228 0 10 0C4.47715 0 0 4.47715 0 10C0 15.5228 4.47715 20 10 20Z" fill="#FF4A03"/>
<path d="M17.7206 4.84084L16.8797 7.72059L14 6.87976" stroke="white" stroke-width="2" stroke-linecap="round" stroke-linejoin="round"/>
<path d="M17.0751 12.4999C16.5334 14.0331 15.508 15.3488 14.1535 16.2486C12.799 17.1484 11.1888 17.5836 9.56541 17.4887C7.94205 17.3937 6.39352 16.7737 5.15319 15.7221C3.91286 14.6705 3.04792 13.2442 2.6887 11.6582C2.32949 10.0723 2.49546 8.41251 3.16161 6.92907C3.82777 5.44564 4.95801 4.2189 6.38202 3.43371C7.80604 2.64853 9.44667 2.34743 11.0567 2.5758C12.6667 2.80417 14.1589 3.54963 15.3084 4.69985L17 6.5" stroke="white" stroke-width="2" stroke-linecap="round" stroke-linejoin="round"/>
<path d="M11.184 14H8.976V9.38C8.976 9.268 8.976 9.112 8.976 8.912C8.976 8.704 8.976 8.484 8.976 8.252C8.984 8.012 8.992 7.804 9 7.628C8.912 7.708 8.828 7.804 8.748 7.916C8.668 8.02 8.584 8.112 8.496 8.192L7.596 8.996L6.468 7.724L9.228 5.432H11.184V14Z" fill="white"/>
</svg>