<svg width="20" height="20" viewBox="0 0 20 20" fill="none" xmlns="http://www.w3.org/2000/svg">
<path opacity="0.99" d="M10 20C15.5228 20 20 15.5228 20 10C20 4.47715 15.5228 0 10 0C4.47715 0 0 4.47715 0 10C0 15.5228 4.47715 20 10 20Z" fill="#FF4A03"/>
<path d="M17.7206 4.84084L16.8797 7.72059L14 6.87976" stroke="white" stroke-width="2" stroke-linecap="round" stroke-linejoin="round"/>
<path d="M17.0751 12.4999C16.5334 14.0331 15.508 15.3488 14.1535 16.2486C12.799 17.1484 11.1888 17.5836 9.56541 17.4887C7.94205 17.3937 6.39352 16.7737 5.15319 15.7221C3.91286 14.6705 3.04792 13.2442 2.6887 11.6582C2.32949 10.0723 2.49546 8.41251 3.16161 6.92907C3.82777 5.44564 4.95801 4.2189 6.38202 3.43371C7.80604 2.64853 9.44667 2.34743 11.0567 2.5758C12.6667 2.80417 14.1589 3.54963 15.3084 4.69985L17 6.5" stroke="white" stroke-width="2" stroke-linecap="round" stroke-linejoin="round"/>
<path d="M10.66 8.456C11.108 8.456 11.516 8.56 11.884 8.768C12.252 8.976 12.544 9.28 12.76 9.68C12.976 10.072 13.084 10.556 13.084 11.132C13.084 11.764 12.964 12.304 12.724 12.752C12.484 13.192 12.124 13.532 11.644 13.772C11.164 14.004 10.556 14.12 9.82 14.12C9.356 14.12 8.932 14.08 8.548 14C8.164 13.92 7.824 13.804 7.528 13.652V11.936C7.808 12.08 8.148 12.208 8.548 12.32C8.948 12.432 9.312 12.488 9.64 12.488C9.912 12.488 10.14 12.444 10.324 12.356C10.508 12.26 10.648 12.124 10.744 11.948C10.848 11.764 10.9 11.532 10.9 11.252C10.9 10.876 10.788 10.588 10.564 10.388C10.348 10.18 10.016 10.076 9.568 10.076C9.368 10.076 9.168 10.1 8.968 10.148C8.776 10.188 8.608 10.228 8.464 10.268L7.66 9.872L7.972 5.432H12.556V7.148H9.808L9.7 8.576C9.828 8.552 9.952 8.528 10.072 8.504C10.192 8.472 10.388 8.456 10.66 8.456Z" fill="white"/>
</svg>