<svg width="20" height="20" viewBox="0 0 20 20" fill="none" xmlns="http://www.w3.org/2000/svg">
<path opacity="0.99" d="M10 20C15.5228 20 20 15.5228 20 10C20 4.47715 15.5228 0 10 0C4.47715 0 0 4.47715 0 10C0 15.5228 4.47715 20 10 20Z" fill="#FF4A03"/>
<path d="M17.7206 4.84084L16.8797 7.72059L14 6.87976" stroke="white" stroke-width="2" stroke-linecap="round" stroke-linejoin="round"/>
<path d="M17.0751 12.4999C16.5334 14.0331 15.508 15.3488 14.1535 16.2486C12.799 17.1484 11.1888 17.5836 9.56541 17.4887C7.94205 17.3937 6.39352 16.7737 5.15319 15.7221C3.91286 14.6705 3.04792 13.2442 2.6887 11.6582C2.32949 10.0723 2.49546 8.41251 3.16161 6.92907C3.82777 5.44564 4.95801 4.2189 6.38202 3.43371C7.80604 2.64853 9.44667 2.34743 11.0567 2.5758C12.6667 2.80417 14.1589 3.54963 15.3084 4.69985L17 6.5" stroke="white" stroke-width="2" stroke-linecap="round" stroke-linejoin="round"/>
<path d="M13.18 14H7.336V12.62L9.304 10.472C9.712 10.024 10.028 9.656 10.252 9.368C10.484 9.08 10.644 8.828 10.732 8.612C10.82 8.388 10.864 8.152 10.864 7.904C10.864 7.6 10.788 7.38 10.636 7.244C10.484 7.1 10.3 7.028 10.084 7.028C9.836 7.028 9.58 7.104 9.316 7.256C9.06 7.408 8.768 7.628 8.44 7.916L7.252 6.608C7.492 6.384 7.748 6.176 8.02 5.984C8.292 5.784 8.612 5.624 8.98 5.504C9.356 5.376 9.808 5.312 10.336 5.312C10.888 5.312 11.364 5.416 11.764 5.624C12.164 5.824 12.472 6.1 12.688 6.452C12.912 6.796 13.024 7.192 13.024 7.64C13.024 8 12.968 8.328 12.856 8.624C12.752 8.92 12.6 9.212 12.4 9.5C12.208 9.78 11.972 10.08 11.692 10.4C11.42 10.712 11.116 11.068 10.78 11.468L10.132 12.224L10.12 12.296H13.18V14Z" fill="white"/>
</svg>