<svg width="900" height="900" viewBox="0 0 900 900" fill="none" xmlns="http://www.w3.org/2000/svg">
<g clip-path="url(#clip0_685_4705)">
<rect width="900" height="900" fill="white"/>
<rect width="900" height="900" rx="130" fill="url(#paint0_linear_685_4705)"/>
<path d="M142 121C142 140.882 125.882 157 106 157C86.1177 157 70 140.882 70 121C70 101.118 86.1177 85 106 85C125.882 85 142 101.118 142 121Z" fill="white"/>
<path d="M142 305C142 324.882 125.882 341 106 341C86.1178 341 70.0001 324.882 70.0001 305C70.0001 285.118 86.1178 269 106 269C125.882 269 142 285.118 142 305Z" fill="white"/>
<path d="M142 213C142 232.882 125.882 249 106 249C86.1178 249 70.0001 232.882 70.0001 213C70.0001 193.118 86.1178 177 106 177C125.882 177 142 193.118 142 213Z" fill="white"/>
<g filter="url(#filter0_d_685_4705)">
<path d="M149 432L388 193H528L767 432M149 432L457 740M149 432L458 567.561M767 432L459 740M767 432L458 567.561M458 567.561L459 567.123M458 567.561L457 567.123" stroke="white" stroke-width="35" stroke-linecap="round" stroke-linejoin="round"/>
<rect x="350" y="483.875" width="37.047" height="65" rx="16" transform="rotate(-66.1165 350 483.875)" fill="white"/>
<rect width="34.5062" height="65" rx="16" transform="matrix(-0.409681 -0.912229 -0.912229 0.409681 566.431 484.479)" fill="white"/>
</g>
</g>
<defs>
<filter id="filter0_d_685_4705" x="-18.5" y="45.5" width="953" height="882" filterUnits="userSpaceOnUse" color-interpolation-filters="sRGB">
<feFlood flood-opacity="0" result="BackgroundImageFix"/>
<feColorMatrix in="SourceAlpha" type="matrix" values="0 0 0 0 0 0 0 0 0 0 0 0 0 0 0 0 0 0 127 0" result="hardAlpha"/>
<feOffset dy="20"/>
<feGaussianBlur stdDeviation="75"/>
<feColorMatrix type="matrix" values="0 0 0 0 0 0 0 0 0 0 0 0 0 0 0 0 0 0 0.5 0"/>
<feBlend mode="normal" in2="BackgroundImageFix" result="effect1_dropShadow_685_4705"/>
<feBlend mode="normal" in="SourceGraphic" in2="effect1_dropShadow_685_4705" result="shape"/>
</filter>
<linearGradient id="paint0_linear_685_4705" x1="450" y1="0" x2="450" y2="900" gradientUnits="userSpaceOnUse">
<stop offset="0.325" stop-color="#FF6C32"/>
<stop offset="0.875" stop-color="#D33C00"/>
</linearGradient>
<clipPath id="clip0_685_4705">
<rect width="900" height="900" fill="white"/>
</clipPath>
</defs>
</svg>
