<svg width="445" height="467" viewBox="0 0 445 467" fill="none" xmlns="http://www.w3.org/2000/svg">
<path d="M328.571 445.691C329.156 445.717 329.736 445.564 330.231 445.251C330.726 444.939 331.113 444.481 331.339 443.942C331.565 443.403 331.619 442.807 331.494 442.236C331.37 441.664 331.072 441.145 330.642 440.748C330.57 440.462 330.518 440.257 330.446 439.971C330.472 439.909 330.498 439.847 330.524 439.785C331.114 438.395 332.102 437.21 333.364 436.379C334.626 435.548 336.107 435.107 337.619 435.113C339.131 435.118 340.609 435.57 341.865 436.41C343.121 437.251 344.1 438.443 344.679 439.837C346.994 445.402 349.942 450.975 350.668 456.859C350.987 459.459 350.853 462.095 350.269 464.65C355.707 452.813 358.531 439.948 358.549 426.927C358.55 423.659 358.368 420.395 358.004 417.147C357.703 414.485 357.285 411.842 356.751 409.218C353.837 394.98 347.579 381.634 338.493 370.278C334.095 367.883 330.538 364.201 328.302 359.727C327.492 358.119 326.919 356.402 326.602 354.63C327.098 354.695 327.602 354.736 328.099 354.768C328.253 354.776 328.416 354.784 328.57 354.792L328.629 354.795C329.174 354.819 329.715 354.686 330.186 354.411C330.657 354.136 331.038 353.731 331.284 353.244C331.529 352.758 331.629 352.211 331.57 351.67C331.512 351.128 331.298 350.615 330.954 350.192C330.74 349.929 330.525 349.666 330.311 349.403C329.985 348.998 329.652 348.6 329.327 348.194C329.289 348.156 329.254 348.115 329.221 348.072C328.847 347.61 328.473 347.155 328.099 346.693C328.781 345.635 329.7 344.749 330.782 344.104C334.532 341.912 339.704 343.43 342.413 346.814C345.129 350.199 345.642 354.947 344.698 359.175C343.77 362.773 342.236 366.187 340.16 369.271C340.363 369.531 340.575 369.783 340.778 370.042C344.495 374.812 347.734 379.933 350.45 385.333C349.79 379.283 350.578 373.164 352.75 367.478C354.951 362.178 359.077 357.715 362.711 353.134C367.075 347.631 376.025 350.033 376.794 357.008C376.801 357.076 376.809 357.143 376.816 357.211C376.276 357.515 375.748 357.837 375.231 358.178C374.581 358.611 374.078 359.23 373.787 359.953C373.496 360.676 373.431 361.47 373.6 362.231C373.769 362.992 374.164 363.684 374.734 364.217C375.304 364.75 376.022 365.099 376.794 365.217L376.873 365.229C376.68 367.17 376.34 369.094 375.856 370.984C374.452 376.259 371.971 381.188 368.569 385.461C365.167 389.735 360.916 393.261 356.084 395.819C355.767 395.981 355.458 396.143 355.141 396.297C357.869 404.013 359.581 412.051 360.232 420.207C360.601 425.019 360.579 429.853 360.167 434.661L360.192 434.491C361.233 429.144 364.091 424.319 368.284 420.832C374.512 415.727 383.31 413.847 390.028 409.744C390.742 409.286 391.573 409.042 392.421 409.04C393.27 409.038 394.101 409.278 394.817 409.732C395.534 410.186 396.105 410.835 396.464 411.602C396.822 412.369 396.954 413.223 396.842 414.063C396.833 414.122 396.824 414.182 396.815 414.242C395.813 414.649 394.838 415.118 393.895 415.646C393.355 415.95 392.827 416.272 392.31 416.613C391.661 417.046 391.158 417.665 390.867 418.388C390.576 419.111 390.51 419.905 390.679 420.666C390.848 421.427 391.243 422.119 391.813 422.652C392.383 423.185 393.101 423.533 393.873 423.652L393.952 423.664C394.009 423.672 394.058 423.681 394.115 423.689C392.403 427.766 390.002 431.519 387.015 434.783C383.324 438.734 378.864 441.892 373.908 444.062C368.952 446.232 363.603 447.369 358.191 447.403H358.183C356.714 453.774 354.585 459.976 351.831 465.908H329.14C329.058 465.656 328.985 465.396 328.912 465.145C331.012 465.277 333.121 465.151 335.191 464.771C333.507 462.71 331.824 460.632 330.14 458.571C330.102 458.532 330.067 458.492 330.034 458.449C329.18 457.394 328.318 456.347 327.464 455.292L327.464 455.291C327.418 452.057 327.791 448.83 328.571 445.691Z" fill="#F2F2F2"/>
<path d="M151.022 177.364C151.348 178.454 151.91 179.46 152.668 180.31C153.426 181.159 154.362 181.833 155.409 182.283C156.456 182.733 157.589 182.949 158.729 182.914C159.868 182.88 160.986 182.597 162.004 182.085L182.152 200.433L184.827 186.312L165.272 171.098C164.296 169.449 162.748 168.214 160.921 167.627C159.094 167.04 157.114 167.143 155.358 167.915C153.601 168.688 152.19 170.076 151.391 171.818C150.591 173.559 150.46 175.533 151.022 177.364Z" fill="#FFB6B6"/>
<path d="M221.148 163.339C221.148 163.339 228.173 147.495 237.047 150.645C245.197 153.537 246.28 152.586 241.338 169.166L208.002 219.294C208.002 219.294 172.939 197.057 178.786 196.84C184.633 196.622 184.474 185.486 184.474 185.486L198.774 190.138L199.634 185.627L201.012 187.003L204.568 184.209L221.148 163.339Z" fill="#FF4A03"/>
<path d="M261.168 200.809L259.686 214.526L260.558 232.514L222.749 228.079L220.043 200.809L224.823 200.855L261.168 200.809Z" fill="#FFB6B6"/>
<path d="M268.433 449.859H259.704L251.221 384.34H270.992L268.433 449.859Z" fill="#FFB6B6"/>
<path d="M270.992 396.983V411.173C270.992 411.173 258.417 422.403 249.638 411.962L244.166 365.699C244.166 365.699 244.031 361.367 241.318 358.794C241.087 358.574 240.885 358.324 240.717 358.052C238.756 355.029 239.555 348.779 239.555 348.779C239.555 348.779 235.743 346.727 234.541 340.098C233.339 333.469 229.384 318.987 229.384 318.987C229.384 318.987 221.215 297.607 221.784 284.073C221.887 281.571 221.926 279.29 221.926 277.238C221.903 268.178 220.993 263.498 220.993 263.498L219.34 232.056L222.749 227.29L238.337 227.747L239.397 227.716L239.784 227.708L255.791 227.227L264.831 232.53C264.831 232.53 265.638 234.535 266.776 237.305C268.904 242.442 272.178 250.216 273.625 252.828C275.856 256.853 274.748 277.562 267.156 286.764C267.156 286.764 264 291.238 264.831 292.856C265.582 294.324 264.863 296.81 264.72 297.252V297.26C264.704 297.3 264.696 297.323 264.696 297.323L263.486 324.156C263.486 324.156 263.486 335.655 266.199 339.853C268.912 344.052 270.992 396.983 270.992 396.983Z" fill="#2F2E41"/>
<path d="M273.04 464.952H266.78L265.663 459.054L262.801 464.952H246.198C245.402 464.952 244.627 464.698 243.986 464.228C243.345 463.757 242.871 463.094 242.634 462.336C242.398 461.578 242.41 460.764 242.669 460.013C242.929 459.262 243.422 458.614 244.077 458.163L257.336 449.025V443.062L271.282 443.893L273.04 464.952Z" fill="#2F2E41"/>
<path d="M216.822 450.03L208.229 448.494L211.464 382.509L230.926 385.99L216.822 450.03Z" fill="#FFB6B6"/>
<path d="M267.156 286.763C267.156 286.763 264.001 291.238 264.831 292.855C265.582 294.323 264.863 296.809 264.72 297.251V297.259C263.849 297.946 262.926 298.566 261.96 299.114C261.96 299.114 257.389 302.144 257.579 303.952C257.761 305.759 255.823 308.063 255.823 308.063L244.933 332.623C244.933 332.623 240.741 343.34 241.746 348.233C242.054 349.733 241.556 353.513 240.718 358.051C238.843 368.326 232.058 404.543 232.058 404.543L226.704 417.486C226.704 417.486 206.671 411.938 206.141 410.383C206.141 410.383 213.259 360.237 211.669 356.859C210.08 353.482 210.863 343.593 212.16 336.987C213.449 330.374 215.212 292.563 220.669 280.165C221.112 279.155 221.531 278.176 221.927 277.237C226.332 266.654 227.423 260.703 227.423 260.703L237.325 230.816L238.337 227.747L238.567 228.867L239.784 227.707L257.595 234.036L266.777 237.304C268.904 242.441 272.178 250.215 273.626 252.827C275.856 256.852 274.749 277.561 267.156 286.763Z" fill="#2F2E41"/>
<path d="M218.142 444.044L208.554 441.737L207.099 441.388L206.048 447.257L191.379 453.919C190.654 454.246 190.053 454.797 189.664 455.49C189.275 456.184 189.119 456.983 189.219 457.771C189.318 458.559 189.668 459.294 190.217 459.87C190.766 460.445 191.485 460.829 192.269 460.967L208.605 463.895L212.468 458.592L212.524 464.597L218.689 465.695L220.681 444.656L218.142 444.044Z" fill="#2F2E41"/>
<path d="M444.058 467H0.94162C0.692346 467 0.453546 466.9 0.277538 466.724C0.10153 466.548 0.00268555 466.31 0.00268555 466.061C0.00268555 465.812 0.10153 465.573 0.277538 465.397C0.453546 465.221 0.692346 465.122 0.94162 465.121H444.058C444.308 465.122 444.546 465.221 444.722 465.397C444.898 465.573 444.997 465.812 444.997 466.061C444.997 466.31 444.898 466.548 444.722 466.724C444.546 466.9 444.308 467 444.058 467Z" fill="#CCCCCC"/>
<path d="M244.291 139.854C253.922 139.854 261.728 132.064 261.728 122.454C261.728 112.844 253.922 105.054 244.291 105.054C234.661 105.054 226.854 112.844 226.854 122.454C226.854 132.064 234.661 139.854 244.291 139.854Z" fill="#FFB7B7"/>
<path d="M226.403 155.725L235.891 150.045L240.148 142.845H251.22L254.866 148.151L271.637 156.673L271.469 182.707L263.874 221.765L220.376 209.137L217.708 194.504C217.708 194.504 202.211 177.974 215.493 168.506L226.403 155.725Z" fill="#FF4A03"/>
<path d="M267.015 268.131C267.917 267.577 268.685 266.832 269.267 265.95C269.849 265.067 270.23 264.068 270.383 263.022C270.536 261.977 270.458 260.911 270.154 259.899C269.849 258.887 269.326 257.954 268.621 257.166L274.739 191.625L259.036 192.835L257.96 256.879C256.711 258.148 255.973 259.831 255.884 261.608C255.795 263.384 256.363 265.132 257.479 266.518C258.595 267.905 260.183 268.836 261.94 269.133C263.698 269.43 265.503 269.073 267.015 268.131Z" fill="#FFB6B6"/>
<path d="M271.783 156.262C271.783 156.262 271.783 157.051 274.402 164.46C276.647 170.806 280.619 209.796 272.869 219.312C275.03 220.64 271.78 245.279 270.992 247.809L255.174 243.863C253.041 240.203 255.312 214.516 256.863 213.907L256.772 202.211L252.724 163.658L268.312 157.286L271.783 156.262Z" fill="#FF4A03"/>
<path d="M159.966 187.279L155.977 161.765C155.841 160.892 156.058 160.001 156.58 159.287C157.103 158.574 157.887 158.096 158.762 157.959L164.334 157.091C165.209 156.956 166.102 157.172 166.817 157.693C167.532 158.214 168.011 158.997 168.148 159.87L172.137 185.384C172.273 186.257 172.056 187.148 171.534 187.862C171.012 188.575 170.227 189.053 169.353 189.19L163.78 190.058C162.906 190.193 162.013 189.976 161.297 189.455C160.582 188.934 160.104 188.152 159.966 187.279Z" fill="#3F3D56"/>
<path d="M159.617 159.158C159.146 159.232 158.723 159.49 158.442 159.874C158.16 160.259 158.043 160.739 158.116 161.209L162.106 186.724C162.18 187.194 162.438 187.616 162.823 187.896C163.209 188.177 163.69 188.294 164.161 188.221L169.734 187.353C170.205 187.279 170.628 187.022 170.909 186.637C171.19 186.253 171.307 185.773 171.234 185.302L167.245 159.788C167.171 159.318 166.913 158.896 166.527 158.615C166.142 158.335 165.661 158.218 165.189 158.291L159.617 159.158Z" fill="#FF4A03"/>
<path d="M270.201 130.447V132.397C270.201 133.656 269.949 134.902 269.459 136.062C268.969 137.222 268.251 138.272 267.348 139.151C266.445 140.03 265.375 140.719 264.201 141.179C263.026 141.638 261.772 141.858 260.511 141.826L247.668 141.42C247.517 140.151 247.098 138.928 246.437 137.834C246.526 139.037 246.356 140.246 245.938 141.378L240.257 141.237C244.761 131.332 246.518 122.912 240.257 118.826H231.839C231.671 117.623 231.261 116.465 230.633 115.423C230.722 116.577 230.569 117.736 230.184 118.826H221.958C221.959 114.644 223.624 110.634 226.588 107.676C229.551 104.719 233.571 103.057 237.762 103.056H240.257C259.072 98.3333 269.003 108.426 270.201 130.447Z" fill="#2F2E41"/>
</svg>
