<svg width="20" height="20" viewBox="0 0 20 20" fill="none" xmlns="http://www.w3.org/2000/svg">
<path opacity="0.99" d="M10 20C15.5228 20 20 15.5228 20 10C20 4.47715 15.5228 0 10 0C4.47715 0 0 4.47715 0 10C0 15.5228 4.47715 20 10 20Z" fill="#FF4A03"/>
<ellipse cx="9.99902" cy="9.9998" rx="5.25" ry="5.72734" stroke="white" stroke-width="1.1"/>
<path d="M11.8332 10.0001C11.8332 11.1716 10.9723 12.0456 9.99984 12.0456C9.02738 12.0456 8.1665 11.1716 8.1665 10.0001C8.1665 8.82854 9.02738 7.95459 9.99984 7.95459C10.9723 7.95459 11.8332 8.82854 11.8332 10.0001Z" stroke="white"/>
<path d="M9.99951 3L9.99951 6.18186" stroke="white"/>
<path d="M9.99951 13.8184V17.0002" stroke="white"/>
<path d="M17 10L14.0833 10" stroke="white"/>
<path d="M5.9165 10L2.99984 10" stroke="white"/>
</svg>