<svg width="20" height="20" viewBox="0 0 20 20" fill="none" xmlns="http://www.w3.org/2000/svg">
<path opacity="0.99" d="M10 20C15.5228 20 20 15.5228 20 10C20 4.47715 15.5228 0 10 0C4.47715 0 0 4.47715 0 10C0 15.5228 4.47715 20 10 20Z" fill="#FF4A03"/>
<path d="M15.25 12.3334V7.66677C15.2498 7.46218 15.1958 7.26124 15.0934 7.08412C14.991 6.90699 14.8438 6.7599 14.6667 6.65761L10.5833 4.32427C10.406 4.22188 10.2048 4.16797 10 4.16797C9.79521 4.16797 9.59402 4.22188 9.41667 4.32427L5.33333 6.65761C5.15615 6.7599 5.00899 6.90699 4.9066 7.08412C4.80422 7.26124 4.75021 7.46218 4.75 7.66677V12.3334C4.75021 12.538 4.80422 12.739 4.9066 12.9161C5.00899 13.0932 5.15615 13.2403 5.33333 13.3426L9.41667 15.6759C9.59402 15.7783 9.79521 15.8322 10 15.8322C10.2048 15.8322 10.406 15.7783 10.5833 15.6759L14.6667 13.3426C14.8438 13.2403 14.991 13.0932 15.0934 12.9161C15.1958 12.739 15.2498 12.538 15.25 12.3334Z" stroke="white" stroke-linecap="round" stroke-linejoin="round"/>
<path d="M4.90771 7.06006L10.0002 10.0059L15.0927 7.06006" stroke="white" stroke-linecap="round" stroke-linejoin="round"/>
<path d="M10 15.88V10" stroke="white" stroke-linecap="round" stroke-linejoin="round"/>
</svg>