<svg width="20" height="20" viewBox="0 0 20 20" fill="none" xmlns="http://www.w3.org/2000/svg">
<path opacity="0.99" d="M10 20C15.5228 20 20 15.5228 20 10C20 4.47715 15.5228 0 10 0C4.47715 0 0 4.47715 0 10C0 15.5228 4.47715 20 10 20Z" fill="#FF4A03"/>
<g clip-path="url(#clip0_2547_5985)">
<path d="M9 10.5C9.21473 10.787 9.48868 11.0246 9.80328 11.1965C10.1179 11.3683 10.4658 11.4705 10.8233 11.4961C11.1809 11.5218 11.5398 11.4702 11.8757 11.3449C12.2116 11.2196 12.5166 11.0235 12.77 10.77L14.27 9.26998C14.7254 8.79848 14.9774 8.16697 14.9717 7.51148C14.966 6.85599 14.7031 6.22896 14.2395 5.76544C13.776 5.30192 13.149 5.03899 12.4935 5.0333C11.838 5.0276 11.2065 5.27959 10.735 5.73498L9.875 6.58998" stroke="white" stroke-width="1.5" stroke-linecap="round" stroke-linejoin="round"/>
<path d="M11.0001 9.50011C10.7854 9.21305 10.5114 8.97552 10.1968 8.80364C9.88223 8.63176 9.53435 8.52955 9.17677 8.50395C8.8192 8.47834 8.46031 8.52993 8.12443 8.65522C7.78855 8.78051 7.48354 8.97658 7.2301 9.23011L5.7301 10.7301C5.2747 11.2016 5.02272 11.8331 5.02841 12.4886C5.03411 13.1441 5.29703 13.7711 5.76055 14.2347C6.22407 14.6982 6.8511 14.9611 7.5066 14.9668C8.16209 14.9725 8.79359 14.7205 9.2651 14.2651L10.1201 13.4101" stroke="white" stroke-width="1.5" stroke-linecap="round" stroke-linejoin="round"/>
</g>
<defs>
<clipPath id="clip0_2547_5985">
<rect width="12" height="12" fill="white" transform="translate(4 4)"/>
</clipPath>
</defs>
</svg>
