<svg width="22" height="22" viewBox="0 0 22 22" fill="none" xmlns="http://www.w3.org/2000/svg">
<path opacity="0.99" d="M11 21C16.5228 21 21 16.5228 21 11C21 5.47715 16.5228 1 11 1C5.47715 1 1 5.47715 1 11C1 16.5228 5.47715 21 11 21Z" fill="#FF4A03"/>
<path d="M6 14L16 14" stroke="white" stroke-width="2" stroke-linecap="round" stroke-linejoin="round"/>
<path d="M8.25 8.25H8.26" stroke="white" stroke-width="2" stroke-linecap="round" stroke-linejoin="round"/>
<path d="M13.75 8.25H13.76" stroke="white" stroke-width="2" stroke-linecap="round" stroke-linejoin="round"/>
<path d="M10.5 12H12V13.5H11.5M11.5 13.5L11.3125 13.2188V12.8906M11.5 13.5H10.75M10.75 13.5H10.5M10.75 13.5V12.25H11.5V13L11.3125 12.8906M11.3125 12.8906L11.125 12.7812V13H11L11.125 12.5L11.3125 12.7812V12.8906ZM6 14H7.5V15.5H7M7 15.5L6.8125 15.2188V14.8906M7 15.5H6.25M6.25 15.5H6M6.25 15.5V14.25H7V15L6.8125 14.8906M6.8125 14.8906L6.625 14.7812V15H6.5L6.625 14.5L6.8125 14.7812V14.8906ZM13.5 12H15V13.5H14.5M14.5 13.5L14.3125 13.2188V12.8906M14.5 13.5H13.75M13.75 13.5H13.5M13.75 13.5V12.25H14.5V13L14.3125 12.8906M14.3125 12.8906L14.125 12.7812V13H14L14.125 12.5L14.3125 12.7812V12.8906ZM12 14H13.5V15.5H13M13 15.5L12.8125 15.2188V14.8906M13 15.5H12.25M12.25 15.5H12M12.25 15.5V14.25H13V15L12.8125 14.8906M12.8125 14.8906L12.625 14.7812V15H12.5L12.625 14.5L12.8125 14.7812V14.8906ZM9 14H10.5V15.5H10M10 15.5L9.8125 15.2188V14.8906M10 15.5H9.25M9.25 15.5H9M9.25 15.5V14.25H10V15L9.8125 14.8906M9.8125 14.8906L9.625 14.7812V15H9.5L9.625 14.5L9.8125 14.7812V14.8906ZM7.5 12H9V13.5H8.5M8.5 13.5L8.3125 13.2188V12.8906M8.5 13.5H7.75M7.75 13.5H7.5M7.75 13.5V12.25H8.5V13L8.3125 12.8906M8.3125 12.8906L8.125 12.7812V13H8L8.125 12.5L8.3125 12.7812V12.8906Z" stroke="#BABABA" stroke-width="0.5"/>
<path d="M15.5555 15.8302L15 14.5097L17.0022 13.5L17.9344 14.6901M15.5555 15.8302L17.9344 14.6901M15.5555 15.8302L16.4583 17.976M17.9344 14.6901L19.4089 16.5725M16.4583 17.976L16.9444 19.1315L17.5618 19.2065L18.8716 18.7392L19.639 17.5794L19.714 16.962L19.4089 16.5725M16.4583 17.976L19.4089 16.5725M16.0676 16.4823C16.1149 16.4598 16.1619 16.4337 16.2085 16.4052M16.2085 16.4052C16.3081 16.3445 16.4059 16.2728 16.5003 16.2013M16.2085 16.4052C16.1471 16.3051 16.1034 16.2069 16.1125 16.137C16.1219 16.0645 16.3419 16.0947 16.5134 16.1175M16.2085 16.4052C16.3015 16.5565 16.4351 16.7121 16.4891 16.7807C16.5653 16.8774 16.7451 17.1148 16.9122 17.2118M16.5003 16.2013C16.5328 16.1768 16.5649 16.1522 16.5965 16.1281M16.5003 16.2013C16.4967 16.3114 16.546 16.4193 16.6189 16.5966C16.673 16.7281 16.7422 16.8072 16.8504 16.8167M16.5003 16.2013C16.5013 16.1739 16.5055 16.1463 16.5134 16.1175M16.5965 16.1281C16.6273 16.1046 16.6577 16.0816 16.6876 16.0594C17.0004 15.8271 17.2117 15.7578 17.6097 15.8204C17.6868 15.8326 17.855 15.8316 17.703 15.8941C17.5397 15.9612 17.3747 16.0451 17.2011 16.0818C17.0329 16.1173 16.8713 16.0927 16.7035 16.1322C16.6849 16.1366 16.6459 16.1338 16.5965 16.1281ZM16.5965 16.1281C16.5711 16.1252 16.543 16.1215 16.5134 16.1175M16.5134 16.1175C16.5282 16.0639 16.556 16.006 16.5998 15.9367C16.6844 15.8027 16.7718 15.6758 16.8939 15.573C17.0173 15.4691 17.1749 15.5581 17.3217 15.5629C17.5514 15.5704 17.6987 15.4587 17.9131 15.528M16.9122 17.2118C16.955 17.2366 16.997 17.2522 17.0362 17.2539C17.1396 17.2583 17.3575 16.9836 17.4062 16.9384C17.5769 16.7797 17.8074 16.6586 17.9803 16.5026M16.9122 17.2118C16.8939 17.0754 16.8635 16.9467 16.8485 16.8711C16.845 16.8536 16.846 16.8353 16.8504 16.8167M16.9122 17.2118C16.9209 17.2767 16.9269 17.3434 16.9272 17.4068M17.9803 16.5026C18.0027 16.4825 18.0241 16.4617 18.0443 16.4402C18.2391 16.2328 17.6903 16.4534 17.6089 16.4604C17.4006 16.4784 17.2939 16.4825 17.0958 16.564C17.0089 16.5997 16.875 16.7128 16.8504 16.8167M17.9803 16.5026C18.0598 16.5052 18.1489 16.512 18.2308 16.5264M17.9803 16.5026C17.8833 16.4995 17.8007 16.5029 17.7634 16.5067C17.4871 16.535 17.2719 16.6896 17.0233 16.7852C16.9562 16.8111 16.8993 16.821 16.8504 16.8167M16.9272 17.4068C16.9279 17.5475 16.9007 17.6725 16.8134 17.7284C16.6389 17.8402 16.061 17.3075 16.6208 17.385C16.7207 17.3988 16.8232 17.4061 16.9272 17.4068ZM16.9272 17.4068C17.6091 17.4119 18.3504 17.1386 18.7694 16.6138C19.0069 16.3162 18.4753 16.4171 18.3142 16.4834C18.2802 16.4973 18.2527 16.5118 18.2308 16.5264M18.2308 16.5264C17.9698 16.7004 18.5005 16.9048 18.5035 16.6997C18.5049 16.6038 18.3799 16.5526 18.2308 16.5264ZM17.9131 15.528C17.9343 15.5349 17.9562 15.5435 17.9789 15.5542C18.0668 15.5957 18.4597 15.9958 18.1547 15.9933C18.0332 15.9922 17.9821 15.7212 17.9509 15.6451C17.9329 15.6014 17.9209 15.5631 17.9131 15.528ZM17.9131 15.528C17.8827 15.3921 17.9152 15.3037 17.9099 15.1366M18.5882 15.8664C18.6079 16.0353 18.5421 16.1183 18.4548 16.2575M15.1996 14.7799L16.9436 19.0221M16.1375 15.8961C16.2378 15.8292 16.3361 15.759 16.4387 15.6956C16.4964 15.6599 16.542 15.6228 16.5915 15.5766C16.6146 15.5552 16.6706 15.5296 16.6887 15.5055C16.7109 15.4758 16.743 15.4623 16.7807 15.4438C16.9272 15.3722 17.0784 15.3088 17.2295 15.2477L17.2323 15.2465C17.3125 15.2141 17.3754 15.1887 17.463 15.1938C17.5025 15.1962 17.5387 15.2086 17.5785 15.2086C17.6791 15.2086 17.688 15.2319 17.6323 15.3353C17.4319 15.7075 17.0896 15.966 16.8354 16.2954C16.77 16.3802 16.7117 16.4713 16.6545 16.5625M16.6545 16.5625C16.6326 16.5974 16.6108 16.6323 16.5889 16.6669L16.5876 16.6689M16.6545 16.5625C16.7785 16.4802 16.9999 16.374 17.0438 16.3492C17.0537 16.3436 17.0917 16.3219 17.1332 16.2978M16.6545 16.5625C16.5985 16.5997 16.5624 16.6319 16.5715 16.6496C16.5756 16.6574 16.581 16.6638 16.5876 16.6689M16.5876 16.6689C16.5731 16.6919 16.5594 16.7153 16.5594 16.7433C16.5594 16.781 16.6071 16.7773 16.6649 16.759M16.5876 16.6689C16.613 16.6886 16.6554 16.6896 16.7023 16.6812M16.6649 16.759C16.7506 16.7319 16.8585 16.6726 16.8667 16.6678C17.109 16.5249 17.3413 16.3597 17.5733 16.2008C17.6113 16.1747 17.6511 16.1485 17.6902 16.1211M16.6649 16.759C16.6293 16.8443 16.595 16.9391 16.5238 16.9968C16.5063 17.011 16.4934 17.0161 16.4857 17.0176M16.6649 16.759C16.671 16.7445 16.6772 16.7302 16.6835 16.7164C16.6892 16.7042 16.6955 16.6925 16.7023 16.6812M17.6902 16.1211C17.7273 16.0951 17.7637 16.0681 17.7972 16.0393C17.808 16.0301 17.8065 16.0298 17.7979 16.0352M17.6902 16.1211C17.7222 16.0887 17.7784 16.0473 17.7979 16.0352M17.6902 16.1211C17.6831 16.1283 17.6772 16.135 17.6731 16.1409C17.5575 16.3082 17.467 16.5203 17.4151 16.728M17.7979 16.0352C17.826 16.1317 17.8604 16.2247 17.8888 16.3199M17.7979 16.0352C17.7877 16.0001 17.7783 15.9645 17.7703 15.9282C17.7654 15.9056 17.761 15.838 17.7712 15.8588C17.8304 15.9802 17.8964 16.0979 17.9653 16.214M17.4151 16.728C17.4004 16.7868 17.3888 16.8452 17.3806 16.9022C17.3634 17.0215 17.4782 16.9626 17.5394 16.9325C17.6836 16.8619 17.8185 16.7695 17.9473 16.6732M17.4151 16.728C17.5943 16.61 17.758 16.4831 17.8888 16.3199M17.4151 16.728C17.4002 16.7378 17.3852 16.7475 17.3701 16.7572C17.2398 16.8409 17.0895 16.9646 16.9431 17.0211C16.7932 17.0789 16.6916 17.1777 16.5438 17.0532C16.5145 17.0286 16.4956 17.0201 16.4857 17.0176M17.9473 16.6732C17.9601 16.6636 17.9729 16.654 17.9856 16.6444C18.0313 16.6097 18.1573 16.499 18.1288 16.5489C18.0738 16.6451 18.0218 16.7372 17.9865 16.8431C17.9857 16.8454 17.95 17.0439 17.95 16.9325C17.95 16.8462 17.9508 16.7596 17.9473 16.6732ZM17.9473 16.6732C17.946 16.641 17.9441 16.6088 17.9413 16.5766C17.9337 16.4868 17.9135 16.4025 17.8888 16.3199M17.8888 16.3199C17.9158 16.2862 17.9413 16.251 17.9653 16.214M17.9653 16.214C17.9706 16.2229 17.9759 16.2318 17.9813 16.2407C18.0097 16.2882 18.0271 16.3958 18.0785 16.3753C18.1217 16.358 18.1325 16.1704 18.1375 16.1391C18.1385 16.133 18.1867 15.9194 18.1444 15.9707L18.1415 15.9743C18.0863 16.0414 18.0283 16.112 17.983 16.186C17.9772 16.1955 17.9713 16.2048 17.9653 16.214ZM16.4857 17.0176C16.4745 17.0147 16.4751 17.0196 16.4857 17.0176ZM16.7023 16.6812C16.7843 16.5474 16.9476 16.4803 17.0559 16.3753C17.0833 16.3487 17.1071 16.3219 17.1332 16.2978M16.7023 16.6812C16.7932 16.665 16.9011 16.6137 16.9361 16.594C16.9991 16.5586 17.0525 16.5046 17.1063 16.4586M17.1332 16.2978C17.155 16.2778 17.1784 16.2596 17.2069 16.245C17.3269 16.1839 17.222 16.2463 17.1332 16.2978ZM17.6375 14.4273C17.6312 14.6221 17.5906 14.8101 17.5906 15.0055M15.5438 15.4586C15.6669 15.5407 15.7798 15.6461 15.9344 15.6461M16.9344 13.6773H16.95M15.2469 14.6773C15.2963 14.6227 15.3331 14.5592 15.3563 14.4898M16.8719 18.0055C16.8469 18.0854 16.7906 18.1636 16.7521 18.2381C16.7392 18.2631 16.6844 18.3924 16.6844 18.3023" stroke="#BABABA" stroke-width="0.5" stroke-linecap="square" stroke-linejoin="round"/>
</svg>