<svg width="20" height="20" viewBox="0 0 20 20" fill="none" xmlns="http://www.w3.org/2000/svg">
<path opacity="0.99" d="M10 20C15.5228 20 20 15.5228 20 10C20 4.47715 15.5228 0 10 0C4.47715 0 0 4.47715 0 10C0 15.5228 4.47715 20 10 20Z" fill="#FF4A03"/>
<g clip-path="url(#clip0_0_1)">
<path d="M12.5 14.5V13.5C12.5 12.9696 12.2893 12.4609 11.9142 12.0858C11.5391 11.7107 11.0304 11.5 10.5 11.5H6.5C5.96957 11.5 5.46086 11.7107 5.08579 12.0858C4.71071 12.4609 4.5 12.9696 4.5 13.5V14.5" stroke="white" stroke-width="1.5" stroke-linecap="round" stroke-linejoin="round"/>
<path d="M8.5 9.5C9.60457 9.5 10.5 8.60457 10.5 7.5C10.5 6.39543 9.60457 5.5 8.5 5.5C7.39543 5.5 6.5 6.39543 6.5 7.5C6.5 8.60457 7.39543 9.5 8.5 9.5Z" stroke="white" stroke-width="1.5" stroke-linecap="round" stroke-linejoin="round"/>
<path d="M15.5 14.4999V13.4999C15.4997 13.0568 15.3522 12.6263 15.0807 12.2761C14.8092 11.9259 14.4291 11.6757 14 11.5649" stroke="white" stroke-width="1.5" stroke-linecap="round" stroke-linejoin="round"/>
<path d="M12 5.56494C12.4302 5.67509 12.8115 5.92529 13.0838 6.2761C13.3561 6.6269 13.5039 7.05836 13.5039 7.50244C13.5039 7.94653 13.3561 8.37798 13.0838 8.72879C12.8115 9.07959 12.4302 9.32979 12 9.43994" stroke="white" stroke-width="1.5" stroke-linecap="round" stroke-linejoin="round"/>
</g>
<defs>
<clipPath id="clip0_0_1">
<rect width="12" height="12" fill="white" transform="translate(4 4)"/>
</clipPath>
</defs>
</svg>