<svg width="22" height="22" viewBox="0 0 23 24" fill="none" xmlns="http://www.w3.org/2000/svg">
<g clip-path="url(#clip0_558_4677)">
<path d="M11.4998 22.5799C17.0695 22.5799 21.5832 18.0571 21.5832 12.4799C21.5832 6.90263 17.0695 2.37988 11.4998 2.37988C5.93015 2.37988 1.4165 6.90263 1.4165 12.4799C1.4165 18.0571 5.93015 22.5799 11.4998 22.5799Z" fill="#FF4A03" stroke="#FF4A03" stroke-linecap="round" stroke-linejoin="round"/>
<path d="M16.2995 3.50805C19.2215 0.998945 23.2244 5.38607 19.8166 8.3956" stroke="#FF4A03" stroke-width="2"/>
<path d="M6.77667 3.50805C3.8547 0.998945 -0.148274 5.38607 3.25955 8.3956" stroke="#FF4A03" stroke-width="2"/>
<path d="M4.3125 23.5201L6.22917 21.1201M18.2083 23.5201L16.2917 21.1201" stroke="#FF4A03" stroke-width="2"/>
<path d="M11.5002 0.96V2.88M9.5835 0H13.4168" stroke="#FF4A03" stroke-width="2"/>
</g>
<path d="M9.24259 17H7.03459V12.38C7.03459 12.268 7.03459 12.112 7.03459 11.912C7.03459 11.704 7.03459 11.484 7.03459 11.252C7.04259 11.012 7.05059 10.804 7.05859 10.628C6.97059 10.708 6.88659 10.804 6.80659 10.916C6.72659 11.02 6.64259 11.112 6.55459 11.192L5.65459 11.996L4.52659 10.724L7.28659 8.432H9.24259V17ZM18.3603 12.584C18.3603 13.56 18.1843 14.376 17.8323 15.032C17.4883 15.688 17.0003 16.18 16.3683 16.508C15.7363 16.836 14.9883 17 14.1243 17H11.5323V8.432H14.3163C15.1803 8.432 15.9123 8.592 16.5123 8.912C17.1203 9.232 17.5803 9.7 17.8923 10.316C18.2043 10.924 18.3603 11.68 18.3603 12.584ZM16.1163 12.656C16.1163 12.072 16.0483 11.592 15.9123 11.216C15.7843 10.84 15.5883 10.56 15.3243 10.376C15.0603 10.192 14.7323 10.1 14.3403 10.1H13.7043V15.32H14.1842C14.8483 15.32 15.3363 15.1 15.6483 14.66C15.9603 14.212 16.1163 13.544 16.1163 12.656Z" fill="white"/>
<defs>
<clipPath id="clip0_558_4677">
<rect width="23" height="24" fill="white"/>
</clipPath>
</defs>
</svg>