<svg width="22" height="22" viewBox="0 0 23 24" fill="none" xmlns="http://www.w3.org/2000/svg">
<g clip-path="url(#clip0_558_4685)">
<path d="M11.4998 22.5799C17.0695 22.5799 21.5832 18.0571 21.5832 12.4799C21.5832 6.90263 17.0695 2.37988 11.4998 2.37988C5.93015 2.37988 1.4165 6.90263 1.4165 12.4799C1.4165 18.0571 5.93015 22.5799 11.4998 22.5799Z" fill="#FF4A03" stroke="#FF4A03" stroke-linecap="round" stroke-linejoin="round"/>
<path d="M16.2995 3.50805C19.2215 0.998945 23.2244 5.38607 19.8166 8.3956" stroke="#FF4A03" stroke-width="2"/>
<path d="M6.77667 3.50805C3.8547 0.998945 -0.148274 5.38607 3.25955 8.3956" stroke="#FF4A03" stroke-width="2"/>
<path d="M4.3125 23.5201L6.22917 21.1201M18.2083 23.5201L16.2917 21.1201" stroke="#FF4A03" stroke-width="2"/>
<path d="M11.5002 0.96V2.88M9.5835 0H13.4168" stroke="#FF4A03" stroke-width="2"/>
</g>
<path d="M10.2386 17H4.39459V15.62L6.36259 13.472C6.77059 13.024 7.08659 12.656 7.31059 12.368C7.54259 12.08 7.70259 11.828 7.79059 11.612C7.87859 11.388 7.92259 11.152 7.92259 10.904C7.92259 10.6 7.84659 10.38 7.69459 10.244C7.54259 10.1 7.35859 10.028 7.14259 10.028C6.89459 10.028 6.63859 10.104 6.37459 10.256C6.11859 10.408 5.82659 10.628 5.49859 10.916L4.31059 9.608C4.55059 9.384 4.80659 9.176 5.07859 8.984C5.35059 8.784 5.67059 8.624 6.03859 8.504C6.41459 8.376 6.86659 8.312 7.39459 8.312C7.94659 8.312 8.42259 8.416 8.82259 8.624C9.22259 8.824 9.53059 9.1 9.74659 9.452C9.97059 9.796 10.0826 10.192 10.0826 10.64C10.0826 11 10.0266 11.328 9.91459 11.624C9.81059 11.92 9.65859 12.212 9.45859 12.5C9.26659 12.78 9.03059 13.08 8.75059 13.4C8.47859 13.712 8.17459 14.068 7.83859 14.468L7.19059 15.224L7.17859 15.296H10.2386V17ZM18.3603 12.584C18.3603 13.56 18.1843 14.376 17.8323 15.032C17.4883 15.688 17.0003 16.18 16.3683 16.508C15.7363 16.836 14.9883 17 14.1243 17H11.5323V8.432H14.3163C15.1803 8.432 15.9123 8.592 16.5123 8.912C17.1203 9.232 17.5803 9.7 17.8923 10.316C18.2043 10.924 18.3603 11.68 18.3603 12.584ZM16.1163 12.656C16.1163 12.072 16.0483 11.592 15.9123 11.216C15.7843 10.84 15.5883 10.56 15.3243 10.376C15.0603 10.192 14.7323 10.1 14.3403 10.1H13.7043V15.32H14.1842C14.8483 15.32 15.3363 15.1 15.6483 14.66C15.9603 14.212 16.1163 13.544 16.1163 12.656Z" fill="white"/>
<defs>
<clipPath id="clip0_558_4685">
<rect width="23" height="24" fill="white"/>
</clipPath>
</defs>
</svg>