<svg width="22" height="22" viewBox="0 0 23 24" fill="none" xmlns="http://www.w3.org/2000/svg">
<g clip-path="url(#clip0_556_5368)">
<path d="M11.4998 22.5799C17.0695 22.5799 21.5832 18.0571 21.5832 12.4799C21.5832 6.90263 17.0695 2.37988 11.4998 2.37988C5.93015 2.37988 1.4165 6.90263 1.4165 12.4799C1.4165 18.0571 5.93015 22.5799 11.4998 22.5799Z" fill="#FF4A03" stroke="#FF4A03" stroke-linecap="round" stroke-linejoin="round"/>
<path d="M16.2995 3.50805C19.2215 0.998945 23.2244 5.38607 19.8166 8.3956" stroke="#FF4A03" stroke-width="2"/>
<path d="M6.77667 3.50805C3.8547 0.998945 -0.148274 5.38607 3.25955 8.3956" stroke="#FF4A03" stroke-width="2"/>
<path d="M4.3125 23.5201L6.22917 21.1201M18.2083 23.5201L16.2917 21.1201" stroke="#FF4A03" stroke-width="2"/>
<path d="M11.5002 0.96V2.88M9.5835 0H13.4168" stroke="#FF4A03" stroke-width="2"/>
</g>
<path d="M15.5614 12.584C15.5614 13.56 15.3854 14.376 15.0334 15.032C14.6894 15.688 14.2014 16.18 13.5694 16.508C12.9374 16.836 12.1894 17 11.3254 17H8.73342V8.432H11.5174C12.3814 8.432 13.1134 8.592 13.7134 8.912C14.3214 9.232 14.7814 9.7 15.0934 10.316C15.4054 10.924 15.5614 11.68 15.5614 12.584ZM13.3174 12.656C13.3174 12.072 13.2494 11.592 13.1134 11.216C12.9854 10.84 12.7894 10.56 12.5254 10.376C12.2614 10.192 11.9334 10.1 11.5414 10.1H10.9054V15.32H11.3854C12.0494 15.32 12.5374 15.1 12.8494 14.66C13.1614 14.212 13.3174 13.544 13.3174 12.656Z" fill="white"/>
<defs>
<clipPath id="clip0_556_5368">
<rect width="23" height="24" fill="white"/>
</clipPath>
</defs>
</svg>