<svg width="22" height="22" viewBox="0 0 23 24" fill="none" xmlns="http://www.w3.org/2000/svg">
<g clip-path="url(#clip0_556_5360)">
<path d="M11.4998 22.5799C17.0695 22.5799 21.5832 18.0571 21.5832 12.4799C21.5832 6.90263 17.0695 2.37988 11.4998 2.37988C5.93015 2.37988 1.4165 6.90263 1.4165 12.4799C1.4165 18.0571 5.93015 22.5799 11.4998 22.5799Z" fill="#FF4A03" stroke="#FF4A03" stroke-linecap="round" stroke-linejoin="round"/>
<path d="M16.2995 3.50805C19.2215 0.998945 23.2244 5.38607 19.8166 8.3956" stroke="#FF4A03" stroke-width="2"/>
<path d="M6.77667 3.50805C3.8547 0.998945 -0.148274 5.38607 3.25955 8.3956" stroke="#FF4A03" stroke-width="2"/>
<path d="M4.3125 23.5201L6.22917 21.1201M18.2083 23.5201L16.2917 21.1201" stroke="#FF4A03" stroke-width="2"/>
<path d="M11.5002 0.96V2.88M9.5835 0H13.4168" stroke="#FF4A03" stroke-width="2"/>
</g>
<path d="M9.10588 17H6.89788V12.38C6.89788 12.268 6.89788 12.112 6.89788 11.912C6.89788 11.704 6.89788 11.484 6.89788 11.252C6.90588 11.012 6.91388 10.804 6.92188 10.628C6.83388 10.708 6.74988 10.804 6.66988 10.916C6.58988 11.02 6.50588 11.112 6.41788 11.192L5.51788 11.996L4.38988 10.724L7.14988 8.432H9.10588V17ZM13.4235 9.476C13.4235 9.876 13.4115 10.236 13.3875 10.556C13.3635 10.868 13.3435 11.096 13.3275 11.24H13.4355C13.5715 11.008 13.7235 10.824 13.8915 10.688C14.0595 10.552 14.2475 10.452 14.4555 10.388C14.6715 10.324 14.8995 10.292 15.1395 10.292C15.5555 10.292 15.9315 10.376 16.2675 10.544C16.6035 10.712 16.8675 10.972 17.0595 11.324C17.2595 11.676 17.3595 12.136 17.3595 12.704V17H15.1875V13.268C15.1875 12.804 15.1275 12.46 15.0075 12.236C14.8955 12.004 14.7075 11.888 14.4435 11.888C14.1875 11.888 13.9835 11.972 13.8315 12.14C13.6795 12.3 13.5715 12.536 13.5075 12.848C13.4515 13.16 13.4235 13.544 13.4235 14V17H11.2635V7.88H13.4235V9.476Z" fill="white"/>
<defs>
<clipPath id="clip0_556_5360">
<rect width="23" height="24" fill="white"/>
</clipPath>
</defs>
</svg>