<svg width="22" height="22" viewBox="0 0 23 24" fill="none" xmlns="http://www.w3.org/2000/svg">
<g clip-path="url(#clip0_555_5344)">
<path d="M11.4998 22.5799C17.0695 22.5799 21.5832 18.0571 21.5832 12.4799C21.5832 6.90263 17.0695 2.37988 11.4998 2.37988C5.93015 2.37988 1.4165 6.90263 1.4165 12.4799C1.4165 18.0571 5.93015 22.5799 11.4998 22.5799Z" fill="#FF4A03" stroke="#FF4A03" stroke-linecap="round" stroke-linejoin="round"/>
<path d="M16.2995 3.50805C19.2215 0.998945 23.2244 5.38607 19.8166 8.3956" stroke="#FF4A03" stroke-width="2"/>
<path d="M6.77667 3.50805C3.8547 0.998945 -0.148274 5.38607 3.25955 8.3956" stroke="#FF4A03" stroke-width="2"/>
<path d="M4.3125 23.5201L6.22917 21.1201M18.2083 23.5201L16.2917 21.1201" stroke="#FF4A03" stroke-width="2"/>
<path d="M11.5002 0.96V2.88M9.5835 0H13.4168" stroke="#FF4A03" stroke-width="2"/>
</g>
<path d="M9.58634 17H7.37834V12.38C7.37834 12.268 7.37834 12.112 7.37834 11.912C7.37834 11.704 7.37834 11.484 7.37834 11.252C7.38634 11.012 7.39434 10.804 7.40234 10.628C7.31434 10.708 7.23034 10.804 7.15034 10.916C7.07034 11.02 6.98634 11.112 6.89834 11.192L5.99834 11.996L4.87034 10.724L7.63034 8.432H9.58634V17ZM14.66 11.456C15.108 11.456 15.516 11.56 15.884 11.768C16.252 11.976 16.544 12.28 16.76 12.68C16.976 13.072 17.084 13.556 17.084 14.132C17.084 14.764 16.964 15.304 16.724 15.752C16.484 16.192 16.124 16.532 15.644 16.772C15.164 17.004 14.556 17.12 13.82 17.12C13.356 17.12 12.932 17.08 12.548 17C12.164 16.92 11.824 16.804 11.528 16.652V14.936C11.808 15.08 12.148 15.208 12.548 15.32C12.948 15.432 13.312 15.488 13.64 15.488C13.912 15.488 14.14 15.444 14.324 15.356C14.508 15.26 14.648 15.124 14.744 14.948C14.848 14.764 14.9 14.532 14.9 14.252C14.9 13.876 14.788 13.588 14.564 13.388C14.348 13.18 14.016 13.076 13.568 13.076C13.368 13.076 13.168 13.1 12.968 13.148C12.776 13.188 12.608 13.228 12.464 13.268L11.66 12.872L11.972 8.432H16.556V10.148H13.808L13.7 11.576C13.828 11.552 13.952 11.528 14.072 11.504C14.192 11.472 14.388 11.456 14.66 11.456Z" fill="white"/>
<defs>
<clipPath id="clip0_555_5344">
<rect width="23" height="24" fill="white"/>
</clipPath>
</defs>
</svg>