<svg width="22" height="22" viewBox="0 0 23 24" fill="none" xmlns="http://www.w3.org/2000/svg">
<g clip-path="url(#clip0_0_1)">
<path d="M11.4998 22.5799C17.0695 22.5799 21.5832 18.0571 21.5832 12.4799C21.5832 6.90263 17.0695 2.37988 11.4998 2.37988C5.93015 2.37988 1.4165 6.90263 1.4165 12.4799C1.4165 18.0571 5.93015 22.5799 11.4998 22.5799Z" fill="#FF4A03" stroke="#FF4A03" stroke-linecap="round" stroke-linejoin="round"/>
<path d="M16.2995 3.50805C19.2215 0.998945 23.2244 5.38607 19.8166 8.3956" stroke="#FF4A03" stroke-width="2"/>
<path d="M6.77667 3.50805C3.8547 0.998945 -0.148274 5.38607 3.25955 8.3956" stroke="#FF4A03" stroke-width="2"/>
<path d="M4.3125 23.5201L6.22917 21.1201M18.2083 23.5201L16.2917 21.1201" stroke="#FF4A03" stroke-width="2"/>
<path d="M11.5002 0.96V2.88M9.5835 0H13.4168" stroke="#FF4A03" stroke-width="2"/>
</g>
<path d="M11.965 10.994C12.4503 10.994 12.8923 11.1067 13.291 11.332C13.6897 11.5573 14.006 11.8867 14.24 12.32C14.474 12.7447 14.591 13.269 14.591 13.893C14.591 14.5777 14.461 15.1627 14.201 15.648C13.941 16.1247 13.551 16.493 13.031 16.753C12.511 17.0043 11.8523 17.13 11.055 17.13C10.5523 17.13 10.093 17.0867 9.677 17C9.261 16.9133 8.89267 16.7877 8.572 16.623V14.764C8.87533 14.92 9.24367 15.0587 9.677 15.18C10.1103 15.3013 10.5047 15.362 10.86 15.362C11.1547 15.362 11.4017 15.3143 11.601 15.219C11.8003 15.115 11.952 14.9677 12.056 14.777C12.1687 14.5777 12.225 14.3263 12.225 14.023C12.225 13.6157 12.1037 13.3037 11.861 13.087C11.627 12.8617 11.2673 12.749 10.782 12.749C10.5653 12.749 10.3487 12.775 10.132 12.827C9.924 12.8703 9.742 12.9137 9.586 12.957L8.715 12.528L9.053 7.718H14.019V9.577H11.042L10.925 11.124C11.0637 11.098 11.198 11.072 11.328 11.046C11.458 11.0113 11.6703 10.994 11.965 10.994Z" fill="white"/>
<defs>
<clipPath id="clip0_0_1">
<rect width="23" height="24" fill="white"/>
</clipPath>
</defs>
</svg>