<svg width="22" height="22" viewBox="0 0 23 24" fill="none" xmlns="http://www.w3.org/2000/svg">
<g clip-path="url(#clip0_555_5352)">
<path d="M11.4998 22.5799C17.0695 22.5799 21.5832 18.0571 21.5832 12.4799C21.5832 6.90263 17.0695 2.37988 11.4998 2.37988C5.93015 2.37988 1.4165 6.90263 1.4165 12.4799C1.4165 18.0571 5.93015 22.5799 11.4998 22.5799Z" fill="#FF4A03" stroke="#FF4A03" stroke-linecap="round" stroke-linejoin="round"/>
<path d="M16.2995 3.50805C19.2215 0.998945 23.2244 5.38607 19.8166 8.3956" stroke="#FF4A03" stroke-width="2"/>
<path d="M6.77667 3.50805C3.8547 0.998945 -0.148274 5.38607 3.25955 8.3956" stroke="#FF4A03" stroke-width="2"/>
<path d="M4.3125 23.5201L6.22917 21.1201M18.2083 23.5201L16.2917 21.1201" stroke="#FF4A03" stroke-width="2"/>
<path d="M11.5002 0.96V2.88M9.5835 0H13.4168" stroke="#FF4A03" stroke-width="2"/>
</g>
<path d="M10.916 10.328C10.916 10.728 10.832 11.072 10.664 11.36C10.504 11.648 10.288 11.888 10.016 12.08C9.752 12.264 9.456 12.4 9.128 12.488V12.524C9.776 12.604 10.272 12.812 10.616 13.148C10.968 13.484 11.144 13.944 11.144 14.528C11.144 15.008 11.024 15.448 10.784 15.848C10.552 16.24 10.188 16.552 9.692 16.784C9.204 17.008 8.568 17.12 7.784 17.12C7.272 17.12 6.832 17.08 6.464 17C6.096 16.92 5.736 16.804 5.384 16.652V14.936C5.736 15.128 6.096 15.272 6.464 15.368C6.832 15.456 7.168 15.5 7.472 15.5C8 15.5 8.36 15.404 8.552 15.212C8.752 15.02 8.852 14.748 8.852 14.396C8.852 14.18 8.804 13.996 8.708 13.844C8.612 13.692 8.44 13.576 8.192 13.496C7.952 13.416 7.6 13.376 7.136 13.376H6.644V11.828H7.148C7.556 11.828 7.88 11.784 8.12 11.696C8.368 11.608 8.544 11.488 8.648 11.336C8.752 11.176 8.804 10.996 8.804 10.796C8.804 10.524 8.72 10.316 8.552 10.172C8.392 10.028 8.176 9.956 7.904 9.956C7.664 9.956 7.436 9.992 7.22 10.064C7.004 10.136 6.816 10.216 6.656 10.304C6.496 10.392 6.376 10.472 6.296 10.544L5.396 9.164C5.628 9.004 5.872 8.86 6.128 8.732C6.392 8.596 6.692 8.492 7.028 8.42C7.372 8.348 7.776 8.312 8.24 8.312C9.072 8.312 9.724 8.492 10.196 8.852C10.676 9.204 10.916 9.696 10.916 10.328ZM17.8017 12.716C17.8017 13.412 17.7497 14.032 17.6457 14.576C17.5497 15.112 17.3857 15.572 17.1537 15.956C16.9217 16.332 16.6217 16.62 16.2537 16.82C15.8857 17.02 15.4337 17.12 14.8977 17.12C14.2257 17.12 13.6737 16.944 13.2417 16.592C12.8177 16.24 12.5017 15.736 12.2937 15.08C12.0937 14.424 11.9937 13.636 11.9937 12.716C11.9937 11.788 12.0857 10.996 12.2697 10.34C12.4537 9.684 12.7577 9.18 13.1817 8.828C13.6137 8.476 14.1857 8.3 14.8977 8.3C15.5697 8.3 16.1177 8.476 16.5417 8.828C16.9737 9.18 17.2897 9.684 17.4897 10.34C17.6977 10.996 17.8017 11.788 17.8017 12.716ZM14.1537 12.716C14.1537 13.332 14.1737 13.844 14.2137 14.252C14.2537 14.652 14.3257 14.956 14.4297 15.164C14.5417 15.372 14.6977 15.476 14.8977 15.476C15.0977 15.476 15.2497 15.376 15.3537 15.176C15.4577 14.968 15.5297 14.66 15.5697 14.252C15.6177 13.844 15.6417 13.332 15.6417 12.716C15.6417 12.108 15.6177 11.6 15.5697 11.192C15.5297 10.776 15.4577 10.464 15.3537 10.256C15.2497 10.048 15.0977 9.944 14.8977 9.944C14.6977 9.944 14.5417 10.048 14.4297 10.256C14.3257 10.464 14.2537 10.772 14.2137 11.18C14.1737 11.588 14.1537 12.1 14.1537 12.716Z" fill="white"/>
<defs>
<clipPath id="clip0_555_5352">
<rect width="23" height="24" fill="white"/>
</clipPath>
</defs>
</svg>