<svg width="593" height="294" viewBox="0 0 593 294" fill="none" xmlns="http://www.w3.org/2000/svg">
<rect y="21" width="514" height="49" rx="20" fill="#D9D9D9"/>
<rect y="126" width="89" height="49" rx="20" fill="#FF4A03"/>
<line x1="0.5" x2="0.5" y2="205" stroke="black"/>
<path d="M544.453 52.2344C541.078 52.2344 538.652 50.4297 538.547 47.7344H540.68C540.797 49.3516 542.402 50.3594 544.43 50.3594C546.668 50.3594 548.285 49.1523 548.297 47.3828C548.285 45.5312 546.809 44.2305 544.172 44.2188H542.789V42.3672H544.172C546.234 42.3672 547.676 41.207 547.664 39.4609C547.676 37.7617 546.434 36.6367 544.5 36.625C542.684 36.6367 541.031 37.6328 540.938 39.2969H538.898C539.004 36.6016 541.512 34.7969 544.523 34.7969C547.758 34.7969 549.727 36.918 549.703 39.3438C549.727 41.2773 548.602 42.6836 546.82 43.1875V43.3047C549.035 43.6445 550.371 45.2266 550.359 47.3828C550.371 50.1719 547.84 52.2344 544.453 52.2344ZM554.32 52.1406C553.5 52.1289 552.797 51.4492 552.82 50.6172C552.797 49.7969 553.5 49.1172 554.32 49.1172C555.152 49.1172 555.832 49.7969 555.82 50.6172C555.832 51.4492 555.152 52.1289 554.32 52.1406ZM564.258 52.2344C561.316 52.1992 558.07 50.4531 558.07 44.1719C558.07 38.1602 560.531 34.7969 564.516 34.7969C567.504 34.7969 569.59 36.6367 570.023 39.2969H567.938C567.551 37.7969 566.402 36.6719 564.516 36.6719C561.727 36.6719 560.051 39.0508 560.062 43.1406H560.273C561.246 41.7227 562.805 40.8906 564.633 40.8906C567.645 40.8906 570.164 43.2344 570.164 46.5156C570.164 49.7148 567.832 52.2695 564.258 52.2344ZM560.344 46.5625C560.355 48.5547 561.984 50.3711 564.258 50.3828C566.449 50.3711 568.113 48.6484 568.125 46.5391C568.113 44.4531 566.52 42.7539 564.305 42.7422C562.078 42.7539 560.367 44.5586 560.344 46.5625ZM591.398 49.7266V51.2734H572.32V49.7266H580.922V44.9453H582.727V49.7266H591.398ZM573.375 44.2422C577.395 43.5977 580.875 41.1719 580.898 37.9141H574.102V36.3906H580.922V33.5078H582.727V36.3906H589.57V37.9141H582.773C582.773 41.1719 586.254 43.5977 590.25 44.2422L589.547 45.6953C586.219 45.1094 583.16 43.4219 581.824 40.8086C580.512 43.4219 577.453 45.1094 574.102 45.6953L573.375 44.2422Z" fill="black"/>
<path d="M118.148 159.234C114.387 159.234 112.207 156.07 112.219 150.516C112.207 145.008 114.41 141.797 118.148 141.797C121.875 141.797 124.078 145.008 124.078 150.516C124.078 156.07 121.91 159.234 118.148 159.234ZM114.258 150.516C114.27 154.91 115.688 157.359 118.148 157.359C120.598 157.359 122.027 154.91 122.016 150.516C122.027 146.121 120.586 143.637 118.148 143.625C115.711 143.637 114.27 146.121 114.258 150.516ZM127.734 159.141C126.914 159.129 126.211 158.449 126.234 157.617C126.211 156.797 126.914 156.117 127.734 156.117C128.566 156.117 129.246 156.797 129.234 157.617C129.246 158.449 128.566 159.129 127.734 159.141ZM137.602 159.234C134.227 159.234 131.801 157.43 131.695 154.734H133.828C133.945 156.352 135.551 157.359 137.578 157.359C139.816 157.359 141.434 156.152 141.445 154.383C141.434 152.531 139.957 151.23 137.32 151.219H135.938V149.367H137.32C139.383 149.367 140.824 148.207 140.812 146.461C140.824 144.762 139.582 143.637 137.648 143.625C135.832 143.637 134.18 144.633 134.086 146.297H132.047C132.152 143.602 134.66 141.797 137.672 141.797C140.906 141.797 142.875 143.918 142.852 146.344C142.875 148.277 141.75 149.684 139.969 150.188V150.305C142.184 150.645 143.52 152.227 143.508 154.383C143.52 157.172 140.988 159.234 137.602 159.234ZM164.883 156.727V158.273H145.805V156.727H154.406V151.945H156.211V156.727H164.883ZM146.859 151.242C150.879 150.598 154.359 148.172 154.383 144.914H147.586V143.391H154.406V140.508H156.211V143.391H163.055V144.914H156.258C156.258 148.172 159.738 150.598 163.734 151.242L163.031 152.695C159.703 152.109 156.645 150.422 155.309 147.809C153.996 150.422 150.938 152.109 147.586 152.695L146.859 151.242Z" fill="black"/>
<circle cx="345" cy="284" r="10" fill="#D9D9D9"/>
<circle cx="214" cy="284" r="10" fill="#FF4A03"/>
<path d="M365.586 279.566V278.395H373.584V279.566H370.259V289H368.926V279.566H365.586ZM386.621 287.55V288.517H374.697V287.55H380.059V284.371H376.104V278.263H385.142V284.371H381.187V287.55H386.621ZM377.231 283.448H384.028V279.186H377.231V283.448ZM394.546 277.896C396.282 277.882 397.527 279.098 397.534 280.841C397.527 282.577 396.282 283.792 394.546 283.785C392.795 283.792 391.565 282.577 391.572 280.841C391.565 279.098 392.795 277.882 394.546 277.896ZM392.612 280.841C392.598 281.998 393.425 282.826 394.546 282.833C395.652 282.826 396.472 281.998 396.479 280.841C396.472 279.669 395.652 278.841 394.546 278.834C393.425 278.841 392.598 279.669 392.612 280.841ZM393.901 290.011V284.854H395.044V286.407H401.357V284.854H402.485V290.011H393.901ZM395.044 289.073H401.357V287.359H395.044V289.073ZM398.574 284.166V277.428H399.658V280.167H401.387V277.179H402.485V284.269H401.387V281.134H399.658V284.166H398.574Z" fill="black"/>
<path d="M235.172 289V278.395H238.775C241.258 278.395 242.394 279.874 242.394 281.764C242.394 283.646 241.258 285.147 238.79 285.147H236.49V289H235.172ZM236.49 283.976H238.731C240.423 283.976 241.083 283.023 241.09 281.764C241.083 280.497 240.423 279.566 238.717 279.566H236.49V283.976ZM247.33 289.161C245.03 289.168 243.609 287.528 243.609 285.089C243.609 282.643 245.052 280.943 247.213 280.943C248.883 280.943 250.648 281.969 250.641 284.913V285.44H244.869C244.935 287.125 245.917 288.048 247.33 288.048C248.282 288.048 248.883 287.63 249.176 287.14H250.523C250.15 288.348 248.971 289.168 247.33 289.161ZM244.876 284.371H249.366C249.359 283.045 248.524 282.057 247.213 282.057C245.836 282.057 244.964 283.141 244.876 284.371ZM251.9 286.744C251.9 284.92 253.512 284.503 254.889 284.4C255.401 284.364 256.683 284.291 257.042 284.283V283.639C257.042 282.628 256.441 282.042 255.24 282.042C254.237 282.042 253.629 282.503 253.453 283.111H252.135C252.296 281.83 253.541 280.943 255.299 280.943C256.339 280.943 258.294 281.251 258.287 283.756V289H257.042V287.916H256.983C256.72 288.451 255.995 289.183 254.61 289.19C253.102 289.183 251.9 288.297 251.9 286.744ZM253.16 286.803C253.167 287.645 253.863 288.07 254.83 288.062C256.251 288.07 257.042 287.118 257.042 286.114V285.316C256.668 285.338 255.416 285.433 255.035 285.455C253.893 285.528 253.167 285.931 253.16 286.803ZM260.309 289V278.395H261.568V284.562H261.715L265.157 281.046H266.71L263.355 284.452L266.959 289H265.362L262.411 285.25L261.568 286.034V289H260.309Z" fill="black"/>
</svg>
