<svg width="534" height="389" viewBox="0 0 534 389" fill="none" xmlns="http://www.w3.org/2000/svg">
<rect x="0.5" y="0.5" width="533" height="179" rx="14.5" fill="white" stroke="#D9D9D9"/>
<path d="M52 35V48H34V35" stroke="black" stroke-width="2" stroke-linecap="round" stroke-linejoin="round"/>
<path d="M54 30H32V35H54V30Z" stroke="black" stroke-width="2" stroke-linecap="round" stroke-linejoin="round"/>
<path d="M41 39H45" stroke="black" stroke-width="2" stroke-linecap="round" stroke-linejoin="round"/>
<path d="M79.74 30.48H81.34V48.56H79.74V30.48ZM76.68 37.72H80.16V39.1H76.68V37.72ZM75.64 30.88H77.2V47.64H75.64V30.88ZM66.64 42.72H67.82C70.46 42.72 72.26 42.62 74.36 42.18L74.52 43.56C72.36 44.02 70.54 44.1 67.82 44.1H66.64V42.72ZM66.64 32.68H73.36V34.04H68.28V43.34H66.64V32.68ZM84.4384 32.38H95.1184V33.74H84.4384V32.38ZM89.7784 34.66C92.3384 34.66 94.0984 35.94 94.0984 37.94C94.0984 39.92 92.3384 41.18 89.7784 41.18C87.1784 41.18 85.4384 39.92 85.4384 37.94C85.4384 35.94 87.1784 34.66 89.7784 34.66ZM89.7784 35.96C88.1184 35.96 87.0184 36.72 87.0184 37.94C87.0184 39.12 88.1184 39.9 89.7784 39.9C91.3984 39.9 92.5184 39.12 92.5184 37.94C92.5184 36.72 91.3984 35.96 89.7784 35.96ZM96.7584 30.48H98.4184V41.78H96.7584V30.48ZM97.9584 35.46H101.098V36.84H97.9584V35.46ZM86.6784 42.76H98.4184V48.56H96.7584V44.12H86.6784V42.76ZM88.9384 30.38H90.5984V33.14H88.9384V30.38ZM115.037 30.46H116.697V48.58H115.037V30.46ZM116.297 37.66H119.657V39.06H116.297V37.66ZM103.517 42.84H104.957C108.357 42.84 110.717 42.72 113.457 42.2L113.637 43.58C110.817 44.08 108.417 44.22 104.957 44.22H103.517V42.84ZM103.477 32.16H111.657V38.64H105.157V43.4H103.517V37.28H110.017V33.52H103.477V32.16ZM134.315 30.46H135.975V48.58H134.315V30.46ZM126.435 31.86C129.115 31.86 131.035 34.32 131.035 38.16C131.035 42.02 129.115 44.48 126.435 44.48C123.775 44.48 121.855 42.02 121.855 38.16C121.855 34.32 123.775 31.86 126.435 31.86ZM126.435 33.36C124.675 33.36 123.435 35.24 123.435 38.16C123.435 41.1 124.675 43.02 126.435 43.02C128.215 43.02 129.435 41.1 129.435 38.16C129.435 35.24 128.215 33.36 126.435 33.36ZM139.594 44.86H155.974V46.24H139.594V44.86ZM141.014 32.28H154.434V33.64H141.014V32.28ZM141.054 39.92H154.414V41.28H141.054V39.92ZM143.834 33.54H145.494V40.06H143.834V33.54ZM149.994 33.54H151.634V40.06H149.994V33.54ZM160.252 42.98H159.112L158.612 32.72H160.752L160.252 42.98ZM158.432 45.92C158.432 45.4267 158.552 45.08 158.792 44.88C159.032 44.68 159.326 44.58 159.672 44.58C160.006 44.58 160.292 44.68 160.532 44.88C160.786 45.08 160.912 45.4267 160.912 45.92C160.912 46.4 160.786 46.7467 160.532 46.96C160.292 47.1733 160.006 47.28 159.672 47.28C159.326 47.28 159.032 47.1733 158.792 46.96C158.552 46.7467 158.432 46.4 158.432 45.92Z" fill="black"/>
<circle cx="77" cy="86" r="11" fill="#2E61DC"/>
<path d="M77 135C80.866 135 84 131.866 84 128C84 124.134 80.866 121 77 121C73.134 121 70 124.134 70 128C70 131.866 73.134 135 77 135Z" stroke="black" stroke-width="2" stroke-linecap="round" stroke-linejoin="round"/>
<path d="M73.21 133.89L72 143L77 140L82 143L80.79 133.88" stroke="black" stroke-width="2" stroke-linecap="round" stroke-linejoin="round"/>
<path d="M483 32H485H501" stroke="#FF0000" stroke-width="2" stroke-linecap="round" stroke-linejoin="round"/>
<path d="M499 32V46C499 46.5304 498.789 47.0391 498.414 47.4142C498.039 47.7893 497.53 48 497 48H487C486.47 48 485.961 47.7893 485.586 47.4142C485.211 47.0391 485 46.5304 485 46V32M488 32V30C488 29.4696 488.211 28.9609 488.586 28.5858C488.961 28.2107 489.47 28 490 28H494C494.53 28 495.039 28.2107 495.414 28.5858C495.789 28.9609 496 29.4696 496 30V32" stroke="#FF0000" stroke-width="2" stroke-linecap="round" stroke-linejoin="round"/>
<path d="M490 37V43" stroke="#FF0000" stroke-width="2" stroke-linecap="round" stroke-linejoin="round"/>
<path d="M494 37V43" stroke="#FF0000" stroke-width="2" stroke-linecap="round" stroke-linejoin="round"/>
<path d="M114 73L114 143" stroke="#D4D4D4"/>
<path d="M141.22 79.42H151.28V80.78H141.22V79.42ZM140.96 91.1L140.76 89.68C144.02 89.68 148.4 89.64 152.12 89.18L152.22 90.42C148.44 91.04 144.14 91.1 140.96 91.1ZM143.16 80.44H144.78V90.06H143.16V80.44ZM147.72 80.44H149.34V90.06H147.72V80.44ZM153.22 77.48H154.9V95.56H153.22V77.48ZM154.5 84.7H157.86V86.1H154.5V84.7ZM171.758 77.48H173.418V88.4H171.758V77.48ZM172.918 82H176.098V83.38H172.918V82ZM160.178 86H161.598C164.878 86 167.218 85.9 170.038 85.4L170.178 86.78C167.318 87.26 164.938 87.38 161.598 87.38H160.178V86ZM160.138 78.6H168.278V83.52H161.798V86.88H160.178V82.22H166.638V79.96H160.138V78.6ZM167.638 88.96C171.338 88.96 173.578 90.16 173.578 92.24C173.578 94.34 171.338 95.54 167.638 95.54C163.958 95.54 161.698 94.34 161.698 92.24C161.698 90.16 163.958 88.96 167.638 88.96ZM167.638 90.26C164.938 90.26 163.318 90.98 163.318 92.24C163.318 93.52 164.938 94.24 167.638 94.24C170.338 94.24 171.978 93.52 171.978 92.24C171.978 90.98 170.338 90.26 167.638 90.26Z" fill="black"/>
<path d="M144.38 122.42H145.76V124.26C145.76 127.74 143.8 130.62 140.78 131.8L139.9 130.46C142.62 129.46 144.38 127.02 144.38 124.26V122.42ZM144.68 122.42H146.04V124.38C146.04 126.82 147.84 129.08 150.44 129.98L149.56 131.28C146.66 130.2 144.68 127.52 144.68 124.38V122.42ZM152.36 121.48H154.02V132.44H152.36V121.48ZM153.56 126.14H156.7V127.54H153.56V126.14ZM148.26 132.94C151.96 132.94 154.2 134.16 154.2 136.24C154.2 138.32 151.96 139.52 148.26 139.52C144.56 139.52 142.32 138.32 142.32 136.24C142.32 134.16 144.56 132.94 148.26 132.94ZM148.26 134.26C145.58 134.26 143.94 134.98 143.94 136.24C143.94 137.5 145.58 138.22 148.26 138.22C150.94 138.22 152.58 137.5 152.58 136.24C152.58 134.98 150.94 134.26 148.26 134.26ZM163.158 123.04H164.518V126.28C164.518 130.44 162.278 134.3 159.318 135.8L158.298 134.44C160.978 133.16 163.158 129.7 163.158 126.28V123.04ZM163.438 123.04H164.798V126.28C164.798 129.58 166.958 132.9 169.638 134.14L168.638 135.46C165.698 134.02 163.438 130.3 163.438 126.28V123.04ZM171.518 121.46H173.178V139.58H171.518V121.46ZM181.992 135.86H198.372V137.24H181.992V135.86ZM183.412 123.28H196.832V124.64H183.412V123.28ZM183.452 130.92H196.812V132.28H183.452V130.92ZM186.232 124.54H187.892V131.06H186.232V124.54ZM192.392 124.54H194.032V131.06H192.392V124.54ZM200.391 135.96H216.771V137.34H200.391V135.96ZM207.711 132.08H209.371V136.54H207.711V132.08ZM202.371 122.82H214.751V128.3H204.071V131.92H202.431V126.96H213.111V124.16H202.371V122.82ZM202.431 131.22H215.171V132.58H202.431V131.22ZM226.249 126.14H229.549V127.5H226.249V126.14ZM228.949 121.86H230.509V132.38H228.949V121.86ZM222.529 123.86H223.829V125.34C223.829 128.14 222.369 130.92 219.709 132.1L218.849 130.82C221.169 129.82 222.529 127.5 222.529 125.34V123.86ZM222.809 123.86H224.109V125.32C224.109 127.32 225.409 129.46 227.649 130.4L226.809 131.68C224.189 130.58 222.809 127.94 222.809 125.32V123.86ZM219.189 122.94H227.229V124.3H219.189V122.94ZM232.429 121.48H234.009V132.52H232.429V121.48ZM221.889 133.32H234.009V139.56H232.369V134.68H221.889V133.32ZM239.288 131.22H251.708V132.56H239.288V131.22ZM237.188 135.86H253.568V137.24H237.188V135.86ZM239.288 123.02H251.508V124.38H240.968V131.64H239.288V123.02ZM240.428 127.06H251.128V128.38H240.428V127.06Z" fill="black"/>
<rect x="0.5" y="209.5" width="533" height="179" rx="14.5" fill="white" stroke="#D9D9D9"/>
<path d="M52 244V257H34V244" stroke="black" stroke-width="2" stroke-linecap="round" stroke-linejoin="round"/>
<path d="M54 239H32V244H54V239Z" stroke="black" stroke-width="2" stroke-linecap="round" stroke-linejoin="round"/>
<path d="M41 248H45" stroke="black" stroke-width="2" stroke-linecap="round" stroke-linejoin="round"/>
<path d="M67.68 241.28H79.32V242.66H67.68V241.28ZM66 253.66H82.34V255.04H66V253.66ZM70 247.68H71.64V254.16H70V247.68ZM78.78 241.28H80.42V243.28C80.42 245.58 80.42 247.94 79.8 251.32L78.14 251.12C78.78 247.92 78.78 245.52 78.78 243.28V241.28ZM74.46 247.68H76.1V254.16H74.46V247.68ZM96.7384 239.48H98.3984V253.64H96.7384V239.48ZM97.6984 245.78H101.038V247.16H97.6984V245.78ZM86.9584 255.8H99.0384V257.16H86.9584V255.8ZM86.9584 252.7H88.6184V256.22H86.9584V252.7ZM89.1184 248.32H90.7784V250.78H89.1184V248.32ZM84.4984 251.56L84.2784 250.22C87.4784 250.22 91.9384 250.16 95.6584 249.58L95.7984 250.76C91.9784 251.46 87.6384 251.54 84.4984 251.56ZM84.7384 241.24H95.1184V242.5H84.7384V241.24ZM89.9384 243.24C92.4784 243.24 94.1384 244.3 94.1384 246.02C94.1384 247.76 92.4784 248.82 89.9384 248.82C87.3984 248.82 85.7184 247.76 85.7184 246.02C85.7184 244.3 87.3984 243.24 89.9384 243.24ZM89.9384 244.42C88.3184 244.42 87.2784 245.04 87.2784 246.02C87.2784 247.02 88.3184 247.62 89.9384 247.62C91.5384 247.62 92.5784 247.02 92.5784 246.02C92.5784 245.04 91.5384 244.42 89.9384 244.42ZM89.1184 239.4H90.7784V241.8H89.1184V239.4ZM102.837 241.38H113.517V242.74H102.837V241.38ZM108.177 243.66C110.737 243.66 112.497 244.94 112.497 246.94C112.497 248.92 110.737 250.18 108.177 250.18C105.577 250.18 103.837 248.92 103.837 246.94C103.837 244.94 105.577 243.66 108.177 243.66ZM108.177 244.96C106.517 244.96 105.417 245.72 105.417 246.94C105.417 248.12 106.517 248.9 108.177 248.9C109.797 248.9 110.917 248.12 110.917 246.94C110.917 245.72 109.797 244.96 108.177 244.96ZM115.157 239.48H116.817V250.78H115.157V239.48ZM116.357 244.46H119.497V245.84H116.357V244.46ZM105.077 251.76H116.817V257.56H115.157V253.12H105.077V251.76ZM107.337 239.38H108.997V242.14H107.337V239.38ZM124.975 240.6H126.295V243.02C126.295 245.72 124.735 248.56 122.075 249.74L121.175 248.44C123.555 247.4 124.975 245.06 124.975 243.02V240.6ZM125.235 240.6H126.555V243.02C126.555 245.02 127.915 247.06 130.235 247.96L129.335 249.22C126.735 248.18 125.235 245.68 125.235 243.02V240.6ZM134.835 239.5H136.415V250.64H134.835V239.5ZM131.955 244.32H135.375V245.68H131.955V244.32ZM130.955 239.84H132.535V250.06H130.955V239.84ZM130.475 251.04C134.195 251.04 136.515 252.24 136.515 254.3C136.515 256.34 134.195 257.52 130.475 257.52C126.735 257.52 124.455 256.34 124.455 254.3C124.455 252.24 126.735 251.04 130.475 251.04ZM130.475 252.34C127.755 252.34 126.075 253.06 126.075 254.3C126.075 255.52 127.755 256.24 130.475 256.24C133.195 256.24 134.855 255.52 134.855 254.3C134.855 253.06 133.195 252.34 130.475 252.34ZM149.589 241.18H150.969V242.64C150.969 245.92 148.909 248.66 145.889 249.76L145.029 248.44C147.749 247.52 149.589 245.18 149.589 242.64V241.18ZM149.909 241.18H151.289V242.64C151.289 245.04 153.169 247.22 155.849 248.1L155.009 249.42C152.009 248.4 149.909 245.76 149.909 242.64V241.18ZM145.469 240.74H155.369V242.08H145.469V240.74ZM157.929 239.5H159.609V250H157.929V239.5ZM147.929 250.98H159.609V257.32H147.929V250.98ZM157.969 252.3H149.549V255.98H157.969V252.3ZM180.963 239.48H182.623V257.56H180.963V239.48ZM181.823 246.56H185.163V247.96H181.823V246.56ZM170.903 241.08H172.143V245.14C172.143 248.02 171.463 251.66 169.203 253.42L168.103 252.24C170.303 250.62 170.903 247.46 170.903 245.14V241.08ZM171.263 241.08H172.463V245.14C172.463 247.3 172.903 250.64 175.123 252.36L174.203 253.62C171.763 251.8 171.263 247.84 171.263 245.14V241.08ZM175.923 241.08H177.143V245.14C177.143 247.96 176.623 251.84 174.203 253.62L173.283 252.36C175.483 250.68 175.923 247.44 175.923 245.14V241.08ZM176.283 241.08H177.523V245.14C177.523 247.54 178.103 250.64 180.323 252.24L179.283 253.46C176.923 251.72 176.283 248.1 176.283 245.14V241.08ZM199.941 239.48H201.601V257.56H199.941V239.48ZM194.641 241.42H196.281C196.281 246.66 193.921 251.24 187.881 254.2L187.001 252.86C192.221 250.34 194.641 246.5 194.641 241.7V241.42ZM187.821 241.42H195.361V242.78H187.821V241.42ZM209.375 257.4H229.375V237.4H209.375V257.4Z" fill="black"/>
<circle cx="77" cy="295" r="11" fill="#009773"/>
<path d="M77 344C80.866 344 84 340.866 84 337C84 333.134 80.866 330 77 330C73.134 330 70 333.134 70 337C70 340.866 73.134 344 77 344Z" stroke="black" stroke-width="2" stroke-linecap="round" stroke-linejoin="round"/>
<path d="M73.21 342.89L72 352L77 349L82 352L80.79 342.88" stroke="black" stroke-width="2" stroke-linecap="round" stroke-linejoin="round"/>
<path d="M483 241H485H501" stroke="#FF0000" stroke-width="2" stroke-linecap="round" stroke-linejoin="round"/>
<path d="M499 241V255C499 255.53 498.789 256.039 498.414 256.414C498.039 256.789 497.53 257 497 257H487C486.47 257 485.961 256.789 485.586 256.414C485.211 256.039 485 255.53 485 255V241M488 241V239C488 238.47 488.211 237.961 488.586 237.586C488.961 237.211 489.47 237 490 237H494C494.53 237 495.039 237.211 495.414 237.586C495.789 237.961 496 238.47 496 239V241" stroke="#FF0000" stroke-width="2" stroke-linecap="round" stroke-linejoin="round"/>
<path d="M490 246V252" stroke="#FF0000" stroke-width="2" stroke-linecap="round" stroke-linejoin="round"/>
<path d="M494 246V252" stroke="#FF0000" stroke-width="2" stroke-linecap="round" stroke-linejoin="round"/>
<path d="M114 282L114 352" stroke="#D4D4D4"/>
<path d="M141 300.9H157.38V302.28H141V300.9ZM148.34 296.82H150V301.64H148.34V296.82ZM148.34 290.26H149.8V290.66C149.8 294.36 146.44 296.76 142.52 297.44L141.88 296.12C145.42 295.56 148.34 293.46 148.34 290.66V290.26ZM148.56 290.26H150V290.66C150 293.46 152.92 295.56 156.46 296.12L155.82 297.44C151.9 296.76 148.56 294.36 148.56 290.66V290.26ZM142.5 289.32H155.82V290.7H142.5V289.32ZM148.34 286.86H150V289.82H148.34V286.86ZM159.378 296.42H175.778V297.78H159.378V296.42ZM161.458 286.94H173.658V291.32H163.138V293.76H161.498V290.1H172.038V288.24H161.458V286.94ZM161.498 293.22H174.058V294.52H161.498V293.22ZM166.738 293.9H168.398V297.1H166.738V293.9ZM161.198 299.16H173.778V304.4H172.118V300.52H161.198V299.16Z" fill="black"/>
<path d="M142.08 331.22H154.24V337.38H142.08V331.22ZM152.6 332.56H143.7V336.04H152.6V332.56ZM139.98 339.64H156.32V340.98H139.98V339.64ZM147.34 337.02H148.98V340.14H147.34V337.02ZM141.8 342.84H154.3V348.56H152.64V344.2H141.8V342.84ZM162.918 340.28H164.578V345.44H162.918V340.28ZM168.498 340.28H170.138V345.44H168.498V340.28ZM158.398 345H174.778V346.38H158.398V345ZM159.818 332.14H173.238V333.5H159.818V332.14ZM159.858 339.38H173.218V340.72H159.858V339.38ZM162.638 333.24H164.298V339.66H162.638V333.24ZM168.798 333.24H170.438V339.66H168.798V333.24ZM181.992 344.86H198.372V346.24H181.992V344.86ZM183.412 332.28H196.832V333.64H183.412V332.28ZM183.452 339.92H196.812V341.28H183.452V339.92ZM186.232 333.54H187.892V340.06H186.232V333.54ZM192.392 333.54H194.032V340.06H192.392V333.54ZM200.391 344.96H216.771V346.34H200.391V344.96ZM207.711 341.08H209.371V345.54H207.711V341.08ZM202.371 331.82H214.751V337.3H204.071V340.92H202.431V335.96H213.111V333.16H202.371V331.82ZM202.431 340.22H215.171V341.58H202.431V340.22ZM226.249 335.14H229.549V336.5H226.249V335.14ZM228.949 330.86H230.509V341.38H228.949V330.86ZM222.529 332.86H223.829V334.34C223.829 337.14 222.369 339.92 219.709 341.1L218.849 339.82C221.169 338.82 222.529 336.5 222.529 334.34V332.86ZM222.809 332.86H224.109V334.32C224.109 336.32 225.409 338.46 227.649 339.4L226.809 340.68C224.189 339.58 222.809 336.94 222.809 334.32V332.86ZM219.189 331.94H227.229V333.3H219.189V331.94ZM232.429 330.48H234.009V341.52H232.429V330.48ZM221.889 342.32H234.009V348.56H232.369V343.68H221.889V342.32ZM239.288 340.22H251.708V341.56H239.288V340.22ZM237.188 344.86H253.568V346.24H237.188V344.86ZM239.288 332.02H251.508V333.38H240.968V340.64H239.288V332.02ZM240.428 336.06H251.128V337.38H240.428V336.06Z" fill="black"/>
</svg>
