<svg width="867" height="458" viewBox="0 0 867 458" fill="none" xmlns="http://www.w3.org/2000/svg">
<g clip-path="url(#clip0_721_4674)">
<path d="M328.571 436.691C329.156 436.717 329.736 436.564 330.231 436.251C330.726 435.939 331.113 435.481 331.339 434.942C331.565 434.403 331.619 433.807 331.494 433.236C331.37 432.664 331.072 432.145 330.642 431.748C330.57 431.462 330.518 431.257 330.446 430.971C330.472 430.909 330.498 430.847 330.524 430.785C331.114 429.395 332.102 428.21 333.364 427.379C334.626 426.548 336.107 426.107 337.619 426.113C339.131 426.118 340.609 426.57 341.865 427.41C343.121 428.251 344.1 429.443 344.679 430.837C346.994 436.402 349.942 441.975 350.668 447.859C350.987 450.459 350.853 453.095 350.269 455.65C355.707 443.813 358.531 430.948 358.549 417.927C358.55 414.659 358.368 411.394 358.004 408.147C357.703 405.485 357.285 402.842 356.751 400.218C353.837 385.98 347.579 372.634 338.493 361.278C334.095 358.883 330.538 355.201 328.302 350.727C327.492 349.119 326.919 347.402 326.602 345.63C327.098 345.695 327.602 345.736 328.099 345.768C328.253 345.776 328.416 345.784 328.57 345.792L328.629 345.795C329.174 345.819 329.715 345.686 330.186 345.411C330.657 345.136 331.038 344.731 331.284 344.244C331.529 343.758 331.629 343.211 331.57 342.67C331.512 342.128 331.298 341.615 330.954 341.192C330.74 340.929 330.525 340.666 330.311 340.403C329.985 339.998 329.652 339.6 329.327 339.194C329.289 339.156 329.254 339.115 329.221 339.072C328.847 338.61 328.473 338.155 328.099 337.693C328.781 336.635 329.7 335.749 330.782 335.104C334.532 332.912 339.704 334.43 342.413 337.814C345.129 341.199 345.642 345.947 344.698 350.175C343.77 353.773 342.236 357.187 340.16 360.271C340.363 360.531 340.575 360.783 340.778 361.042C344.495 365.812 347.734 370.933 350.45 376.333C349.79 370.283 350.578 364.164 352.75 358.478C354.951 353.178 359.077 348.715 362.711 344.134C367.075 338.631 376.025 341.033 376.794 348.008C376.801 348.076 376.809 348.143 376.816 348.211C376.276 348.515 375.748 348.837 375.231 349.178C374.581 349.611 374.078 350.23 373.787 350.953C373.496 351.676 373.431 352.47 373.6 353.231C373.769 353.992 374.164 354.684 374.734 355.217C375.304 355.75 376.022 356.099 376.794 356.217L376.873 356.229C376.68 358.17 376.34 360.094 375.856 361.984C374.452 367.259 371.971 372.188 368.569 376.461C365.167 380.735 360.916 384.261 356.084 386.819C355.767 386.981 355.458 387.143 355.141 387.297C357.869 395.013 359.581 403.051 360.232 411.207C360.601 416.019 360.579 420.853 360.167 425.661L360.192 425.491C361.233 420.144 364.091 415.319 368.284 411.832C374.512 406.727 383.31 404.847 390.028 400.744C390.742 400.286 391.573 400.042 392.421 400.04C393.27 400.038 394.101 400.278 394.817 400.732C395.534 401.186 396.105 401.835 396.464 402.602C396.822 403.369 396.954 404.223 396.842 405.063C396.833 405.122 396.824 405.182 396.815 405.242C395.813 405.649 394.838 406.118 393.895 406.646C393.355 406.95 392.827 407.272 392.31 407.613C391.661 408.046 391.158 408.665 390.867 409.388C390.576 410.111 390.51 410.905 390.679 411.666C390.848 412.427 391.243 413.119 391.813 413.652C392.383 414.185 393.101 414.533 393.873 414.652L393.952 414.664C394.009 414.672 394.058 414.681 394.115 414.689C392.403 418.766 390.002 422.519 387.015 425.783C383.324 429.734 378.864 432.892 373.908 435.062C368.952 437.232 363.603 438.369 358.191 438.403H358.183C356.714 444.774 354.585 450.976 351.831 456.908H329.14C329.058 456.656 328.985 456.396 328.912 456.145C331.012 456.277 333.121 456.151 335.191 455.771C333.507 453.71 331.824 451.632 330.14 449.571C330.102 449.532 330.067 449.492 330.034 449.449C329.18 448.394 328.318 447.347 327.464 446.292L327.464 446.291C327.418 443.057 327.791 439.83 328.571 436.691Z" fill="#F2F2F2"/>
<path d="M151.022 168.364C151.348 169.454 151.91 170.46 152.668 171.31C153.426 172.159 154.362 172.833 155.409 173.283C156.456 173.733 157.589 173.949 158.729 173.914C159.868 173.88 160.986 173.597 162.004 173.085L182.152 191.433L184.827 177.312L165.272 162.098C164.296 160.449 162.748 159.214 160.921 158.627C159.094 158.04 157.114 158.143 155.358 158.915C153.601 159.688 152.19 161.076 151.391 162.818C150.591 164.559 150.46 166.533 151.022 168.364Z" fill="#FFB6B6"/>
<path d="M221.148 154.339C221.148 154.339 228.173 138.495 237.047 141.645C245.197 144.537 246.28 143.586 241.338 160.166L208.002 210.294C208.002 210.294 172.939 188.057 178.786 187.84C184.633 187.622 184.474 176.486 184.474 176.486L198.774 181.138L199.634 176.627L201.012 178.003L204.568 175.209L221.148 154.339Z" fill="#FF4A03"/>
<path d="M261.168 191.809L259.686 205.526L260.558 223.514L222.749 219.079L220.043 191.809L224.823 191.855L261.168 191.809Z" fill="#FFB6B6"/>
<path d="M268.433 440.859H259.704L251.221 375.34H270.992L268.433 440.859Z" fill="#FFB6B6"/>
<path d="M270.992 387.983V402.173C270.992 402.173 258.417 413.403 249.638 402.962L244.166 356.699C244.166 356.699 244.031 352.367 241.318 349.794C241.087 349.574 240.885 349.324 240.717 349.052C238.756 346.029 239.555 339.779 239.555 339.779C239.555 339.779 235.743 337.727 234.541 331.098C233.339 324.469 229.384 309.987 229.384 309.987C229.384 309.987 221.215 288.607 221.784 275.073C221.887 272.571 221.926 270.29 221.926 268.238C221.903 259.178 220.993 254.498 220.993 254.498L219.34 223.056L222.749 218.29L238.337 218.747L239.397 218.716L239.784 218.708L255.791 218.227L264.831 223.53C264.831 223.53 265.638 225.535 266.776 228.305C268.904 233.442 272.178 241.216 273.625 243.828C275.856 247.853 274.748 268.562 267.156 277.764C267.156 277.764 264 282.238 264.831 283.856C265.582 285.324 264.863 287.81 264.72 288.252V288.26C264.704 288.3 264.696 288.323 264.696 288.323L263.486 315.156C263.486 315.156 263.486 326.655 266.199 330.853C268.912 335.052 270.992 387.983 270.992 387.983Z" fill="#2F2E41"/>
<path d="M273.04 455.952H266.78L265.663 450.054L262.801 455.952H246.198C245.402 455.952 244.627 455.698 243.986 455.228C243.345 454.757 242.871 454.094 242.634 453.336C242.398 452.578 242.41 451.764 242.669 451.013C242.929 450.262 243.422 449.614 244.077 449.163L257.336 440.025V434.062L271.282 434.893L273.04 455.952Z" fill="#2F2E41"/>
<path d="M216.822 441.03L208.229 439.494L211.464 373.509L230.926 376.99L216.822 441.03Z" fill="#FFB6B6"/>
<path d="M267.156 277.763C267.156 277.763 264.001 282.238 264.831 283.855C265.582 285.323 264.863 287.809 264.72 288.251V288.259C263.849 288.946 262.926 289.566 261.96 290.114C261.96 290.114 257.389 293.144 257.579 294.952C257.761 296.759 255.823 299.063 255.823 299.063L244.933 323.623C244.933 323.623 240.741 334.34 241.746 339.233C242.054 340.733 241.556 344.513 240.718 349.051C238.843 359.326 232.058 395.543 232.058 395.543L226.704 408.486C226.704 408.486 206.671 402.938 206.141 401.383C206.141 401.383 213.259 351.237 211.669 347.859C210.08 344.482 210.863 334.593 212.16 327.987C213.449 321.374 215.212 283.563 220.669 271.165C221.112 270.155 221.531 269.176 221.927 268.237C226.332 257.654 227.423 251.703 227.423 251.703L237.325 221.816L238.337 218.747L238.567 219.867L239.784 218.707L257.595 225.036L266.777 228.304C268.904 233.441 272.178 241.215 273.626 243.827C275.856 247.852 274.749 268.561 267.156 277.763Z" fill="#2F2E41"/>
<path d="M218.142 435.044L208.554 432.737L207.099 432.388L206.048 438.257L191.379 444.919C190.654 445.246 190.053 445.797 189.664 446.49C189.275 447.184 189.119 447.983 189.219 448.771C189.318 449.559 189.668 450.294 190.217 450.87C190.766 451.445 191.485 451.829 192.269 451.967L208.605 454.895L212.468 449.592L212.524 455.597L218.689 456.695L220.681 435.656L218.142 435.044Z" fill="#2F2E41"/>
<path d="M444.058 458H0.94162C0.692346 458 0.453546 457.9 0.277538 457.724C0.10153 457.548 0.00268555 457.31 0.00268555 457.061C0.00268555 456.812 0.10153 456.573 0.277538 456.397C0.453546 456.221 0.692346 456.122 0.94162 456.121H444.058C444.308 456.122 444.546 456.221 444.722 456.397C444.898 456.573 444.997 456.812 444.997 457.061C444.997 457.31 444.898 457.548 444.722 457.724C444.546 457.9 444.308 458 444.058 458Z" fill="#CCCCCC"/>
<path d="M244.291 130.854C253.922 130.854 261.728 123.064 261.728 113.454C261.728 103.844 253.922 96.0537 244.291 96.0537C234.661 96.0537 226.854 103.844 226.854 113.454C226.854 123.064 234.661 130.854 244.291 130.854Z" fill="#FFB7B7"/>
<path d="M226.403 146.725L235.891 141.045L240.148 133.845H251.22L254.866 139.151L271.637 147.673L271.469 173.707L263.874 212.765L220.376 200.137L217.708 185.504C217.708 185.504 202.211 168.974 215.493 159.506L226.403 146.725Z" fill="#FF4A03"/>
<path d="M267.015 259.131C267.917 258.577 268.685 257.832 269.267 256.95C269.849 256.067 270.23 255.068 270.383 254.022C270.536 252.977 270.458 251.911 270.154 250.899C269.849 249.887 269.326 248.954 268.621 248.166L274.739 182.625L259.036 183.835L257.96 247.879C256.711 249.148 255.973 250.831 255.884 252.608C255.795 254.384 256.363 256.132 257.479 257.518C258.595 258.905 260.183 259.836 261.94 260.133C263.698 260.43 265.503 260.073 267.015 259.131Z" fill="#FFB6B6"/>
<path d="M271.783 147.262C271.783 147.262 271.783 148.051 274.402 155.46C276.647 161.806 280.619 200.796 272.869 210.312C275.03 211.64 271.78 236.279 270.992 238.809L255.174 234.863C253.041 231.203 255.312 205.516 256.863 204.907L256.772 193.211L252.724 154.658L268.312 148.286L271.783 147.262Z" fill="#FF4A03"/>
<path d="M159.966 178.279L155.977 152.765C155.841 151.892 156.058 151.001 156.58 150.287C157.103 149.574 157.887 149.096 158.762 148.959L164.334 148.091C165.209 147.956 166.102 148.172 166.817 148.693C167.532 149.214 168.011 149.997 168.148 150.87L172.137 176.384C172.273 177.257 172.056 178.148 171.534 178.862C171.012 179.575 170.227 180.053 169.353 180.19L163.78 181.058C162.906 181.193 162.013 180.976 161.297 180.455C160.582 179.934 160.104 179.152 159.966 178.279Z" fill="#3F3D56"/>
<path d="M159.617 150.158C159.146 150.232 158.723 150.49 158.442 150.874C158.16 151.259 158.043 151.739 158.116 152.209L162.106 177.724C162.18 178.194 162.438 178.616 162.823 178.896C163.209 179.177 163.69 179.294 164.161 179.221L169.734 178.353C170.205 178.279 170.628 178.022 170.909 177.637C171.19 177.253 171.307 176.773 171.234 176.302L167.245 150.788C167.171 150.318 166.913 149.896 166.527 149.615C166.142 149.335 165.661 149.218 165.189 149.291L159.617 150.158Z" fill="#FF4A03"/>
<path d="M270.201 121.447V123.397C270.201 124.656 269.949 125.902 269.459 127.062C268.969 128.222 268.251 129.272 267.348 130.151C266.445 131.03 265.375 131.719 264.201 132.179C263.026 132.638 261.772 132.858 260.511 132.826L247.668 132.42C247.517 131.151 247.098 129.928 246.437 128.834C246.526 130.037 246.356 131.246 245.938 132.378L240.257 132.237C244.761 122.332 246.518 113.912 240.257 109.826H231.839C231.671 108.623 231.261 107.465 230.633 106.423C230.722 107.577 230.569 108.736 230.184 109.826H221.958C221.959 105.644 223.624 101.634 226.588 98.6762C229.551 95.7189 233.571 94.0571 237.762 94.0561H240.257C259.072 89.3333 269.003 99.4264 270.201 121.447Z" fill="#2F2E41"/>
</g>
<rect x="276.5" y="0.5" width="590" height="319" rx="14.5" fill="white" stroke="#D9D9D9"/>
<path d="M360 78H346C344.895 78 344 78.8954 344 80V94C344 95.1046 344.895 96 346 96H360C361.105 96 362 95.1046 362 94V80C362 78.8954 361.105 78 360 78Z" stroke="black" stroke-width="2" stroke-linecap="round" stroke-linejoin="round"/>
<path d="M357 76V80" stroke="black" stroke-width="2" stroke-linecap="round" stroke-linejoin="round"/>
<path d="M349 76V80" stroke="black" stroke-width="2" stroke-linecap="round" stroke-linejoin="round"/>
<path d="M344 84H362" stroke="black" stroke-width="2" stroke-linecap="round" stroke-linejoin="round"/>
<g clip-path="url(#clip1_721_4674)">
<path d="M353 143.08C359.036 143.08 364 138.372 364 132.48C364 126.588 359.036 121.88 353 121.88C346.964 121.88 342 126.588 342 132.48C342 138.372 346.964 143.08 353 143.08Z" fill="white" stroke="black" stroke-width="2" stroke-linecap="round" stroke-linejoin="round"/>
<path d="M359.01 122.785C362.059 120.276 366.236 124.663 362.68 127.673" stroke="black" stroke-width="2"/>
<path d="M347.071 122.785C344.022 120.276 339.845 124.663 343.401 127.673" stroke="black" stroke-width="2"/>
<path d="M345.5 143.52L347.5 141.12M360 143.52L358 141.12" stroke="black" stroke-width="2"/>
<path d="M353 120V122.88M351 120H355" stroke="black"/>
<path d="M353 126V132L357 134" stroke="black" stroke-width="2" stroke-linecap="round" stroke-linejoin="round"/>
</g>
<path d="M353 188C358.523 188 363 183.523 363 178C363 172.477 358.523 168 353 168C347.477 168 343 172.477 343 178C343 183.523 347.477 188 353 188Z" stroke="black" stroke-width="2" stroke-linecap="round" stroke-linejoin="round"/>
<path d="M353 174V178" stroke="black" stroke-width="2" stroke-linecap="round" stroke-linejoin="round"/>
<path d="M353 182H353.01" stroke="black" stroke-width="2" stroke-linecap="round" stroke-linejoin="round"/>
<path d="M362 220V233H344V220" stroke="black" stroke-width="2" stroke-linecap="round" stroke-linejoin="round"/>
<path d="M364 215H342V220H364V215Z" stroke="black" stroke-width="2" stroke-linecap="round" stroke-linejoin="round"/>
<path d="M351 224H355" stroke="black" stroke-width="2" stroke-linecap="round" stroke-linejoin="round"/>
<path d="M352 260H345C344.47 260 343.961 260.211 343.586 260.586C343.211 260.961 343 261.47 343 262V276C343 276.53 343.211 277.039 343.586 277.414C343.961 277.789 344.47 278 345 278H359C359.53 278 360.039 277.789 360.414 277.414C360.789 277.039 361 276.53 361 276V269" stroke="black" stroke-width="2" stroke-linecap="round" stroke-linejoin="round"/>
<path d="M359.5 258.5C359.898 258.102 360.437 257.879 361 257.879C361.563 257.879 362.102 258.102 362.5 258.5C362.898 258.898 363.121 259.438 363.121 260C363.121 260.563 362.898 261.102 362.5 261.5L353 271L349 272L350 268L359.5 258.5Z" stroke="black" stroke-width="2" stroke-linecap="round" stroke-linejoin="round"/>
<path d="M390 74L390 278" stroke="#D4D4D4"/>
<path d="M425.4 95H415.96V93.54L419.7 89.76C420.42 89.04 421.027 88.4 421.52 87.84C422.013 87.28 422.387 86.7333 422.64 86.2C422.893 85.6533 423.02 85.06 423.02 84.42C423.02 83.6333 422.787 83.04 422.32 82.64C421.853 82.2267 421.247 82.02 420.5 82.02C419.807 82.02 419.193 82.14 418.66 82.38C418.14 82.62 417.607 82.9533 417.06 83.38L416.12 82.2C416.493 81.88 416.9 81.5933 417.34 81.34C417.793 81.0867 418.28 80.8867 418.8 80.74C419.333 80.5933 419.9 80.52 420.5 80.52C421.393 80.52 422.16 80.6733 422.8 80.98C423.44 81.2867 423.933 81.7267 424.28 82.3C424.64 82.86 424.82 83.5333 424.82 84.32C424.82 84.88 424.733 85.4133 424.56 85.92C424.387 86.4133 424.14 86.9 423.82 87.38C423.5 87.86 423.113 88.3467 422.66 88.84C422.207 89.3333 421.707 89.8467 421.16 90.38L418.18 93.32V93.4H425.4V95ZM436.905 87.84C436.905 89 436.819 90.0333 436.645 90.94C436.472 91.8467 436.192 92.62 435.805 93.26C435.432 93.8867 434.939 94.3667 434.325 94.7C433.725 95.0333 432.999 95.2 432.145 95.2C431.079 95.2 430.192 94.9067 429.485 94.32C428.792 93.7333 428.272 92.8933 427.925 91.8C427.592 90.6933 427.425 89.3733 427.425 87.84C427.425 86.2933 427.579 84.9733 427.885 83.88C428.205 82.7867 428.712 81.9533 429.405 81.38C430.099 80.7933 431.012 80.5 432.145 80.5C433.212 80.5 434.099 80.7933 434.805 81.38C435.512 81.9533 436.039 82.7867 436.385 83.88C436.732 84.9733 436.905 86.2933 436.905 87.84ZM429.185 87.84C429.185 89.1467 429.279 90.2333 429.465 91.1C429.665 91.9667 429.979 92.62 430.405 93.06C430.845 93.4867 431.425 93.7 432.145 93.7C432.865 93.7 433.439 93.4867 433.865 93.06C434.305 92.6333 434.625 91.9867 434.825 91.12C435.025 90.24 435.125 89.1467 435.125 87.84C435.125 86.5333 435.025 85.4533 434.825 84.6C434.625 83.7333 434.305 83.0867 433.865 82.66C433.439 82.22 432.865 82 432.145 82C431.425 82 430.845 82.22 430.405 82.66C429.979 83.0867 429.665 83.7333 429.465 84.6C429.279 85.4533 429.185 86.5333 429.185 87.84ZM448.291 95H438.851V93.54L442.591 89.76C443.311 89.04 443.917 88.4 444.411 87.84C444.904 87.28 445.277 86.7333 445.531 86.2C445.784 85.6533 445.911 85.06 445.911 84.42C445.911 83.6333 445.677 83.04 445.211 82.64C444.744 82.2267 444.137 82.02 443.391 82.02C442.697 82.02 442.084 82.14 441.551 82.38C441.031 82.62 440.497 82.9533 439.951 83.38L439.011 82.2C439.384 81.88 439.791 81.5933 440.231 81.34C440.684 81.0867 441.171 80.8867 441.691 80.74C442.224 80.5933 442.791 80.52 443.391 80.52C444.284 80.52 445.051 80.6733 445.691 80.98C446.331 81.2867 446.824 81.7267 447.171 82.3C447.531 82.86 447.711 83.5333 447.711 84.32C447.711 84.88 447.624 85.4133 447.451 85.92C447.277 86.4133 447.031 86.9 446.711 87.38C446.391 87.86 446.004 88.3467 445.551 88.84C445.097 89.3333 444.597 89.8467 444.051 90.38L441.071 93.32V93.4H448.291V95ZM460.376 91.76H458.296V95H456.596V91.76H449.756V90.26L456.476 80.64H458.296V90.18H460.376V91.76ZM456.596 85.68C456.596 85.3333 456.596 85.02 456.596 84.74C456.609 84.4467 456.623 84.1733 456.636 83.92C456.649 83.6667 456.656 83.4267 456.656 83.2C456.669 82.96 456.683 82.7333 456.696 82.52H456.616C456.509 82.7733 456.376 83.0467 456.216 83.34C456.056 83.6333 455.903 83.88 455.756 84.08L451.476 90.18H456.596V85.68ZM474.981 78.48H476.641V91.88H474.981V78.48ZM469.881 80.84H475.601V82.18H469.881V80.84ZM465.081 94.8H477.121V96.16H465.081V94.8ZM465.081 90.72H466.741V95.42H465.081V90.72ZM462.821 79.8H464.481V88.32H462.821V79.8ZM462.821 87.8H464.181C466.761 87.8 469.181 87.66 472.001 87.16L472.161 88.54C469.261 89.06 466.841 89.18 464.181 89.18H462.821V87.8ZM469.881 84.28H475.601V85.64H469.881V84.28ZM494.835 87.84C494.835 89 494.748 90.0333 494.575 90.94C494.402 91.8467 494.122 92.62 493.735 93.26C493.362 93.8867 492.868 94.3667 492.255 94.7C491.655 95.0333 490.928 95.2 490.075 95.2C489.008 95.2 488.122 94.9067 487.415 94.32C486.722 93.7333 486.202 92.8933 485.855 91.8C485.522 90.6933 485.355 89.3733 485.355 87.84C485.355 86.2933 485.508 84.9733 485.815 83.88C486.135 82.7867 486.642 81.9533 487.335 81.38C488.028 80.7933 488.942 80.5 490.075 80.5C491.142 80.5 492.028 80.7933 492.735 81.38C493.442 81.9533 493.968 82.7867 494.315 83.88C494.662 84.9733 494.835 86.2933 494.835 87.84ZM487.115 87.84C487.115 89.1467 487.208 90.2333 487.395 91.1C487.595 91.9667 487.908 92.62 488.335 93.06C488.775 93.4867 489.355 93.7 490.075 93.7C490.795 93.7 491.368 93.4867 491.795 93.06C492.235 92.6333 492.555 91.9867 492.755 91.12C492.955 90.24 493.055 89.1467 493.055 87.84C493.055 86.5333 492.955 85.4533 492.755 84.6C492.555 83.7333 492.235 83.0867 491.795 82.66C491.368 82.22 490.795 82 490.075 82C489.355 82 488.775 82.22 488.335 82.66C487.908 83.0867 487.595 83.7333 487.395 84.6C487.208 85.4533 487.115 86.5333 487.115 87.84ZM502.92 95H501.2V85.02C501.2 84.6333 501.2 84.3067 501.2 84.04C501.214 83.7733 501.227 83.5267 501.24 83.3C501.254 83.06 501.267 82.8133 501.28 82.56C501.067 82.7733 500.874 82.9533 500.7 83.1C500.527 83.2467 500.307 83.4333 500.04 83.66L498.52 84.9L497.6 83.72L501.46 80.72H502.92V95ZM513.106 85.96H514.766V89.18H513.106V85.96ZM521.406 78.48H523.066V89.12H521.406V78.48ZM508.406 86.52L508.206 85.28C511.686 85.28 516.106 85.26 519.966 84.82L520.066 85.9C516.106 86.48 511.786 86.52 508.406 86.52ZM510.946 89.78H523.066V93.54H512.606V95.58H510.986V92.44H521.426V90.98H510.946V89.78ZM510.986 95.16H523.666V96.36H510.986V95.16ZM517.806 87.08H521.926V88.16H517.806V87.08ZM514.046 78.82C516.726 78.82 518.486 79.86 518.486 81.54C518.486 83.22 516.726 84.26 514.046 84.26C511.346 84.26 509.586 83.22 509.586 81.54C509.586 79.86 511.346 78.82 514.046 78.82ZM514.046 79.98C512.266 79.98 511.126 80.58 511.126 81.54C511.126 82.5 512.266 83.1 514.046 83.1C515.786 83.1 516.926 82.5 516.926 81.54C516.926 80.58 515.786 79.98 514.046 79.98ZM540.719 84.06C540.719 84.7 540.599 85.2533 540.359 85.72C540.119 86.1867 539.773 86.5667 539.319 86.86C538.879 87.1533 538.359 87.36 537.759 87.48V87.56C538.906 87.6933 539.759 88.0533 540.319 88.64C540.879 89.2267 541.159 89.9933 541.159 90.94C541.159 91.7667 540.966 92.5067 540.579 93.16C540.193 93.8 539.593 94.3 538.779 94.66C537.979 95.02 536.946 95.2 535.679 95.2C534.933 95.2 534.239 95.14 533.599 95.02C532.959 94.9133 532.346 94.7133 531.759 94.42V92.78C532.359 93.0733 533.006 93.3067 533.699 93.48C534.393 93.64 535.059 93.72 535.699 93.72C536.979 93.72 537.899 93.4733 538.459 92.98C539.033 92.4733 539.319 91.78 539.319 90.9C539.319 90.3 539.159 89.82 538.839 89.46C538.533 89.0867 538.079 88.8133 537.479 88.64C536.879 88.4667 536.159 88.38 535.319 88.38H533.939V86.88H535.339C536.126 86.88 536.779 86.7667 537.299 86.54C537.833 86.3133 538.233 86 538.499 85.6C538.779 85.1867 538.919 84.7133 538.919 84.18C538.919 83.4867 538.686 82.9533 538.219 82.58C537.753 82.1933 537.119 82 536.319 82C535.813 82 535.353 82.0533 534.939 82.16C534.526 82.2533 534.139 82.3933 533.779 82.58C533.433 82.7533 533.079 82.96 532.719 83.2L531.839 82C532.186 81.7333 532.579 81.4867 533.019 81.26C533.473 81.0333 533.973 80.8533 534.519 80.72C535.066 80.5867 535.659 80.52 536.299 80.52C537.793 80.52 538.899 80.8533 539.619 81.52C540.353 82.1867 540.719 83.0333 540.719 84.06ZM549.405 95H547.685V85.02C547.685 84.6333 547.685 84.3067 547.685 84.04C547.698 83.7733 547.711 83.5267 547.725 83.3C547.738 83.06 547.751 82.8133 547.765 82.56C547.551 82.7733 547.358 82.9533 547.185 83.1C547.011 83.2467 546.791 83.4333 546.525 83.66L545.005 84.9L544.085 83.72L547.945 80.72H549.405V95ZM559.81 79.14C562.51 79.14 564.49 80.78 564.49 83.16C564.49 85.52 562.51 87.16 559.81 87.16C557.13 87.16 555.15 85.52 555.15 83.16C555.15 80.78 557.13 79.14 559.81 79.14ZM559.81 80.5C558.07 80.5 556.75 81.6 556.75 83.16C556.75 84.72 558.07 85.8 559.81 85.8C561.57 85.8 562.87 84.72 562.87 83.16C562.87 81.6 561.57 80.5 559.81 80.5ZM567.89 78.48H569.57V87.74H567.89V78.48ZM557.87 88.62H569.57V93.02H559.53V95.74H557.91V91.78H567.93V89.96H557.87V88.62ZM557.91 95H570.17V96.32H557.91V95ZM584.444 95H582.724V85.02C582.724 84.6333 582.724 84.3067 582.724 84.04C582.737 83.7733 582.75 83.5267 582.764 83.3C582.777 83.06 582.79 82.8133 582.804 82.56C582.59 82.7733 582.397 82.9533 582.224 83.1C582.05 83.2467 581.83 83.4333 581.564 83.66L580.044 84.9L579.124 83.72L582.984 80.72H584.444V95ZM594.489 80.52C595.329 80.52 596.069 80.6533 596.709 80.92C597.349 81.1733 597.849 81.5533 598.209 82.06C598.582 82.5667 598.769 83.1933 598.769 83.94C598.769 84.5133 598.642 85.0133 598.389 85.44C598.149 85.8667 597.822 86.2467 597.409 86.58C596.996 86.9 596.542 87.1867 596.049 87.44C596.636 87.72 597.169 88.04 597.649 88.4C598.129 88.7467 598.509 89.1533 598.789 89.62C599.082 90.0867 599.229 90.6467 599.229 91.3C599.229 92.1 599.036 92.7933 598.649 93.38C598.262 93.9533 597.716 94.4 597.009 94.72C596.316 95.04 595.496 95.2 594.549 95.2C593.522 95.2 592.649 95.0467 591.929 94.74C591.222 94.4333 590.682 94 590.309 93.44C589.949 92.8667 589.769 92.1733 589.769 91.36C589.769 90.7067 589.902 90.14 590.169 89.66C590.449 89.18 590.816 88.7667 591.269 88.42C591.722 88.0733 592.209 87.78 592.729 87.54C592.262 87.2733 591.836 86.9733 591.449 86.64C591.076 86.2933 590.776 85.9 590.549 85.46C590.336 85.02 590.229 84.5067 590.229 83.92C590.229 83.1867 590.416 82.5733 590.789 82.08C591.162 81.5733 591.669 81.1867 592.309 80.92C592.949 80.6533 593.676 80.52 594.489 80.52ZM591.489 91.38C591.489 92.0733 591.736 92.6533 592.229 93.12C592.722 93.5733 593.482 93.8 594.509 93.8C595.162 93.8 595.709 93.6933 596.149 93.48C596.589 93.2667 596.922 92.9733 597.149 92.6C597.389 92.2267 597.509 91.8 597.509 91.32C597.509 90.8533 597.382 90.4467 597.129 90.1C596.889 89.74 596.542 89.42 596.089 89.14C595.649 88.86 595.122 88.6067 594.509 88.38L594.189 88.26C593.602 88.5133 593.109 88.7867 592.709 89.08C592.309 89.3733 592.002 89.7067 591.789 90.08C591.589 90.4533 591.489 90.8867 591.489 91.38ZM594.469 81.94C593.736 81.94 593.129 82.12 592.649 82.48C592.182 82.8267 591.949 83.3333 591.949 84C591.949 84.4933 592.062 84.9067 592.289 85.24C592.529 85.5733 592.849 85.86 593.249 86.1C593.649 86.3267 594.089 86.5467 594.569 86.76C595.036 86.56 595.449 86.34 595.809 86.1C596.182 85.86 596.476 85.5733 596.689 85.24C596.916 84.8933 597.029 84.48 597.029 84C597.029 83.3333 596.796 82.8267 596.329 82.48C595.862 82.12 595.242 81.94 594.469 81.94ZM606.87 93.92C606.87 93.4267 606.99 93.08 607.23 92.88C607.47 92.68 607.756 92.58 608.09 92.58C608.436 92.58 608.73 92.68 608.97 92.88C609.223 93.08 609.35 93.4267 609.35 93.92C609.35 94.4 609.223 94.7467 608.97 94.96C608.73 95.1733 608.436 95.28 608.09 95.28C607.756 95.28 607.47 95.1733 607.23 94.96C606.99 94.7467 606.87 94.4 606.87 93.92ZM606.87 85.36C606.87 84.8533 606.99 84.5 607.23 84.3C607.47 84.1 607.756 84 608.09 84C608.436 84 608.73 84.1 608.97 84.3C609.223 84.5 609.35 84.8533 609.35 85.36C609.35 85.84 609.223 86.1867 608.97 86.4C608.73 86.6133 608.436 86.72 608.09 86.72C607.756 86.72 607.47 86.6133 607.23 86.4C606.99 86.1867 606.87 85.84 606.87 85.36ZM626.437 87.84C626.437 89 626.35 90.0333 626.177 90.94C626.003 91.8467 625.723 92.62 625.337 93.26C624.963 93.8867 624.47 94.3667 623.857 94.7C623.257 95.0333 622.53 95.2 621.677 95.2C620.61 95.2 619.723 94.9067 619.017 94.32C618.323 93.7333 617.803 92.8933 617.457 91.8C617.123 90.6933 616.957 89.3733 616.957 87.84C616.957 86.2933 617.11 84.9733 617.417 83.88C617.737 82.7867 618.243 81.9533 618.937 81.38C619.63 80.7933 620.543 80.5 621.677 80.5C622.743 80.5 623.63 80.7933 624.337 81.38C625.043 81.9533 625.57 82.7867 625.917 83.88C626.263 84.9733 626.437 86.2933 626.437 87.84ZM618.717 87.84C618.717 89.1467 618.81 90.2333 618.997 91.1C619.197 91.9667 619.51 92.62 619.937 93.06C620.377 93.4867 620.957 93.7 621.677 93.7C622.397 93.7 622.97 93.4867 623.397 93.06C623.837 92.6333 624.157 91.9867 624.357 91.12C624.557 90.24 624.657 89.1467 624.657 87.84C624.657 86.5333 624.557 85.4533 624.357 84.6C624.157 83.7333 623.837 83.0867 623.397 82.66C622.97 82.22 622.397 82 621.677 82C620.957 82 620.377 82.22 619.937 82.66C619.51 83.0867 619.197 83.7333 618.997 84.6C618.81 85.4533 618.717 86.5333 618.717 87.84ZM637.882 87.84C637.882 89 637.795 90.0333 637.622 90.94C637.449 91.8467 637.169 92.62 636.782 93.26C636.409 93.8867 635.915 94.3667 635.302 94.7C634.702 95.0333 633.975 95.2 633.122 95.2C632.055 95.2 631.169 94.9067 630.462 94.32C629.769 93.7333 629.249 92.8933 628.902 91.8C628.569 90.6933 628.402 89.3733 628.402 87.84C628.402 86.2933 628.555 84.9733 628.862 83.88C629.182 82.7867 629.689 81.9533 630.382 81.38C631.075 80.7933 631.989 80.5 633.122 80.5C634.189 80.5 635.075 80.7933 635.782 81.38C636.489 81.9533 637.015 82.7867 637.362 83.88C637.709 84.9733 637.882 86.2933 637.882 87.84ZM630.162 87.84C630.162 89.1467 630.255 90.2333 630.442 91.1C630.642 91.9667 630.955 92.62 631.382 93.06C631.822 93.4867 632.402 93.7 633.122 93.7C633.842 93.7 634.415 93.4867 634.842 93.06C635.282 92.6333 635.602 91.9867 635.802 91.12C636.002 90.24 636.102 89.1467 636.102 87.84C636.102 86.5333 636.002 85.4533 635.802 84.6C635.602 83.7333 635.282 83.0867 634.842 82.66C634.415 82.22 633.842 82 633.122 82C632.402 82 631.822 82.22 631.382 82.66C630.955 83.0867 630.642 83.7333 630.442 84.6C630.255 85.4533 630.162 86.5333 630.162 87.84Z" fill="black"/>
<path d="M425.4 140H415.96V138.54L419.7 134.76C420.42 134.04 421.027 133.4 421.52 132.84C422.013 132.28 422.387 131.733 422.64 131.2C422.893 130.653 423.02 130.06 423.02 129.42C423.02 128.633 422.787 128.04 422.32 127.64C421.853 127.227 421.247 127.02 420.5 127.02C419.807 127.02 419.193 127.14 418.66 127.38C418.14 127.62 417.607 127.953 417.06 128.38L416.12 127.2C416.493 126.88 416.9 126.593 417.34 126.34C417.793 126.087 418.28 125.887 418.8 125.74C419.333 125.593 419.9 125.52 420.5 125.52C421.393 125.52 422.16 125.673 422.8 125.98C423.44 126.287 423.933 126.727 424.28 127.3C424.64 127.86 424.82 128.533 424.82 129.32C424.82 129.88 424.733 130.413 424.56 130.92C424.387 131.413 424.14 131.9 423.82 132.38C423.5 132.86 423.113 133.347 422.66 133.84C422.207 134.333 421.707 134.847 421.16 135.38L418.18 138.32V138.4H425.4V140ZM436.905 132.84C436.905 134 436.819 135.033 436.645 135.94C436.472 136.847 436.192 137.62 435.805 138.26C435.432 138.887 434.939 139.367 434.325 139.7C433.725 140.033 432.999 140.2 432.145 140.2C431.079 140.2 430.192 139.907 429.485 139.32C428.792 138.733 428.272 137.893 427.925 136.8C427.592 135.693 427.425 134.373 427.425 132.84C427.425 131.293 427.579 129.973 427.885 128.88C428.205 127.787 428.712 126.953 429.405 126.38C430.099 125.793 431.012 125.5 432.145 125.5C433.212 125.5 434.099 125.793 434.805 126.38C435.512 126.953 436.039 127.787 436.385 128.88C436.732 129.973 436.905 131.293 436.905 132.84ZM429.185 132.84C429.185 134.147 429.279 135.233 429.465 136.1C429.665 136.967 429.979 137.62 430.405 138.06C430.845 138.487 431.425 138.7 432.145 138.7C432.865 138.7 433.439 138.487 433.865 138.06C434.305 137.633 434.625 136.987 434.825 136.12C435.025 135.24 435.125 134.147 435.125 132.84C435.125 131.533 435.025 130.453 434.825 129.6C434.625 128.733 434.305 128.087 433.865 127.66C433.439 127.22 432.865 127 432.145 127C431.425 127 430.845 127.22 430.405 127.66C429.979 128.087 429.665 128.733 429.465 129.6C429.279 130.453 429.185 131.533 429.185 132.84ZM448.291 140H438.851V138.54L442.591 134.76C443.311 134.04 443.917 133.4 444.411 132.84C444.904 132.28 445.277 131.733 445.531 131.2C445.784 130.653 445.911 130.06 445.911 129.42C445.911 128.633 445.677 128.04 445.211 127.64C444.744 127.227 444.137 127.02 443.391 127.02C442.697 127.02 442.084 127.14 441.551 127.38C441.031 127.62 440.497 127.953 439.951 128.38L439.011 127.2C439.384 126.88 439.791 126.593 440.231 126.34C440.684 126.087 441.171 125.887 441.691 125.74C442.224 125.593 442.791 125.52 443.391 125.52C444.284 125.52 445.051 125.673 445.691 125.98C446.331 126.287 446.824 126.727 447.171 127.3C447.531 127.86 447.711 128.533 447.711 129.32C447.711 129.88 447.624 130.413 447.451 130.92C447.277 131.413 447.031 131.9 446.711 132.38C446.391 132.86 446.004 133.347 445.551 133.84C445.097 134.333 444.597 134.847 444.051 135.38L441.071 138.32V138.4H448.291V140ZM460.376 136.76H458.296V140H456.596V136.76H449.756V135.26L456.476 125.64H458.296V135.18H460.376V136.76ZM456.596 130.68C456.596 130.333 456.596 130.02 456.596 129.74C456.609 129.447 456.623 129.173 456.636 128.92C456.649 128.667 456.656 128.427 456.656 128.2C456.669 127.96 456.683 127.733 456.696 127.52H456.616C456.509 127.773 456.376 128.047 456.216 128.34C456.056 128.633 455.903 128.88 455.756 129.08L451.476 135.18H456.596V130.68ZM474.981 123.48H476.641V136.88H474.981V123.48ZM469.881 125.84H475.601V127.18H469.881V125.84ZM465.081 139.8H477.121V141.16H465.081V139.8ZM465.081 135.72H466.741V140.42H465.081V135.72ZM462.821 124.8H464.481V133.32H462.821V124.8ZM462.821 132.8H464.181C466.761 132.8 469.181 132.66 472.001 132.16L472.161 133.54C469.261 134.06 466.841 134.18 464.181 134.18H462.821V132.8ZM469.881 129.28H475.601V130.64H469.881V129.28ZM494.835 132.84C494.835 134 494.748 135.033 494.575 135.94C494.402 136.847 494.122 137.62 493.735 138.26C493.362 138.887 492.868 139.367 492.255 139.7C491.655 140.033 490.928 140.2 490.075 140.2C489.008 140.2 488.122 139.907 487.415 139.32C486.722 138.733 486.202 137.893 485.855 136.8C485.522 135.693 485.355 134.373 485.355 132.84C485.355 131.293 485.508 129.973 485.815 128.88C486.135 127.787 486.642 126.953 487.335 126.38C488.028 125.793 488.942 125.5 490.075 125.5C491.142 125.5 492.028 125.793 492.735 126.38C493.442 126.953 493.968 127.787 494.315 128.88C494.662 129.973 494.835 131.293 494.835 132.84ZM487.115 132.84C487.115 134.147 487.208 135.233 487.395 136.1C487.595 136.967 487.908 137.62 488.335 138.06C488.775 138.487 489.355 138.7 490.075 138.7C490.795 138.7 491.368 138.487 491.795 138.06C492.235 137.633 492.555 136.987 492.755 136.12C492.955 135.24 493.055 134.147 493.055 132.84C493.055 131.533 492.955 130.453 492.755 129.6C492.555 128.733 492.235 128.087 491.795 127.66C491.368 127.22 490.795 127 490.075 127C489.355 127 488.775 127.22 488.335 127.66C487.908 128.087 487.595 128.733 487.395 129.6C487.208 130.453 487.115 131.533 487.115 132.84ZM502.92 140H501.2V130.02C501.2 129.633 501.2 129.307 501.2 129.04C501.214 128.773 501.227 128.527 501.24 128.3C501.254 128.06 501.267 127.813 501.28 127.56C501.067 127.773 500.874 127.953 500.7 128.1C500.527 128.247 500.307 128.433 500.04 128.66L498.52 129.9L497.6 128.72L501.46 125.72H502.92V140ZM513.106 130.96H514.766V134.18H513.106V130.96ZM521.406 123.48H523.066V134.12H521.406V123.48ZM508.406 131.52L508.206 130.28C511.686 130.28 516.106 130.26 519.966 129.82L520.066 130.9C516.106 131.48 511.786 131.52 508.406 131.52ZM510.946 134.78H523.066V138.54H512.606V140.58H510.986V137.44H521.426V135.98H510.946V134.78ZM510.986 140.16H523.666V141.36H510.986V140.16ZM517.806 132.08H521.926V133.16H517.806V132.08ZM514.046 123.82C516.726 123.82 518.486 124.86 518.486 126.54C518.486 128.22 516.726 129.26 514.046 129.26C511.346 129.26 509.586 128.22 509.586 126.54C509.586 124.86 511.346 123.82 514.046 123.82ZM514.046 124.98C512.266 124.98 511.126 125.58 511.126 126.54C511.126 127.5 512.266 128.1 514.046 128.1C515.786 128.1 516.926 127.5 516.926 126.54C516.926 125.58 515.786 124.98 514.046 124.98ZM540.719 129.06C540.719 129.7 540.599 130.253 540.359 130.72C540.119 131.187 539.773 131.567 539.319 131.86C538.879 132.153 538.359 132.36 537.759 132.48V132.56C538.906 132.693 539.759 133.053 540.319 133.64C540.879 134.227 541.159 134.993 541.159 135.94C541.159 136.767 540.966 137.507 540.579 138.16C540.193 138.8 539.593 139.3 538.779 139.66C537.979 140.02 536.946 140.2 535.679 140.2C534.933 140.2 534.239 140.14 533.599 140.02C532.959 139.913 532.346 139.713 531.759 139.42V137.78C532.359 138.073 533.006 138.307 533.699 138.48C534.393 138.64 535.059 138.72 535.699 138.72C536.979 138.72 537.899 138.473 538.459 137.98C539.033 137.473 539.319 136.78 539.319 135.9C539.319 135.3 539.159 134.82 538.839 134.46C538.533 134.087 538.079 133.813 537.479 133.64C536.879 133.467 536.159 133.38 535.319 133.38H533.939V131.88H535.339C536.126 131.88 536.779 131.767 537.299 131.54C537.833 131.313 538.233 131 538.499 130.6C538.779 130.187 538.919 129.713 538.919 129.18C538.919 128.487 538.686 127.953 538.219 127.58C537.753 127.193 537.119 127 536.319 127C535.813 127 535.353 127.053 534.939 127.16C534.526 127.253 534.139 127.393 533.779 127.58C533.433 127.753 533.079 127.96 532.719 128.2L531.839 127C532.186 126.733 532.579 126.487 533.019 126.26C533.473 126.033 533.973 125.853 534.519 125.72C535.066 125.587 535.659 125.52 536.299 125.52C537.793 125.52 538.899 125.853 539.619 126.52C540.353 127.187 540.719 128.033 540.719 129.06ZM549.405 140H547.685V130.02C547.685 129.633 547.685 129.307 547.685 129.04C547.698 128.773 547.711 128.527 547.725 128.3C547.738 128.06 547.751 127.813 547.765 127.56C547.551 127.773 547.358 127.953 547.185 128.1C547.011 128.247 546.791 128.433 546.525 128.66L545.005 129.9L544.085 128.72L547.945 125.72H549.405V140ZM559.81 124.14C562.51 124.14 564.49 125.78 564.49 128.16C564.49 130.52 562.51 132.16 559.81 132.16C557.13 132.16 555.15 130.52 555.15 128.16C555.15 125.78 557.13 124.14 559.81 124.14ZM559.81 125.5C558.07 125.5 556.75 126.6 556.75 128.16C556.75 129.72 558.07 130.8 559.81 130.8C561.57 130.8 562.87 129.72 562.87 128.16C562.87 126.6 561.57 125.5 559.81 125.5ZM567.89 123.48H569.57V132.74H567.89V123.48ZM557.87 133.62H569.57V138.02H559.53V140.74H557.91V136.78H567.93V134.96H557.87V133.62ZM557.91 140H570.17V141.32H557.91V140ZM584.444 140H582.724V130.02C582.724 129.633 582.724 129.307 582.724 129.04C582.737 128.773 582.75 128.527 582.764 128.3C582.777 128.06 582.79 127.813 582.804 127.56C582.59 127.773 582.397 127.953 582.224 128.1C582.05 128.247 581.83 128.433 581.564 128.66L580.044 129.9L579.124 128.72L582.984 125.72H584.444V140ZM589.889 133.9C589.889 133.073 589.942 132.26 590.049 131.46C590.169 130.66 590.369 129.907 590.649 129.2C590.929 128.48 591.316 127.847 591.809 127.3C592.302 126.74 592.922 126.307 593.669 126C594.429 125.68 595.349 125.52 596.429 125.52C596.709 125.52 597.016 125.533 597.349 125.56C597.696 125.587 597.976 125.633 598.189 125.7V127.2C597.949 127.12 597.676 127.06 597.369 127.02C597.076 126.98 596.776 126.96 596.469 126.96C595.549 126.96 594.782 127.113 594.169 127.42C593.556 127.727 593.069 128.147 592.709 128.68C592.362 129.213 592.109 129.827 591.949 130.52C591.789 131.213 591.689 131.953 591.649 132.74H591.769C591.969 132.42 592.222 132.133 592.529 131.88C592.836 131.627 593.202 131.427 593.629 131.28C594.069 131.133 594.576 131.06 595.149 131.06C595.976 131.06 596.696 131.233 597.309 131.58C597.936 131.913 598.422 132.407 598.769 133.06C599.116 133.7 599.289 134.48 599.289 135.4C599.289 136.387 599.102 137.24 598.729 137.96C598.356 138.68 597.829 139.233 597.149 139.62C596.482 140.007 595.682 140.2 594.749 140.2C594.069 140.2 593.436 140.073 592.849 139.82C592.262 139.567 591.742 139.18 591.289 138.66C590.849 138.14 590.502 137.487 590.249 136.7C590.009 135.9 589.889 134.967 589.889 133.9ZM594.729 138.72C595.569 138.72 596.249 138.453 596.769 137.92C597.289 137.373 597.549 136.533 597.549 135.4C597.549 134.493 597.316 133.773 596.849 133.24C596.396 132.707 595.709 132.44 594.789 132.44C594.162 132.44 593.616 132.573 593.149 132.84C592.682 133.093 592.316 133.42 592.049 133.82C591.796 134.22 591.669 134.633 591.669 135.06C591.669 135.5 591.729 135.933 591.849 136.36C591.982 136.787 592.176 137.18 592.429 137.54C592.696 137.9 593.016 138.187 593.389 138.4C593.776 138.613 594.222 138.72 594.729 138.72ZM606.87 138.92C606.87 138.427 606.99 138.08 607.23 137.88C607.47 137.68 607.756 137.58 608.09 137.58C608.436 137.58 608.73 137.68 608.97 137.88C609.223 138.08 609.35 138.427 609.35 138.92C609.35 139.4 609.223 139.747 608.97 139.96C608.73 140.173 608.436 140.28 608.09 140.28C607.756 140.28 607.47 140.173 607.23 139.96C606.99 139.747 606.87 139.4 606.87 138.92ZM606.87 130.36C606.87 129.853 606.99 129.5 607.23 129.3C607.47 129.1 607.756 129 608.09 129C608.436 129 608.73 129.1 608.97 129.3C609.223 129.5 609.35 129.853 609.35 130.36C609.35 130.84 609.223 131.187 608.97 131.4C608.73 131.613 608.436 131.72 608.09 131.72C607.756 131.72 607.47 131.613 607.23 131.4C606.99 131.187 606.87 130.84 606.87 130.36ZM626.437 132.84C626.437 134 626.35 135.033 626.177 135.94C626.003 136.847 625.723 137.62 625.337 138.26C624.963 138.887 624.47 139.367 623.857 139.7C623.257 140.033 622.53 140.2 621.677 140.2C620.61 140.2 619.723 139.907 619.017 139.32C618.323 138.733 617.803 137.893 617.457 136.8C617.123 135.693 616.957 134.373 616.957 132.84C616.957 131.293 617.11 129.973 617.417 128.88C617.737 127.787 618.243 126.953 618.937 126.38C619.63 125.793 620.543 125.5 621.677 125.5C622.743 125.5 623.63 125.793 624.337 126.38C625.043 126.953 625.57 127.787 625.917 128.88C626.263 129.973 626.437 131.293 626.437 132.84ZM618.717 132.84C618.717 134.147 618.81 135.233 618.997 136.1C619.197 136.967 619.51 137.62 619.937 138.06C620.377 138.487 620.957 138.7 621.677 138.7C622.397 138.7 622.97 138.487 623.397 138.06C623.837 137.633 624.157 136.987 624.357 136.12C624.557 135.24 624.657 134.147 624.657 132.84C624.657 131.533 624.557 130.453 624.357 129.6C624.157 128.733 623.837 128.087 623.397 127.66C622.97 127.22 622.397 127 621.677 127C620.957 127 620.377 127.22 619.937 127.66C619.51 128.087 619.197 128.733 618.997 129.6C618.81 130.453 618.717 131.533 618.717 132.84ZM637.882 132.84C637.882 134 637.795 135.033 637.622 135.94C637.449 136.847 637.169 137.62 636.782 138.26C636.409 138.887 635.915 139.367 635.302 139.7C634.702 140.033 633.975 140.2 633.122 140.2C632.055 140.2 631.169 139.907 630.462 139.32C629.769 138.733 629.249 137.893 628.902 136.8C628.569 135.693 628.402 134.373 628.402 132.84C628.402 131.293 628.555 129.973 628.862 128.88C629.182 127.787 629.689 126.953 630.382 126.38C631.075 125.793 631.989 125.5 633.122 125.5C634.189 125.5 635.075 125.793 635.782 126.38C636.489 126.953 637.015 127.787 637.362 128.88C637.709 129.973 637.882 131.293 637.882 132.84ZM630.162 132.84C630.162 134.147 630.255 135.233 630.442 136.1C630.642 136.967 630.955 137.62 631.382 138.06C631.822 138.487 632.402 138.7 633.122 138.7C633.842 138.7 634.415 138.487 634.842 138.06C635.282 137.633 635.602 136.987 635.802 136.12C636.002 135.24 636.102 134.147 636.102 132.84C636.102 131.533 636.002 130.453 635.802 129.6C635.602 128.733 635.282 128.087 634.842 127.66C634.415 127.22 633.842 127 633.122 127C632.402 127 631.822 127.22 631.382 127.66C630.955 128.087 630.642 128.733 630.442 129.6C630.255 130.453 630.162 131.533 630.162 132.84Z" fill="black"/>
<path d="M429.76 170.48H431.36V188.56H429.76V170.48ZM426.9 177.64H430.36V179H426.9V177.64ZM425.76 170.86H427.34V187.66H425.76V170.86ZM416.64 172.56H423.54V183.72H416.64V172.56ZM421.98 173.88H418.2V182.4H421.98V173.88ZM434.378 180.84H450.778V182.2H434.378V180.84ZM441.698 181.68H443.338V188.56H441.698V181.68ZM442.538 171.2C446.318 171.2 448.858 172.74 448.858 175.16C448.858 177.58 446.318 179.12 442.538 179.12C438.778 179.12 436.218 177.58 436.218 175.16C436.218 172.74 438.778 171.2 442.538 171.2ZM442.538 172.54C439.778 172.54 437.898 173.56 437.898 175.16C437.898 176.76 439.778 177.78 442.538 177.78C445.298 177.78 447.158 176.76 447.158 175.16C447.158 173.56 445.298 172.54 442.538 172.54ZM465.312 179.52H466.972V182.68H465.312V179.52ZM457.972 178.94H474.312V180.28H457.972V178.94ZM466.132 182.18C470.012 182.18 472.332 183.32 472.332 185.36C472.332 187.38 470.012 188.52 466.132 188.52C462.252 188.52 459.932 187.38 459.932 185.36C459.932 183.32 462.252 182.18 466.132 182.18ZM466.132 183.46C463.312 183.46 461.612 184.14 461.612 185.36C461.612 186.56 463.312 187.24 466.132 187.24C468.972 187.24 470.652 186.56 470.652 185.36C470.652 184.14 468.972 183.46 466.132 183.46ZM465.072 171.96H466.552V172.5C466.552 175.42 463.232 177.38 459.492 177.84L458.892 176.52C462.132 176.18 465.072 174.56 465.072 172.5V171.96ZM465.772 171.96H467.232V172.5C467.232 174.56 470.172 176.18 473.412 176.52L472.812 177.84C469.072 177.38 465.772 175.42 465.772 172.5V171.96ZM459.472 171.3H472.852V172.64H459.472V171.3ZM480.391 179.78H482.031V185.2H480.391V179.78ZM487.071 179.78H488.731V185.2H487.071V179.78ZM476.391 184.88H492.771V186.26H476.391V184.88ZM484.551 171.62C488.371 171.62 491.111 173.44 491.111 176.28C491.111 179.1 488.371 180.92 484.551 180.92C480.711 180.92 477.971 179.1 477.971 176.28C477.971 173.44 480.711 171.62 484.551 171.62ZM484.551 172.94C481.651 172.94 479.571 174.26 479.571 176.28C479.571 178.28 481.651 179.6 484.551 179.6C487.451 179.6 489.511 178.28 489.511 176.28C489.511 174.26 487.451 172.94 484.551 172.94Z" fill="black"/>
<path d="M429.74 213.48H431.34V231.56H429.74V213.48ZM426.68 220.72H430.16V222.1H426.68V220.72ZM425.64 213.88H427.2V230.64H425.64V213.88ZM416.64 225.72H417.82C420.46 225.72 422.26 225.62 424.36 225.18L424.52 226.56C422.36 227.02 420.54 227.1 417.82 227.1H416.64V225.72ZM416.64 215.68H423.36V217.04H418.28V226.34H416.64V215.68ZM434.438 215.38H445.118V216.74H434.438V215.38ZM439.778 217.66C442.338 217.66 444.098 218.94 444.098 220.94C444.098 222.92 442.338 224.18 439.778 224.18C437.178 224.18 435.438 222.92 435.438 220.94C435.438 218.94 437.178 217.66 439.778 217.66ZM439.778 218.96C438.118 218.96 437.018 219.72 437.018 220.94C437.018 222.12 438.118 222.9 439.778 222.9C441.398 222.9 442.518 222.12 442.518 220.94C442.518 219.72 441.398 218.96 439.778 218.96ZM446.758 213.48H448.418V224.78H446.758V213.48ZM447.958 218.46H451.098V219.84H447.958V218.46ZM436.678 225.76H448.418V231.56H446.758V227.12H436.678V225.76ZM438.938 213.38H440.598V216.14H438.938V213.38ZM465.037 213.46H466.697V231.58H465.037V213.46ZM466.297 220.66H469.657V222.06H466.297V220.66ZM453.517 225.84H454.957C458.357 225.84 460.717 225.72 463.457 225.2L463.637 226.58C460.817 227.08 458.417 227.22 454.957 227.22H453.517V225.84ZM453.477 215.16H461.657V221.64H455.157V226.4H453.517V220.28H460.017V216.52H453.477V215.16ZM484.315 213.46H485.975V231.58H484.315V213.46ZM476.435 214.86C479.115 214.86 481.035 217.32 481.035 221.16C481.035 225.02 479.115 227.48 476.435 227.48C473.775 227.48 471.855 225.02 471.855 221.16C471.855 217.32 473.775 214.86 476.435 214.86ZM476.435 216.36C474.675 216.36 473.435 218.24 473.435 221.16C473.435 224.1 474.675 226.02 476.435 226.02C478.215 226.02 479.435 224.1 479.435 221.16C479.435 218.24 478.215 216.36 476.435 216.36ZM489.594 227.86H505.974V229.24H489.594V227.86ZM491.014 215.28H504.434V216.64H491.014V215.28ZM491.054 222.92H504.414V224.28H491.054V222.92ZM493.834 216.54H495.494V223.06H493.834V216.54ZM499.994 216.54H501.634V223.06H499.994V216.54ZM510.252 225.98H509.112L508.612 215.72H510.752L510.252 225.98ZM508.432 228.92C508.432 228.427 508.552 228.08 508.792 227.88C509.032 227.68 509.326 227.58 509.672 227.58C510.006 227.58 510.292 227.68 510.532 227.88C510.786 228.08 510.912 228.427 510.912 228.92C510.912 229.4 510.786 229.747 510.532 229.96C510.292 230.173 510.006 230.28 509.672 230.28C509.326 230.28 509.032 230.173 508.792 229.96C508.552 229.747 508.432 229.4 508.432 228.92ZM524.799 215.72L519.479 230H517.759L523.079 215.72H524.799ZM538.495 214.12H539.955V215.12C539.955 218.58 536.435 221.06 532.675 221.7L532.015 220.36C535.315 219.86 538.495 217.7 538.495 215.12V214.12ZM538.795 214.12H540.235V215.12C540.235 217.64 543.455 219.86 546.715 220.36L546.055 221.7C542.335 221.06 538.795 218.54 538.795 215.12V214.12ZM538.495 224.68H540.135V231.56H538.495V224.68ZM531.195 223.66H547.535V225.04H531.195V223.66ZM561.954 213.48H563.614V224.3H561.954V213.48ZM563.154 218.14H566.294V219.54H563.154V218.14ZM556.954 214.8H558.734C558.734 219.44 555.514 222.82 550.294 224.36L549.594 223.02C554.194 221.66 556.954 218.94 556.954 215.56V214.8ZM550.394 214.8H557.894V216.18H550.394V214.8ZM557.954 224.52C561.534 224.52 563.814 225.84 563.814 228.02C563.814 230.2 561.534 231.52 557.954 231.52C554.354 231.52 552.054 230.2 552.054 228.02C552.054 225.84 554.354 224.52 557.954 224.52ZM557.954 225.84C555.354 225.84 553.694 226.66 553.694 228.02C553.694 229.38 555.354 230.2 557.954 230.2C560.554 230.2 562.214 229.38 562.214 228.02C562.214 226.66 560.554 225.84 557.954 225.84ZM581.132 213.5H582.812V226.74H581.132V213.5ZM571.192 229.8H583.352V231.16H571.192V229.8ZM571.192 225.52H572.832V230.44H571.192V225.52ZM572.692 214.48H574.072V216.32C574.072 219.84 572.072 222.92 569.032 224.16L568.172 222.82C570.892 221.76 572.692 219.12 572.692 216.32V214.48ZM572.992 214.48H574.352V216.32C574.352 219.04 576.172 221.5 578.872 222.48L577.992 223.82C574.992 222.66 572.992 219.76 572.992 216.32V214.48ZM590.891 216.56H592.251V217.34C592.251 220.48 590.251 223.12 587.231 224.14L586.431 222.84C589.091 221.98 590.891 219.78 590.891 217.34V216.56ZM591.191 216.56H592.551V217.34C592.551 219.58 594.411 221.6 597.071 222.38L596.311 223.68C593.271 222.74 591.191 220.3 591.191 217.34V216.56ZM586.891 215.66H596.531V217H586.891V215.66ZM590.891 213.4H592.551V216.14H590.891V213.4ZM595.991 218.62H600.071V220H595.991V218.62ZM599.591 213.48H601.251V224.42H599.591V213.48ZM595.311 224.9C599.051 224.9 601.331 226.12 601.331 228.22C601.331 230.3 599.051 231.52 595.311 231.52C591.551 231.52 589.271 230.3 589.271 228.22C589.271 226.12 591.551 224.9 595.311 224.9ZM595.311 226.2C592.571 226.2 590.931 226.94 590.931 228.22C590.931 229.48 592.571 230.22 595.311 230.22C598.031 230.22 599.691 229.48 599.691 228.22C599.691 226.94 598.031 226.2 595.311 226.2Z" fill="black"/>
<path d="M418.06 270.08H419.62V272.34H422.78V270.08H424.32V277.32H418.06V270.08ZM419.62 273.58V276.02H422.78V273.58H419.62ZM427.82 269.98H429.1V271.48C429.1 273.94 427.86 276.42 425.36 277.48L424.52 276.22C426.7 275.3 427.82 273.32 427.82 271.48V269.98ZM428.16 269.98H429.44V271.48C429.44 273.42 430.56 275.38 432.74 276.22L431.9 277.48C429.38 276.44 428.16 274.04 428.16 271.48V269.98ZM425.08 263.72H429.94V265.1H425.08V263.72ZM420.92 260.28C423.62 260.28 425.58 261.96 425.58 264.44C425.58 266.9 423.62 268.6 420.92 268.6C418.22 268.6 416.26 266.9 416.26 264.44C416.26 261.96 418.22 260.28 420.92 260.28ZM420.92 261.66C419.14 261.66 417.86 262.8 417.86 264.44C417.86 266.06 419.14 267.22 420.92 267.22C422.7 267.22 423.98 266.06 423.98 264.44C423.98 262.8 422.7 261.66 420.92 261.66ZM429.2 259.48H430.86V269.06H429.2V259.48ZM442.558 259.88C446.458 259.88 448.918 261.16 448.918 263.3C448.918 265.44 446.458 266.7 442.558 266.7C438.638 266.7 436.198 265.44 436.198 263.3C436.198 261.16 438.638 259.88 442.558 259.88ZM442.558 261.2C439.678 261.2 437.898 261.96 437.898 263.3C437.898 264.62 439.678 265.4 442.558 265.4C445.418 265.4 447.218 264.62 447.218 263.3C447.218 261.96 445.418 261.2 442.558 261.2ZM436.378 271.36H448.718V277.32H436.378V271.36ZM447.098 272.7H438.018V275.98H447.098V272.7ZM434.378 268.26H450.718V269.6H434.378V268.26Z" fill="#A4A4A4"/>
<circle cx="319" cy="39" r="10.5" stroke="#2E61DC" stroke-width="3"/>
<path d="M346.76 32.04H348.12V35.28C348.12 39.44 345.88 43.3 342.92 44.8L341.9 43.44C344.58 42.16 346.76 38.7 346.76 35.28V32.04ZM347.04 32.04H348.4V35.28C348.4 38.58 350.56 41.9 353.24 43.14L352.24 44.46C349.3 43.02 347.04 39.3 347.04 35.28V32.04ZM355.12 30.46H356.78V48.58H355.12V30.46ZM372.758 30.48H374.418V43.7H372.758V30.48ZM373.898 35.96H377.098V37.34H373.898V35.96ZM367.818 31.88H369.578C369.578 36.56 366.298 39.98 361.118 41.64L360.398 40.28C364.958 38.88 367.818 36.08 367.818 32.6V31.88ZM361.138 31.88H368.658V33.24H361.138V31.88ZM363.138 46.8H375.218V48.16H363.138V46.8ZM363.138 42.36H364.798V47.34H363.138V42.36ZM383.317 40.28H384.977V45.44H383.317V40.28ZM388.897 40.28H390.537V45.44H388.897V40.28ZM378.797 45H395.177V46.38H378.797V45ZM380.217 32.14H393.637V33.5H380.217V32.14ZM380.257 39.38H393.617V40.72H380.257V39.38ZM383.037 33.24H384.697V39.66H383.037V33.24ZM389.197 33.24H390.837V39.66H389.197V33.24ZM415.051 30.48H416.711V48.56H415.051V30.48ZM415.871 37.66H419.211V39.06H415.871V37.66ZM404.931 33.16H406.151V35.84C406.151 39 405.511 42.94 403.191 44.76L402.131 43.56C404.331 41.88 404.931 38.42 404.931 35.84V33.16ZM405.271 33.16H406.491V35.84C406.491 38.18 406.891 41.84 409.151 43.68L408.231 44.94C405.751 43 405.271 38.7 405.271 35.84V33.16ZM409.951 33.16H411.171V35.84C411.171 38.86 410.671 43.04 408.231 44.94L407.291 43.68C409.551 41.9 409.951 38.32 409.951 35.84V33.16ZM410.291 33.16H411.551V35.84C411.551 38.54 412.131 41.92 414.351 43.56L413.291 44.76C410.951 42.96 410.291 39.1 410.291 35.84V33.16ZM402.711 32.3H407.851V33.68H402.711V32.3ZM408.611 32.3H413.611V33.68H408.611V32.3ZM433.949 30.48H435.609V48.56H433.949V30.48ZM428.649 32.42H430.289C430.289 37.66 427.929 42.24 421.889 45.2L421.009 43.86C426.229 41.34 428.649 37.5 428.649 32.7V32.42ZM421.829 32.42H429.369V33.78H421.829V32.42Z" fill="black"/>
<path d="M806 33H808H824" stroke="#FF4A03" stroke-width="2" stroke-linecap="round" stroke-linejoin="round"/>
<path d="M822 33V47C822 47.5304 821.789 48.0391 821.414 48.4142C821.039 48.7893 820.53 49 820 49H810C809.47 49 808.961 48.7893 808.586 48.4142C808.211 48.0391 808 47.5304 808 47V33M811 33V31C811 30.4696 811.211 29.9609 811.586 29.5858C811.961 29.2107 812.47 29 813 29H817C817.53 29 818.039 29.2107 818.414 29.5858C818.789 29.9609 819 30.4696 819 31V33" stroke="#FF4A03" stroke-width="2" stroke-linecap="round" stroke-linejoin="round"/>
<path d="M813 38V44" stroke="#FF4A03" stroke-width="2" stroke-linecap="round" stroke-linejoin="round"/>
<path d="M817 38V44" stroke="#FF4A03" stroke-width="2" stroke-linecap="round" stroke-linejoin="round"/>
<defs>
<clipPath id="clip0_721_4674">
<rect width="445" height="366" fill="white" transform="translate(0 92)"/>
</clipPath>
<clipPath id="clip1_721_4674">
<rect width="24" height="25" fill="white" transform="translate(341 119)"/>
</clipPath>
</defs>
</svg>
