<svg width="307" height="323" viewBox="0 0 307 323" fill="none" xmlns="http://www.w3.org/2000/svg">
<rect x="102" width="191" height="74" rx="15" fill="#F2F2F2"/>
<rect x="95" y="246" width="178" height="77" rx="15" fill="#F2F2F2"/>
<rect y="112" width="189" height="74" rx="15" fill="#F2F2F2"/>
<path d="M161.76 20.04H163.12V23.28C163.12 27.44 160.88 31.3 157.92 32.8L156.9 31.44C159.58 30.16 161.76 26.7 161.76 23.28V20.04ZM162.04 20.04H163.4V23.28C163.4 26.58 165.56 29.9 168.24 31.14L167.24 32.46C164.3 31.02 162.04 27.3 162.04 23.28V20.04ZM170.12 18.46H171.78V36.58H170.12V18.46ZM187.758 18.48H189.418V31.7H187.758V18.48ZM188.898 23.96H192.098V25.34H188.898V23.96ZM182.818 19.88H184.578C184.578 24.56 181.298 27.98 176.118 29.64L175.398 28.28C179.958 26.88 182.818 24.08 182.818 20.6V19.88ZM176.138 19.88H183.658V21.24H176.138V19.88ZM178.138 34.8H190.218V36.16H178.138V34.8ZM178.138 30.36H179.798V35.34H178.138V30.36ZM198.317 28.28H199.977V33.44H198.317V28.28ZM203.897 28.28H205.537V33.44H203.897V28.28ZM193.797 33H210.177V34.38H193.797V33ZM195.217 20.14H208.637V21.5H195.217V20.14ZM195.257 27.38H208.617V28.72H195.257V27.38ZM198.037 21.24H199.697V27.66H198.037V21.24ZM204.197 21.24H205.837V27.66H204.197V21.24ZM230.051 18.48H231.711V36.56H230.051V18.48ZM230.871 25.66H234.211V27.06H230.871V25.66ZM219.931 21.16H221.151V23.84C221.151 27 220.511 30.94 218.191 32.76L217.131 31.56C219.331 29.88 219.931 26.42 219.931 23.84V21.16ZM220.271 21.16H221.491V23.84C221.491 26.18 221.891 29.84 224.151 31.68L223.231 32.94C220.751 31 220.271 26.7 220.271 23.84V21.16ZM224.951 21.16H226.171V23.84C226.171 26.86 225.671 31.04 223.231 32.94L222.291 31.68C224.551 29.9 224.951 26.32 224.951 23.84V21.16ZM225.291 21.16H226.551V23.84C226.551 26.54 227.131 29.92 229.351 31.56L228.291 32.76C225.951 30.96 225.291 27.1 225.291 23.84V21.16ZM217.711 20.3H222.851V21.68H217.711V20.3ZM223.611 20.3H228.611V21.68H223.611V20.3ZM248.949 18.48H250.609V36.56H248.949V18.48ZM243.649 20.42H245.289C245.289 25.66 242.929 30.24 236.889 33.2L236.009 31.86C241.229 29.34 243.649 25.5 243.649 20.7V20.42ZM236.829 20.42H244.369V21.78H236.829V20.42Z" fill="black"/>
<circle cx="134" cy="27" r="10.5" stroke="#2E61DC" stroke-width="3"/>
<path d="M164.408 50.905H165.487V53.83H164.408V50.905ZM164.954 45.029C167.437 45.029 169.218 46.238 169.218 48.11C169.218 49.982 167.437 51.191 164.954 51.191C162.471 51.191 160.677 49.982 160.677 48.11C160.677 46.238 162.471 45.029 164.954 45.029ZM164.954 45.887C163.082 45.887 161.717 46.771 161.717 48.11C161.717 49.449 163.082 50.333 164.954 50.333C166.813 50.333 168.178 49.449 168.178 48.11C168.178 46.771 166.813 45.887 164.954 45.887ZM159.65 53.622H170.297V54.519H159.65V53.622ZM173.039 47.057H181.008V47.941H173.039V47.057ZM171.596 49.072H182.256V49.956H171.596V49.072ZM173.039 44.431H174.092V47.46H173.039V44.431ZM172.922 51.009H180.904V53.765H174.014V55.286H172.948V52.959H179.825V51.841H172.922V51.009ZM172.948 55.013H181.294V55.858H172.948V55.013Z" fill="#FF4A03"/>
<path d="M189.402 45.12H190.351V58.133H189.402V45.12ZM203.631 50.346C203.631 51.1 203.575 51.7717 203.462 52.361C203.349 52.9503 203.167 53.453 202.916 53.869C202.673 54.2763 202.353 54.5883 201.954 54.805C201.564 55.0217 201.092 55.13 200.537 55.13C199.844 55.13 199.267 54.9393 198.808 54.558C198.357 54.1767 198.019 53.6307 197.794 52.92C197.577 52.2007 197.469 51.3427 197.469 50.346C197.469 49.3407 197.569 48.4827 197.768 47.772C197.976 47.0613 198.305 46.5197 198.756 46.147C199.207 45.7657 199.8 45.575 200.537 45.575C201.23 45.575 201.807 45.7657 202.266 46.147C202.725 46.5197 203.068 47.0613 203.293 47.772C203.518 48.4827 203.631 49.3407 203.631 50.346ZM198.613 50.346C198.613 51.1953 198.674 51.9017 198.795 52.465C198.925 53.0283 199.129 53.453 199.406 53.739C199.692 54.0163 200.069 54.155 200.537 54.155C201.005 54.155 201.378 54.0163 201.655 53.739C201.941 53.4617 202.149 53.0413 202.279 52.478C202.409 51.906 202.474 51.1953 202.474 50.346C202.474 49.4967 202.409 48.7947 202.279 48.24C202.149 47.6767 201.941 47.2563 201.655 46.979C201.378 46.693 201.005 46.55 200.537 46.55C200.069 46.55 199.692 46.693 199.406 46.979C199.129 47.2563 198.925 47.6767 198.795 48.24C198.674 48.7947 198.613 49.4967 198.613 50.346ZM208.886 55H207.768V48.513C207.768 48.2617 207.768 48.0493 207.768 47.876C207.777 47.7027 207.786 47.5423 207.794 47.395C207.803 47.239 207.812 47.0787 207.82 46.914C207.682 47.0527 207.556 47.1697 207.443 47.265C207.331 47.3603 207.188 47.4817 207.014 47.629L206.026 48.435L205.428 47.668L207.937 45.718H208.886V55ZM215.507 49.124H216.586V51.217H215.507V49.124ZM220.902 44.262H221.981V51.178H220.902V44.262ZM212.452 49.488L212.322 48.682C214.584 48.682 217.457 48.669 219.966 48.383L220.031 49.085C217.457 49.462 214.649 49.488 212.452 49.488ZM214.103 51.607H221.981V54.051H215.182V55.377H214.129V53.336H220.915V52.387H214.103V51.607ZM214.129 55.104H222.371V55.884H214.129V55.104ZM218.562 49.852H221.24V50.554H218.562V49.852ZM216.118 44.483C217.86 44.483 219.004 45.159 219.004 46.251C219.004 47.343 217.86 48.019 216.118 48.019C214.363 48.019 213.219 47.343 213.219 46.251C213.219 45.159 214.363 44.483 216.118 44.483ZM216.118 45.237C214.961 45.237 214.22 45.627 214.22 46.251C214.22 46.875 214.961 47.265 216.118 47.265C217.249 47.265 217.99 46.875 217.99 46.251C217.99 45.627 217.249 45.237 216.118 45.237ZM233.456 47.889C233.456 48.305 233.378 48.6647 233.222 48.968C233.066 49.2713 232.841 49.5183 232.546 49.709C232.26 49.8997 231.922 50.034 231.532 50.112V50.164C232.277 50.2507 232.832 50.4847 233.196 50.866C233.56 51.2473 233.742 51.7457 233.742 52.361C233.742 52.8983 233.616 53.3793 233.365 53.804C233.114 54.22 232.724 54.545 232.195 54.779C231.675 55.013 231.003 55.13 230.18 55.13C229.695 55.13 229.244 55.091 228.828 55.013C228.412 54.9437 228.013 54.8137 227.632 54.623V53.557C228.022 53.7477 228.442 53.8993 228.893 54.012C229.344 54.116 229.777 54.168 230.193 54.168C231.025 54.168 231.623 54.0077 231.987 53.687C232.36 53.3577 232.546 52.907 232.546 52.335C232.546 51.945 232.442 51.633 232.234 51.399C232.035 51.1563 231.74 50.9787 231.35 50.866C230.96 50.7533 230.492 50.697 229.946 50.697H229.049V49.722H229.959C230.47 49.722 230.895 49.6483 231.233 49.501C231.58 49.3537 231.84 49.15 232.013 48.89C232.195 48.6213 232.286 48.3137 232.286 47.967C232.286 47.5163 232.134 47.1697 231.831 46.927C231.528 46.6757 231.116 46.55 230.596 46.55C230.267 46.55 229.968 46.5847 229.699 46.654C229.43 46.7147 229.179 46.8057 228.945 46.927C228.72 47.0397 228.49 47.174 228.256 47.33L227.684 46.55C227.909 46.3767 228.165 46.2163 228.451 46.069C228.746 45.9217 229.071 45.8047 229.426 45.718C229.781 45.6313 230.167 45.588 230.583 45.588C231.554 45.588 232.273 45.8047 232.741 46.238C233.218 46.6713 233.456 47.2217 233.456 47.889ZM241.285 50.346C241.285 51.1 241.229 51.7717 241.116 52.361C241.004 52.9503 240.822 53.453 240.57 53.869C240.328 54.2763 240.007 54.5883 239.608 54.805C239.218 55.0217 238.746 55.13 238.191 55.13C237.498 55.13 236.922 54.9393 236.462 54.558C236.012 54.1767 235.674 53.6307 235.448 52.92C235.232 52.2007 235.123 51.3427 235.123 50.346C235.123 49.3407 235.223 48.4827 235.422 47.772C235.63 47.0613 235.96 46.5197 236.41 46.147C236.861 45.7657 237.455 45.575 238.191 45.575C238.885 45.575 239.461 45.7657 239.92 46.147C240.38 46.5197 240.722 47.0613 240.947 47.772C241.173 48.4827 241.285 49.3407 241.285 50.346ZM236.267 50.346C236.267 51.1953 236.328 51.9017 236.449 52.465C236.579 53.0283 236.783 53.453 237.06 53.739C237.346 54.0163 237.723 54.155 238.191 54.155C238.659 54.155 239.032 54.0163 239.309 53.739C239.595 53.4617 239.803 53.0413 239.933 52.478C240.063 51.906 240.128 51.1953 240.128 50.346C240.128 49.4967 240.063 48.7947 239.933 48.24C239.803 47.6767 239.595 47.2563 239.309 46.979C239.032 46.693 238.659 46.55 238.191 46.55C237.723 46.55 237.346 46.693 237.06 46.979C236.783 47.2563 236.579 47.6767 236.449 48.24C236.328 48.7947 236.267 49.4967 236.267 50.346ZM245.865 44.691C247.62 44.691 248.907 45.757 248.907 47.304C248.907 48.838 247.62 49.904 245.865 49.904C244.123 49.904 242.836 48.838 242.836 47.304C242.836 45.757 244.123 44.691 245.865 44.691ZM245.865 45.575C244.734 45.575 243.876 46.29 243.876 47.304C243.876 48.318 244.734 49.02 245.865 49.02C247.009 49.02 247.854 48.318 247.854 47.304C247.854 46.29 247.009 45.575 245.865 45.575ZM251.117 44.262H252.209V50.281H251.117V44.262ZM244.604 50.853H252.209V53.713H245.683V55.481H244.63V52.907H251.143V51.724H244.604V50.853ZM244.63 55H252.599V55.858H244.63V55Z" fill="black"/>
<path d="M61.28 140.74H65.9V142.12H61.28V140.74ZM65.2 137.48H66.86V146.8H65.2V137.48ZM55.22 147.74H66.86V152.06H56.9V154.8H55.28V150.82H65.22V149.06H55.22V147.74ZM55.28 154H67.54V155.32H55.28V154ZM56.5 138.04H57.86V139.74C57.86 143.08 55.86 145.78 52.84 146.86L51.98 145.54C54.7 144.62 56.5 142.36 56.5 139.74V138.04ZM56.78 138.04H58.12V139.74C58.12 142.1 59.94 144.28 62.56 145.14L61.7 146.44C58.78 145.4 56.78 142.8 56.78 139.74V138.04ZM83.5984 137.48H85.2584V155.56H83.5984V137.48ZM79.3784 144.72H84.3384V146.1H79.3784V144.72ZM77.7984 139.42H79.4384C79.4384 144.58 77.2984 149.14 71.2984 152.14L70.3784 150.84C75.6384 148.26 77.7984 144.42 77.7984 139.7V139.42ZM71.1584 139.42H78.6784V140.78H71.1584V139.42ZM93.5769 140.06H94.9169V143C94.9169 146.82 92.6169 150.66 89.7369 152.08L88.7769 150.76C91.3969 149.52 93.5769 146.12 93.5769 143V140.06ZM93.8969 140.06H95.2369V143C95.2369 146.06 97.4169 149.18 100.077 150.32L99.1369 151.64C96.2169 150.28 93.8969 146.76 93.8969 143V140.06ZM89.3769 139.32H99.4769V140.72H89.3769V139.32ZM101.917 137.48H103.577V155.56H101.917V137.48ZM119.435 137.48H121.095V155.56H119.435V137.48ZM120.695 144.9H124.055V146.3H120.695V144.9ZM107.095 140.36H117.755V141.72H107.095V140.36ZM112.495 143.22C115.055 143.22 116.895 144.94 116.895 147.38C116.895 149.82 115.055 151.54 112.495 151.54C109.955 151.54 108.095 149.82 108.095 147.38C108.095 144.94 109.955 143.22 112.495 143.22ZM112.495 144.6C110.855 144.6 109.675 145.74 109.675 147.38C109.675 149 110.855 150.16 112.495 150.16C114.135 150.16 115.315 149 115.315 147.38C115.315 145.74 114.135 144.6 112.495 144.6ZM111.635 137.7H113.295V140.98H111.635V137.7ZM138.754 137.48H140.414V155.56H138.754V137.48ZM133.454 139.42H135.094C135.094 144.66 132.734 149.24 126.694 152.2L125.814 150.86C131.034 148.34 133.454 144.5 133.454 139.7V139.42ZM126.634 139.42H134.174V140.78H126.634V139.42Z" fill="#A4A4A4"/>
<circle cx="29" cy="146" r="10.5" stroke="#A4A4A4" stroke-width="3"/>
<path d="M34.3337 143L27.0003 150.333L23.667 147" stroke="#A4A4A4" stroke-width="2" stroke-linecap="round" stroke-linejoin="round"/>
<g clip-path="url(#clip0_264_9969)">
<path d="M157.222 148.474C156.439 149.017 155.485 149.318 154.5 149.333C151.291 149.333 149.458 145.999 149.458 145.999C150.028 145.033 150.819 144.19 151.777 143.524M153.537 142.766C153.853 142.699 154.176 142.665 154.5 142.666C157.708 142.666 159.541 145.999 159.541 145.999C159.263 146.473 158.931 146.918 158.551 147.329M155.471 146.883C155.345 147.006 155.194 147.104 155.025 147.172C154.856 147.241 154.674 147.277 154.49 147.28C154.305 147.283 154.122 147.252 153.95 147.19C153.779 147.127 153.624 147.033 153.493 146.914C153.363 146.796 153.26 146.654 153.19 146.499C153.121 146.343 153.087 146.176 153.091 146.008C153.094 145.841 153.134 145.675 153.209 145.522C153.285 145.368 153.393 145.23 153.528 145.116" stroke="#A4A4A4" stroke-linecap="round" stroke-linejoin="round"/>
<path d="M149.458 141.416L159.541 150.583" stroke="#A4A4A4" stroke-linecap="round" stroke-linejoin="round"/>
</g>
<path d="M157.3 268.12H158.76V269.12C158.76 272.58 155.24 275.06 151.48 275.7L150.82 274.36C154.12 273.86 157.3 271.7 157.3 269.12V268.12ZM157.6 268.12H159.04V269.12C159.04 271.64 162.26 273.86 165.52 274.36L164.86 275.7C161.14 275.06 157.6 272.54 157.6 269.12V268.12ZM157.3 278.68H158.94V285.56H157.3V278.68ZM150 277.66H166.34V279.04H150V277.66ZM180.758 267.48H182.418V278.3H180.758V267.48ZM181.958 272.14H185.098V273.54H181.958V272.14ZM175.758 268.8H177.538C177.538 273.44 174.318 276.82 169.098 278.36L168.398 277.02C172.998 275.66 175.758 272.94 175.758 269.56V268.8ZM169.198 268.8H176.698V270.18H169.198V268.8ZM176.758 278.52C180.338 278.52 182.618 279.84 182.618 282.02C182.618 284.2 180.338 285.52 176.758 285.52C173.158 285.52 170.858 284.2 170.858 282.02C170.858 279.84 173.158 278.52 176.758 278.52ZM176.758 279.84C174.158 279.84 172.498 280.66 172.498 282.02C172.498 283.38 174.158 284.2 176.758 284.2C179.358 284.2 181.018 283.38 181.018 282.02C181.018 280.66 179.358 279.84 176.758 279.84ZM199.937 267.5H201.617V280.74H199.937V267.5ZM189.997 283.8H202.157V285.16H189.997V283.8ZM189.997 279.52H191.637V284.44H189.997V279.52ZM191.497 268.48H192.877V270.32C192.877 273.84 190.877 276.92 187.837 278.16L186.977 276.82C189.697 275.76 191.497 273.12 191.497 270.32V268.48ZM191.797 268.48H193.157V270.32C193.157 273.04 194.977 275.5 197.677 276.48L196.797 277.82C193.797 276.66 191.797 273.76 191.797 270.32V268.48ZM209.695 270.56H211.055V271.34C211.055 274.48 209.055 277.12 206.035 278.14L205.235 276.84C207.895 275.98 209.695 273.78 209.695 271.34V270.56ZM209.995 270.56H211.355V271.34C211.355 273.58 213.215 275.6 215.875 276.38L215.115 277.68C212.075 276.74 209.995 274.3 209.995 271.34V270.56ZM205.695 269.66H215.335V271H205.695V269.66ZM209.695 267.4H211.355V270.14H209.695V267.4ZM214.795 272.62H218.875V274H214.795V272.62ZM218.395 267.48H220.055V278.42H218.395V267.48ZM214.115 278.9C217.855 278.9 220.135 280.12 220.135 282.22C220.135 284.3 217.855 285.52 214.115 285.52C210.355 285.52 208.075 284.3 208.075 282.22C208.075 280.12 210.355 278.9 214.115 278.9ZM214.115 280.2C211.375 280.2 209.735 280.94 209.735 282.22C209.735 283.48 211.375 284.22 214.115 284.22C216.835 284.22 218.495 283.48 218.495 282.22C218.495 280.94 216.835 280.2 214.115 280.2Z" fill="black"/>
<circle cx="127" cy="276" r="10.5" stroke="#2E61DC" stroke-width="3"/>
<path d="M158.799 299.346C158.799 300.1 158.743 300.772 158.63 301.361C158.517 301.95 158.335 302.453 158.084 302.869C157.841 303.276 157.521 303.588 157.122 303.805C156.732 304.022 156.26 304.13 155.705 304.13C155.012 304.13 154.435 303.939 153.976 303.558C153.525 303.177 153.187 302.631 152.962 301.92C152.745 301.201 152.637 300.343 152.637 299.346C152.637 298.341 152.737 297.483 152.936 296.772C153.144 296.061 153.473 295.52 153.924 295.147C154.375 294.766 154.968 294.575 155.705 294.575C156.398 294.575 156.975 294.766 157.434 295.147C157.893 295.52 158.236 296.061 158.461 296.772C158.686 297.483 158.799 298.341 158.799 299.346ZM153.781 299.346C153.781 300.195 153.842 300.902 153.963 301.465C154.093 302.028 154.297 302.453 154.574 302.739C154.86 303.016 155.237 303.155 155.705 303.155C156.173 303.155 156.546 303.016 156.823 302.739C157.109 302.462 157.317 302.041 157.447 301.478C157.577 300.906 157.642 300.195 157.642 299.346C157.642 298.497 157.577 297.795 157.447 297.24C157.317 296.677 157.109 296.256 156.823 295.979C156.546 295.693 156.173 295.55 155.705 295.55C155.237 295.55 154.86 295.693 154.574 295.979C154.297 296.256 154.093 296.677 153.963 297.24C153.842 297.795 153.781 298.497 153.781 299.346ZM166.199 304H160.063V303.051L162.494 300.594C162.962 300.126 163.357 299.71 163.677 299.346C163.998 298.982 164.241 298.627 164.405 298.28C164.57 297.925 164.652 297.539 164.652 297.123C164.652 296.612 164.501 296.226 164.197 295.966C163.894 295.697 163.5 295.563 163.014 295.563C162.564 295.563 162.165 295.641 161.818 295.797C161.48 295.953 161.134 296.17 160.778 296.447L160.167 295.68C160.41 295.472 160.674 295.286 160.96 295.121C161.255 294.956 161.571 294.826 161.909 294.731C162.256 294.636 162.624 294.588 163.014 294.588C163.595 294.588 164.093 294.688 164.509 294.887C164.925 295.086 165.246 295.372 165.471 295.745C165.705 296.109 165.822 296.547 165.822 297.058C165.822 297.422 165.766 297.769 165.653 298.098C165.541 298.419 165.38 298.735 165.172 299.047C164.964 299.359 164.713 299.675 164.418 299.996C164.124 300.317 163.799 300.65 163.443 300.997L161.506 302.908V302.96H166.199V304ZM170.675 298.124H171.754V300.217H170.675V298.124ZM176.07 293.262H177.149V300.178H176.07V293.262ZM167.62 298.488L167.49 297.682C169.752 297.682 172.625 297.669 175.134 297.383L175.199 298.085C172.625 298.462 169.817 298.488 167.62 298.488ZM169.271 300.607H177.149V303.051H170.35V304.377H169.297V302.336H176.083V301.387H169.271V300.607ZM169.297 304.104H177.539V304.884H169.297V304.104ZM173.73 298.852H176.408V299.554H173.73V298.852ZM171.286 293.483C173.028 293.483 174.172 294.159 174.172 295.251C174.172 296.343 173.028 297.019 171.286 297.019C169.531 297.019 168.387 296.343 168.387 295.251C168.387 294.159 169.531 293.483 171.286 293.483ZM171.286 294.237C170.129 294.237 169.388 294.627 169.388 295.251C169.388 295.875 170.129 296.265 171.286 296.265C172.417 296.265 173.158 295.875 173.158 295.251C173.158 294.627 172.417 294.237 171.286 294.237ZM188.975 304H182.839V303.051L185.27 300.594C185.738 300.126 186.132 299.71 186.453 299.346C186.774 298.982 187.016 298.627 187.181 298.28C187.346 297.925 187.428 297.539 187.428 297.123C187.428 296.612 187.276 296.226 186.973 295.966C186.67 295.697 186.275 295.563 185.79 295.563C185.339 295.563 184.941 295.641 184.594 295.797C184.256 295.953 183.909 296.17 183.554 296.447L182.943 295.68C183.186 295.472 183.45 295.286 183.736 295.121C184.031 294.956 184.347 294.826 184.685 294.731C185.032 294.636 185.4 294.588 185.79 294.588C186.371 294.588 186.869 294.688 187.285 294.887C187.701 295.086 188.022 295.372 188.247 295.745C188.481 296.109 188.598 296.547 188.598 297.058C188.598 297.422 188.542 297.769 188.429 298.098C188.316 298.419 188.156 298.735 187.948 299.047C187.74 299.359 187.489 299.675 187.194 299.996C186.899 300.317 186.574 300.65 186.219 300.997L184.282 302.908V302.96H188.975V304ZM190.369 300.035C190.369 299.498 190.404 298.969 190.473 298.449C190.551 297.929 190.681 297.439 190.863 296.98C191.045 296.512 191.297 296.1 191.617 295.745C191.938 295.381 192.341 295.099 192.826 294.9C193.32 294.692 193.918 294.588 194.62 294.588C194.802 294.588 195.002 294.597 195.218 294.614C195.444 294.631 195.626 294.662 195.764 294.705V295.68C195.608 295.628 195.431 295.589 195.231 295.563C195.041 295.537 194.846 295.524 194.646 295.524C194.048 295.524 193.55 295.624 193.151 295.823C192.753 296.022 192.436 296.295 192.202 296.642C191.977 296.989 191.812 297.387 191.708 297.838C191.604 298.289 191.539 298.77 191.513 299.281H191.591C191.721 299.073 191.886 298.887 192.085 298.722C192.285 298.557 192.523 298.427 192.8 298.332C193.086 298.237 193.416 298.189 193.788 298.189C194.326 298.189 194.794 298.302 195.192 298.527C195.6 298.744 195.916 299.064 196.141 299.489C196.367 299.905 196.479 300.412 196.479 301.01C196.479 301.651 196.358 302.206 196.115 302.674C195.873 303.142 195.53 303.502 195.088 303.753C194.655 304.004 194.135 304.13 193.528 304.13C193.086 304.13 192.675 304.048 192.293 303.883C191.912 303.718 191.574 303.467 191.279 303.129C190.993 302.791 190.768 302.366 190.603 301.855C190.447 301.335 190.369 300.728 190.369 300.035ZM193.515 303.168C194.061 303.168 194.503 302.995 194.841 302.648C195.179 302.293 195.348 301.747 195.348 301.01C195.348 300.421 195.197 299.953 194.893 299.606C194.599 299.259 194.152 299.086 193.554 299.086C193.147 299.086 192.792 299.173 192.488 299.346C192.185 299.511 191.947 299.723 191.773 299.983C191.609 300.243 191.526 300.512 191.526 300.789C191.526 301.075 191.565 301.357 191.643 301.634C191.73 301.911 191.856 302.167 192.02 302.401C192.194 302.635 192.402 302.821 192.644 302.96C192.896 303.099 193.186 303.168 193.515 303.168ZM201.033 293.691C202.788 293.691 204.075 294.757 204.075 296.304C204.075 297.838 202.788 298.904 201.033 298.904C199.291 298.904 198.004 297.838 198.004 296.304C198.004 294.757 199.291 293.691 201.033 293.691ZM201.033 294.575C199.902 294.575 199.044 295.29 199.044 296.304C199.044 297.318 199.902 298.02 201.033 298.02C202.177 298.02 203.022 297.318 203.022 296.304C203.022 295.29 202.177 294.575 201.033 294.575ZM206.285 293.262H207.377V299.281H206.285V293.262ZM199.772 299.853H207.377V302.713H200.851V304.481H199.798V301.907H206.311V300.724H199.772V299.853ZM199.798 304H207.767V304.858H199.798V304Z" fill="black"/>
<path d="M101 280H101.016" stroke="#FF4A03" stroke-width="2.5" stroke-linecap="round" stroke-linejoin="round"/>
<path d="M101 271V276" stroke="#FF4A03" stroke-width="2.5" stroke-linecap="round" stroke-linejoin="round"/>
<path d="M107 271V276" stroke="#FF4A03" stroke-width="2.5" stroke-linecap="round" stroke-linejoin="round"/>
<path d="M107 280H107.016" stroke="#FF4A03" stroke-width="2.5" stroke-linecap="round" stroke-linejoin="round"/>
<defs>
<clipPath id="clip0_264_9969">
<rect width="11" height="10" fill="white" transform="translate(149 141)"/>
</clipPath>
</defs>
</svg>
