<svg width="464" height="440" viewBox="0 0 464 440" fill="none" xmlns="http://www.w3.org/2000/svg">
<g clip-path="url(#clip0_177_1331)">
<path d="M441.206 104.464C441.431 104.133 447.046 109.774 452.153 108.613C458.514 107.167 463.168 95.3741 459.718 90.3301C457.435 86.992 451.757 86.8351 451.875 86.209C452.002 85.5391 458.112 87.7847 461.436 85.1025C465.475 81.8442 464.631 71.9346 459.69 66.7368C458.702 65.6969 457.06 63.9695 454.702 63.8327C450.07 63.5639 446.434 69.6494 444.836 72.3242C439.754 80.8281 439.338 89.7501 438.711 89.6665C438.132 89.5893 439.67 82.123 436.882 80.5943C436.271 80.2595 435.545 80.2641 434.824 80.4305C435.007 79.9594 435.138 79.4744 435.204 78.9758C435.623 75.8314 433.12 72.4887 430.162 69.6865C433.242 71.5078 436.724 72.7706 439.805 71.8673C446.686 69.8493 451.265 57.1147 447.647 49.2973C445.121 43.8374 438.677 40.9526 438.89 40.6401C439.115 40.3087 444.73 45.9497 449.837 44.7888C456.198 43.3428 460.852 31.55 457.402 26.5061C455.119 23.1679 449.441 23.011 449.559 22.3849C449.686 21.715 455.796 23.9606 459.121 21.2785C463.159 18.0201 462.315 8.11051 457.374 2.91278C456.386 1.87278 454.744 0.145401 452.386 0.00861909C447.754 -0.26012 444.118 5.82531 442.52 8.5001C437.439 17.004 437.022 25.926 436.395 25.8425C435.816 25.7652 437.355 18.299 434.566 16.7703C432.82 15.813 430.135 17.5987 429.301 18.1533C420.129 24.2519 422.67 37.5129 414.197 51.621C411.469 56.1636 408.751 58.8762 406.457 60.928C405.409 48.2962 409.268 38.5995 403.423 31.2547C402.799 30.4714 400.792 27.9496 398.836 28.3261C395.712 28.9273 394.882 36.5046 394.306 36.4007C393.684 36.2883 396.03 27.6691 393.808 18.0194C393.109 14.9842 391.519 8.0789 387.028 6.91659C384.742 6.32479 382.648 7.46615 381.387 8.15329C375.087 11.5876 371.238 20.761 374.08 25.0987C376.419 28.6693 382.925 28.403 382.84 29.0793C382.76 29.7114 377.307 28.1222 374.108 30.6003C369.274 34.3448 370.079 46.9937 375.689 50.3179C380.193 52.9864 387.271 49.3366 387.383 49.721C387.49 50.0836 380.47 50.8564 376.387 55.2793C374.692 57.1153 373.529 59.557 372.872 62.1951C367.311 62.6123 362.552 66.5889 362.374 66.2824C362.172 65.936 369.7 63.3331 370.867 58.2372C372.32 51.889 363.692 42.5897 357.642 43.5045C353.638 44.11 351.034 49.1482 350.52 48.7704C349.97 48.3662 354.647 43.8449 353.667 39.6922C352.477 34.6475 343.164 31.1088 336.329 33.2977C334.961 33.7356 332.689 34.4631 331.543 36.5243C329.292 40.5729 333.209 46.482 334.931 49.0793C340.405 57.337 348.279 61.5807 347.932 62.1082C347.611 62.5958 341.538 57.9741 338.948 59.8187C337.327 60.9737 337.774 64.1632 337.913 65.1538C339.442 76.0471 352.516 79.5123 361.579 93.2508C368.959 104.438 365.81 110.51 372.062 113.542C374.747 114.844 378.164 115.096 381.657 114.469C378.954 132.536 378.19 163.435 378.19 163.435C377.427 194.342 373.446 219.795 371.703 219.746C370.735 219.717 371.092 211.932 368.16 199.412C366.103 190.634 365.132 191.039 359.79 175.378C351.313 150.534 347.075 138.116 347.066 138.048C347.021 137.508 346.947 136.418 346.637 135.315C352.911 133.563 359.004 129.074 361.121 122.775C362.814 117.735 362.369 110.249 358.25 107.552C355.593 105.812 351.489 106.614 347.677 108.058C350.657 106.078 353.307 103.494 353.828 100.332C354.99 93.2685 345.479 83.628 336.852 83.4912C330.826 83.3957 325.428 87.9391 325.238 87.6124C325.036 87.2659 332.564 84.663 333.731 79.5671C335.184 73.2189 326.555 63.9196 320.505 64.8345C316.501 65.4399 313.897 70.4781 313.383 70.1004C312.833 69.6962 317.511 65.1748 316.531 61.0222C315.34 55.9775 306.028 52.4387 299.192 54.6276C297.825 55.0656 295.553 55.793 294.407 57.8543C292.156 61.9028 296.073 67.8119 297.795 70.4093C303.269 78.6669 311.143 82.9106 310.796 83.4381C310.475 83.9258 304.401 79.3041 301.812 81.1487C300.19 82.3036 300.638 85.4931 300.777 86.4837C302.305 97.377 315.38 100.842 324.443 114.581C331.823 125.768 328.674 131.84 334.926 134.872C336.008 135.397 337.211 135.746 338.488 135.942L338.489 135.948C339.039 144.49 354.457 167.445 363.039 200.083C367.313 216.344 369.652 225.214 367.969 237.567C366.306 249.813 361.688 258.079 361.772 263.536C361.778 264.046 361.823 264.517 361.917 264.973L387.26 261.653C387.43 261.163 387.564 260.66 387.67 260.143C389.6 250.852 382.559 236.73 386.137 213.956C388.794 197.056 396.074 183.155 399.468 176.679C403.639 168.715 408.567 161.224 413.888 149.591C417.304 151.468 421.178 152.465 425.021 151.983C430.306 151.32 436.871 147.673 437.52 142.8C437.939 139.655 435.436 136.313 432.478 133.511C435.558 135.332 439.04 136.595 442.12 135.691C449.002 133.673 453.581 120.939 449.963 113.121C447.436 107.662 440.993 104.777 441.206 104.464ZM338.1 112.792C338.082 112.755 338.346 112.64 338.807 112.453C338.373 112.697 338.119 112.828 338.1 112.792ZM422.347 63.6163C421.939 63.3313 421.71 63.1598 421.735 63.1272C421.76 63.0946 421.979 63.2827 422.347 63.6163ZM396.065 76.6544C396.519 76.4497 396.785 76.3375 396.798 76.3762C396.812 76.4149 396.542 76.508 396.065 76.6544ZM375.237 91.4617C375.218 91.4251 375.483 91.3101 375.944 91.1233C375.509 91.3668 375.255 91.4983 375.237 91.4617ZM382.527 156.801C381.919 156.664 389.32 126.787 390.534 110.925C394.046 108.626 396.931 105.39 398.257 101.445C398.28 101.376 398.301 101.306 398.323 101.236C399.026 101.139 399.725 101.007 400.416 100.844C397.94 107.095 396.558 111.633 396.558 111.633C390.126 132.78 383.082 156.927 382.527 156.801ZM410.15 147.047C408.119 150.155 405.739 153.977 402.461 159.822C394.054 174.797 389.855 182.28 388.75 187.616C388.46 189.04 386.93 196.745 383.421 206.512C381.628 211.496 380.731 213.988 380.049 213.887C378.118 213.594 378.085 193.935 383.431 173.58C384.348 170.115 385.078 167.879 386.467 163.65C388.72 156.752 401.278 118.407 411.156 95.1448L411.157 95.1417C412.982 93.3965 414.346 91.4003 415.016 89.2988C415.23 88.628 415.351 88.0072 415.398 87.4167C417.761 88.1663 420.239 88.4682 422.706 88.1587C424.085 87.9857 425.551 87.6077 426.977 87.0593C423.032 94.036 423.096 104.484 416.513 115.445C409.613 126.933 402.766 126.735 402.739 133.673C402.722 138.28 405.727 143.377 410.153 147.042L410.15 147.047ZM424.051 126.951C424.076 126.919 424.295 127.107 424.663 127.44C424.255 127.155 424.026 126.984 424.051 126.951Z" fill="#F2F2F2"/>
<path d="M159.028 97.0755C162.898 96.4319 167.109 101.148 168.867 103.118C173.563 108.378 174.543 114.496 174.922 117.092C180.905 158.074 183.897 178.565 171.516 188.096C159.751 197.154 138.244 194.725 134.052 186.585C132.42 183.415 133.785 180.098 135.945 173.744C139.936 162.002 142.289 149.764 145.784 137.865C153.763 110.695 153.093 98.0625 159.028 97.0755Z" fill="#2F2E41"/>
<path d="M53.4484 250.036L34.6187 285.506C29.812 294.56 7.06706 434.038 17.1819 435.795L60.9953 437.246L79.174 438.198L97.8594 438.467L144.176 440L118.159 258.345L53.4484 250.036Z" fill="#2F2E41"/>
<path d="M99.8053 145.985L137.269 147.496L140.296 159.959L149.318 167.305C152.636 170.006 154.263 174.264 153.59 178.483L149.379 204.903C149.379 204.903 157.326 223.787 137.269 235.873L117.213 268.353L47.5829 261.177C47.5829 261.177 41.1497 260.422 45.6908 255.89C50.2319 251.358 55.9082 229.075 55.9082 229.075C55.9082 229.075 55.1514 219.255 57.8003 216.611C60.4493 213.968 58.6048 207.169 58.6048 207.169L69.3796 167.419C71.4791 159.674 78.5208 154.294 86.5607 154.294H98.5091L99.8053 145.985Z" fill="#FF4A03"/>
<path d="M388.003 400.15L60.8181 312.878C53.8279 311.013 48.9568 305.401 48.1058 298.23C47.2547 291.058 50.6772 284.465 57.0374 281.022L190.004 209.051C193.364 207.232 197.293 206.571 201.065 207.193L420.84 243.352C425.532 244.124 429.598 246.705 432.289 250.617C434.98 254.53 435.93 259.244 434.965 263.891L409.409 386.973C408.433 391.672 405.642 395.646 401.551 398.165C398.777 399.872 395.673 400.746 392.513 400.746C391.013 400.746 389.499 400.549 388.003 400.15Z" fill="white"/>
<path d="M388.003 400.15L60.8181 312.878C53.8279 311.013 48.9568 305.401 48.1058 298.23C47.2547 291.058 50.6772 284.465 57.0374 281.022L190.004 209.051C193.364 207.232 197.293 206.571 201.065 207.193L420.84 243.352C425.532 244.124 429.598 246.705 432.289 250.617C434.98 254.53 435.93 259.244 434.965 263.891L409.409 386.973C408.433 391.672 405.642 395.646 401.551 398.165C398.777 399.872 395.673 400.746 392.513 400.746C391.013 400.746 389.499 400.549 388.003 400.15ZM420.546 245.131L200.771 208.971C197.393 208.414 193.874 209.006 190.864 210.635L57.8984 282.606C52.2019 285.689 49.1364 291.595 49.8987 298.017C50.6611 304.44 55.0237 309.467 61.2842 311.137L388.469 398.409C392.629 399.517 396.938 398.887 400.603 396.631C404.268 394.375 406.767 390.815 407.641 386.607L433.197 263.525C434.061 259.364 433.21 255.141 430.8 251.637C428.39 248.132 424.748 245.822 420.546 245.131Z" fill="#CCCCCC"/>
<path d="M373.013 279.014L343.835 352.497C341.006 359.621 333.064 363.266 325.804 360.772L111.338 287.126C99.496 283.06 98.173 266.872 109.198 260.944L178.217 223.834C181.22 222.219 184.701 221.723 188.036 222.435L362.661 259.709C371.351 261.564 376.287 270.769 373.013 279.014Z" fill="#F2F2F2"/>
<path d="M316.831 291.203C323.519 291.203 328.94 288.497 328.94 285.16C328.94 281.823 323.519 279.117 316.831 279.117C310.143 279.117 304.721 281.823 304.721 285.16C304.721 288.497 310.143 291.203 316.831 291.203Z" fill="#FF6884"/>
<path d="M305.478 309.709C312.166 309.709 317.587 307.003 317.587 303.666C317.587 300.329 312.166 297.623 305.478 297.623C298.79 297.623 293.368 300.329 293.368 303.666C293.368 307.003 298.79 309.709 305.478 309.709Z" fill="#3F3D56"/>
<path d="M240.389 295.169C258.572 295.169 273.312 287.813 273.312 278.74C273.312 269.666 258.572 262.311 240.389 262.311C222.206 262.311 207.466 269.666 207.466 278.74C207.466 287.813 222.206 295.169 240.389 295.169Z" fill="#2E61DC"/>
<path d="M183.247 277.984C183.715 277.984 184.152 277.694 184.318 277.229C184.527 276.639 184.218 275.992 183.627 275.783L159.603 267.285C159.013 267.076 158.363 267.384 158.153 267.975C157.944 268.564 158.253 269.212 158.844 269.421L182.868 277.919C182.994 277.963 183.121 277.984 183.247 277.984Z" fill="#3F3D56"/>
<path d="M188.545 273.83C189.012 273.83 189.45 273.54 189.616 273.075C189.825 272.485 189.515 271.837 188.924 271.628L164.901 263.131C164.311 262.922 163.661 263.23 163.451 263.82C163.242 264.41 163.551 265.058 164.142 265.267L188.166 273.765C188.291 273.809 188.419 273.83 188.545 273.83Z" fill="#3F3D56"/>
<path d="M193.843 269.675C194.31 269.675 194.748 269.385 194.913 268.92C195.123 268.331 194.813 267.683 194.222 267.474L170.198 258.976C169.609 258.768 168.959 259.076 168.749 259.666C168.54 260.256 168.849 260.903 169.44 261.112L193.464 269.61C193.589 269.654 193.717 269.675 193.843 269.675Z" fill="#3F3D56"/>
<path d="M199.141 265.521C199.608 265.521 200.046 265.231 200.211 264.766C200.421 264.177 200.111 263.529 199.52 263.32L175.496 254.822C174.907 254.614 174.257 254.922 174.047 255.512C173.838 256.101 174.147 256.749 174.738 256.958L198.762 265.456C198.887 265.5 199.015 265.521 199.141 265.521Z" fill="#3F3D56"/>
<path d="M204.439 261.367C204.906 261.367 205.344 261.077 205.509 260.612C205.718 260.022 205.409 259.375 204.818 259.165L180.794 250.668C180.205 250.459 179.555 250.767 179.345 251.357C179.136 251.947 179.445 252.595 180.036 252.804L204.06 261.302C204.185 261.346 204.313 261.367 204.439 261.367Z" fill="#3F3D56"/>
<path d="M209.737 257.213C210.204 257.213 210.642 256.922 210.807 256.458C211.016 255.868 210.707 255.22 210.116 255.011L186.092 246.513C185.502 246.305 184.853 246.613 184.643 247.203C184.434 247.793 184.743 248.44 185.334 248.649L209.358 257.147C209.483 257.192 209.611 257.213 209.737 257.213Z" fill="#3F3D56"/>
<path d="M215.035 253.057C215.502 253.057 215.94 252.767 216.105 252.302C216.314 251.713 216.005 251.065 215.414 250.856L191.39 242.358C190.8 242.15 190.151 242.458 189.941 243.048C189.731 243.638 190.041 244.285 190.632 244.494L214.656 252.992C214.781 253.036 214.909 253.057 215.035 253.057Z" fill="#3F3D56"/>
<path d="M134.052 158.26C151.19 158.26 165.083 144.394 165.083 127.29C165.083 110.186 151.19 96.3203 134.052 96.3203C116.915 96.3203 103.022 110.186 103.022 127.29C103.022 144.394 116.915 158.26 134.052 158.26Z" fill="#A0616A"/>
<path d="M140.486 81.2138C131.749 79.7924 127.057 79.0292 122.321 80.0808C112.834 82.1873 107.331 90.6524 103.4 96.6986C94.0009 111.157 98.2504 117.234 89.0202 137.488C82.3988 152.018 79.0605 151.417 78.4244 159.016C77.089 174.966 90.684 190.921 105.292 197.161C106.268 197.578 121.45 203.918 125.727 198.672C128.863 194.826 123.324 188.206 116.645 170.346C104.902 138.942 110.451 128.446 112.104 125.78C113.148 124.095 116.128 119.909 117.78 120.492C119.276 121.021 117.981 124.853 119.294 128.046C122.811 136.602 144.189 138.501 160.921 131.823C165.855 129.853 168.882 128.645 171.138 125.402C178.791 114.401 169.655 91.3447 155.244 84.6129C151.966 83.0815 148.139 82.4589 140.486 81.2138Z" fill="#2F2E41"/>
<path d="M118.299 265.731C125.846 269.551 129.989 276.534 127.552 281.328C125.115 286.121 117.022 286.908 109.473 283.085C106.436 281.599 103.801 279.41 101.786 276.699L70.0137 260.108L78.1323 245.394L108.592 263.311C111.975 263.332 115.304 264.162 118.299 265.731Z" fill="#A0616A"/>
<path d="M266.896 244.384C274.846 247.278 279.794 253.718 277.948 258.767C276.102 263.816 268.162 265.562 260.209 262.666C257.017 261.553 254.138 259.693 251.813 257.241L218.283 244.555L224.584 228.979L256.969 243.139C260.33 242.757 263.734 243.184 266.896 244.384Z" fill="#A0616A"/>
<path d="M82.2085 162.036C82.2085 162.036 75.7753 148.818 61.0168 159.015C46.2583 169.212 11.065 211.512 11.065 211.512C11.065 211.512 -7.09931 227.375 3.11811 233.04C13.3355 238.705 86.7495 271.563 86.7495 271.563L105.292 258.722L39.4467 225.109L77.2696 196.783L82.2085 162.036Z" fill="#FF4A03"/>
<path d="M146.54 169.968C146.54 169.968 151.043 163.547 159.009 169.968C166.975 176.388 189.903 213.358 189.903 213.358L246.444 236.439L238.119 253.435L170.381 229.263L140.864 189.229L146.54 169.968Z" fill="#FF4A03"/>
<path d="M142.945 158.448C134.364 162.822 138.312 169.537 138.026 170.912C135.237 184.301 145.432 198.169 149.379 197.349C151.694 196.868 152.911 191.113 152.406 186.774C151.752 181.149 157.172 172.245 156.569 168.268C155.088 158.511 164.023 158.329 162.245 154.672C161.203 152.528 148.06 155.842 142.945 158.448Z" fill="#2F2E41"/>
<path d="M242.424 296.037C242.459 296.037 242.495 296.036 242.531 296.031C243.026 295.973 243.38 295.525 243.321 295.03L241.286 277.878C241.258 277.641 241.136 277.424 240.948 277.277C240.759 277.129 240.521 277.063 240.282 277.09L207.956 280.97C207.461 281.029 207.108 281.478 207.167 281.972C207.227 282.466 207.677 282.821 208.172 282.759L239.599 278.987L241.528 295.243C241.583 295.701 241.973 296.037 242.424 296.037Z" fill="white"/>
<path d="M75.9655 312.603C85.2728 312.603 92.8178 305.073 92.8178 295.784C92.8178 286.495 85.2728 278.965 75.9655 278.965C66.6583 278.965 59.1133 286.495 59.1133 295.784C59.1133 305.073 66.6583 312.603 75.9655 312.603Z" fill="#FF4A03"/>
<path d="M68.3088 293.161L73.7254 302.668C74.0476 303.233 74.9731 303.275 75.2844 302.668C77.3999 298.545 80.3877 294.895 84.0706 292.066C84.4599 291.767 84.6575 291.295 84.3945 290.833C84.1767 290.451 83.545 290.214 83.1593 290.51C79.2256 293.531 75.9905 297.344 73.7254 301.758H75.2844L69.8679 292.251C69.2936 291.243 67.733 292.15 68.3088 293.161Z" fill="white"/>
</g>
<defs>
<clipPath id="clip0_177_1331">
<rect width="464" height="440" fill="white"/>
</clipPath>
</defs>
</svg>
